SplineFontDB: 3.0
FontName: Trocchi
FullName: Trocchi
FamilyName: Trocchi Normal Normal
Weight: Regular
Copyright: 
Version: 1.0
FONDName: Trocchi
ItalicAngle: 0
UnderlinePosition: -50
UnderlineWidth: 50
Ascent: 800
Descent: 200
UFOAscent: 735
UFODescent: -250
LayerCount: 2
Layer: 0 0 "Back"  1
Layer: 1 0 "Fore"  0
NeedsXUIDChange: 1
OS2Version: 0
OS2_WeightWidthSlopeOnly: 0
OS2_UseTypoMetrics: 0
CreationTime: 1332448312
ModificationTime: 1332450587
PfmFamily: 0
TTFWeight: 400
TTFWidth: 5
LineGap: 0
VLineGap: 0
Panose: 0 0 0 0 0 0 0 0 0 0
OS2TypoAscent: 750
OS2TypoAOffset: 0
OS2TypoDescent: 250
OS2TypoDOffset: 0
OS2TypoLinegap: 0
OS2WinAscent: 1000
OS2WinAOffset: 0
OS2WinDescent: 392
OS2WinDOffset: 0
HheadAscent: 0
HheadAOffset: 1
HheadDescent: 0
HheadDOffset: 1
OS2SubXSize: 650
OS2SubYSize: 600
OS2SubXOff: 0
OS2SubYOff: 75
OS2SupXSize: 650
OS2SupYSize: 600
OS2SupXOff: 0
OS2SupYOff: 350
OS2StrikeYSize: 50
OS2StrikeYPos: 314
OS2Vendor: 'newt'
OS2CodePages: 00000001.00000000
OS2UnicodeRanges: 00000001.00000000.00000000.00000000
Lookup: 258 0 0 "'kern' Horizontal Kerning in Latin lookup 0"  {"'kern' Horizontal Kerning in Latin lookup 0 subtable" [150,15,0] "'kern' Horizontal Kerning lookup 1 per glyph data 0"  "'kern' Horizontal Kerning lookup 1 kerning class 1"  } ['kern' ('DFLT' <'dflt' > 'latn' <'dflt' > ) ]
MarkAttachClasses: 1
DEI: 91125
KernClass2: 28 28 "'kern' Horizontal Kerning lookup 1 kerning class 1" 
 1 A
 1 B
 16 D Eth O Oslash Q
 1 F
 5 H M N
 1 J
 1 K
 1 L
 1 P
 1 R
 1 T
 1 U
 1 V
 1 W
 1 Y
 1 a
 18 b o oslash p thorn
 1 d
 1 e
 12 h m n ntilde
 14 k kgreenlandic
 1 r
 1 s
 1 v
 1 w
 1 x
 1 y
 1 A
 26 C Ccedilla G O OE Oslash Q
 1 T
 1 U
 1 V
 1 W
 1 X
 1 Y
 25 a ae agrave aogonek aring
 66 c ccedilla d e eacute ecircumflex edieresis eogonek eth o oslash q
 5 colon
 5 comma
 1 g
 6 hyphen
 1 i
 1 l
 6 period
 13 quotedblright
 10 quoteright
 1 r
 1 s
 9 semicolon
 1 u
 1 v
 1 w
 1 x
 1 y

StartChar: A
Encoding: 65 65 1
Width: 812
VWidth: 0
Flags: W
PickledData: "(dp1
S'com.typemytype.robofont.layerData'
p2
(dp3
S'back'
p4
(dp5
S'name'
p6
S'A'
sS'lib'
p7
(dp8
sS'unicodes'
p9
(tsS'width'
p10
I812
sS'contours'
p11
(tsS'components'
p12
(tsS'anchors'
p13
(tsss."
LayerCount: 2
Fore
SplineSet
509 308 m 1
 274 308 l 1
 388 639 l 1
 509 308 l 1
310 67 m 1
 187 67 l 1
 251 246 l 1
 533 246 l 1
 601 67 l 1
 492 67 l 1
 492 0 l 1
 808 0 l 1
 808 67 l 1
 726 67 l 1
 465 735 l 1
 349 735 l 1
 92 67 l 1
 4 67 l 1
 4 0 l 1
 310 0 l 1
 310 67 l 1
406 722 m 0
730 10 m 0
EndSplineSet
EndChar

StartChar: AE
Encoding: 198 198 2
Width: 1078
VWidth: 0
Flags: W
PickledData: "(dp1
S'com.typemytype.robofont.layerData'
p2
(dp3
S'back'
p4
(dp5
S'name'
p6
S'AE'
p7
sS'lib'
p8
(dp9
sS'unicodes'
p10
(tsS'width'
p11
I1078
sS'contours'
p12
((dp13
S'points'
p14
((dp15
S'segmentType'
p16
S'line'
p17
sS'x'
F397
sS'smooth'
p18
I00
sS'y'
F0
s(dp19
g16
S'line'
p20
sS'x'
F397
sg18
I00
sS'y'
F67
s(dp21
g16
S'line'
p22
sS'x'
F517
sg18
I00
sS'y'
F67
s(dp23
g16
S'line'
p24
sS'x'
F517
sg18
I00
sS'y'
F652
s(dp25
g16
S'line'
p26
sS'x'
F397
sg18
I00
sS'y'
F652
s(dp27
g16
S'line'
p28
sS'x'
F397
sg18
I00
sS'y'
F722
s(dp29
g16
S'line'
p30
sS'x'
F1061
sg18
I00
sS'y'
F722
s(dp31
g16
S'line'
p32
sS'x'
F1061
sg18
I00
sS'y'
F439
s(dp33
g16
S'line'
p34
sS'x'
F973
sg18
I00
sS'y'
F439
s(dp35
g16
S'line'
p36
sS'x'
F973
sg18
I00
sS'y'
F652
s(dp37
g16
S'line'
p38
sS'x'
F632
sg18
I00
sS'y'
F652
s(dp39
g16
S'line'
p40
sS'x'
F632
sg18
I00
sS'y'
F397
s(dp41
g16
S'line'
p42
sS'x'
F814
sg18
I00
sS'y'
F397
s(dp43
g16
S'line'
p44
sS'x'
F814
sg18
I00
sS'y'
F507
s(dp45
g16
S'line'
p46
sS'x'
F879
sg18
I00
sS'y'
F507
s(dp47
g16
S'line'
p48
sS'x'
F879
sg18
I00
sS'y'
F207
s(dp49
g16
S'line'
p50
sS'x'
F814
sg18
I00
sS'y'
F207
s(dp51
g16
S'line'
p52
sS'x'
F814
sg18
I00
sS'y'
F341
s(dp53
g16
S'line'
p54
sS'x'
F632
sg18
I00
sS'y'
F341
s(dp55
g16
S'line'
p56
sS'x'
F632
sg18
I00
sS'y'
F67
s(dp57
g16
S'line'
p58
sS'x'
F973
sg18
I00
sS'y'
F67
s(dp59
g16
S'line'
p60
sS'x'
F973
sg18
I00
sS'y'
F279
s(dp61
g16
S'line'
p62
sS'x'
F1061
sg18
I00
sS'y'
F279
s(dp63
g16
S'line'
p64
sS'x'
F1061
sg18
I00
sS'y'
F0
stp65
stp66
sS'components'
p67
(tsS'anchors'
p68
((dp69
S'y'
F0
sS'x'
F370
sg6
S'bottom'
p70
s(dp71
S'y'
F10
sS'x'
F681
sg6
S'ogonek'
p72
s(dp73
S'y'
F722
sS'x'
F370
sg6
S'top'
p74
stp75
sss."
LayerCount: 2
Fore
SplineSet
326 308 m 1
 517 652 l 1
 517 308 l 1
 326 308 l 1
302 67 m 1
 196 67 l 1
 292 246 l 1
 517 246 l 1
 517 67 l 1
 427 67 l 1
 427 0 l 1
 1021 0 l 1
 1021 279 l 1
 933 279 l 1
 933 67 l 1
 632 67 l 1
 632 341 l 1
 774 341 l 1
 774 207 l 1
 839 207 l 1
 839 507 l 1
 774 507 l 1
 774 397 l 1
 632 397 l 1
 632 652 l 1
 933 652 l 1
 933 439 l 1
 1021 439 l 1
 1021 722 l 1
 297 722 l 1
 297 652 l 1
 427 652 l 1
 88 67 l 1
 0 67 l 1
 0 0 l 1
 302 0 l 1
 302 67 l 1
825 10 m 0
514 0 m 0
514 722 m 0
535 722 m 0
859 10 m 0
EndSplineSet
EndChar

StartChar: B
Encoding: 66 66 3
Width: 706
VWidth: 0
Flags: W
PickledData: "(dp1
S'com.typemytype.robofont.layerData'
p2
(dp3
S'back'
p4
(dp5
S'name'
p6
S'B'
sS'lib'
p7
(dp8
sS'unicodes'
p9
(tsS'width'
p10
I706
sS'contours'
p11
(tsS'components'
p12
(tsS'anchors'
p13
(tsss."
LayerCount: 2
Fore
SplineSet
16 0 m 1
 16 67 l 1
 136 67 l 1
 136 665 l 1
 16 665 l 1
 16 735 l 1
 323 735 l 2
 442 735 632 708 632 553 c 0
 632 547 631 542 631 536 c 0
 625 463 584 418 503 395 c 1
 606 368 671 305 671 201 c 0
 671 10 454 0 325 0 c 2
 16 0 l 1
251 67 m 1
 434 67 556 73 556 205 c 0
 556 309 456 356 357 356 c 2
 251 356 l 1
 251 67 l 1
251 421 m 1
 357 421 l 2
 436 421 526 451 526 537 c 0
 526 659 412 665 251 665 c 1
 251 421 l 1
EndSplineSet
EndChar

StartChar: C
Encoding: 67 67 4
Width: 707
VWidth: 0
Flags: W
PickledData: "(dp1
S'com.typemytype.robofont.layerData'
p2
(dp3
S'back'
p4
(dp5
S'name'
p6
S'C'
sS'lib'
p7
(dp8
sS'unicodes'
p9
(tsS'width'
p10
I707
sS'contours'
p11
(tsS'components'
p12
(tsS'anchors'
p13
(tsss."
LayerCount: 2
Fore
SplineSet
399 750 m 0
 184 750 44 592 41 375 c 1
 41 369 l 2
 41 163 185 -13 388 -13 c 0
 559 -13 664 75 698 223 c 1
 633 255 l 1
 612 173 539 77 419 77 c 2
 408 77 l 1
 258 84 170 234 170 373 c 0
 170 563 268 680 398 680 c 0
 486 680 548 637 577 594 c 1
 546 594 490 572 490 516 c 2
 490 509 l 1
 493 463 527 435 573 435 c 0
 635 435 669 484 669 524 c 0
 669 658 532 750 399 750 c 0
369 722 m 0
369 0 m 0
EndSplineSet
EndChar

StartChar: D
Encoding: 68 68 6
Width: 766
VWidth: 0
Flags: W
PickledData: "(dp1
S'com.typemytype.robofont.layerData'
p2
(dp3
S'back'
p4
(dp5
S'name'
p6
S'D'
sS'lib'
p7
(dp8
sS'unicodes'
p9
(tsS'width'
p10
I766
sS'contours'
p11
(tsS'components'
p12
(tsS'anchors'
p13
(tsss."
LayerCount: 2
Fore
SplineSet
16 665 m 1
 135 665 l 1
 135 67 l 1
 16 67 l 1
 16 0 l 1
 255 0 l 2
 531 0 722 106 725 367 c 1
 725 372 l 2
 725 658 486 735 237 735 c 2
 16 735 l 1
 16 665 l 1
250 67 m 1
 250 664 l 1
 431 664 600 620 600 372 c 2
 600 368 l 1
 598 132 444 67 250 67 c 1
390 722 m 0
390 361 m 0
EndSplineSet
EndChar

StartChar: E
Encoding: 69 69 7
Width: 725
VWidth: 0
Flags: W
PickledData: "(dp1
S'com.typemytype.robofont.layerData'
p2
(dp3
S'back'
p4
(dp5
S'name'
p6
S'E'
sS'lib'
p7
(dp8
sS'unicodes'
p9
(tsS'width'
p10
I725
sS'contours'
p11
(tsS'components'
p12
(tsS'anchors'
p13
(tsss."
LayerCount: 2
Fore
SplineSet
16 0 m 1
 16 67 l 1
 136 67 l 1
 136 665 l 1
 16 665 l 1
 16 735 l 1
 680 735 l 1
 680 452 l 1
 592 452 l 1
 592 665 l 1
 251 665 l 1
 251 401 l 1
 433 401 l 1
 433 521 l 1
 498 521 l 1
 498 218 l 1
 433 218 l 1
 433 345 l 1
 251 345 l 1
 251 67 l 1
 592 67 l 1
 592 279 l 1
 680 279 l 1
 680 0 l 1
 16 0 l 1
366 722 m 0
366 0 m 0
677 10 m 0
EndSplineSet
EndChar

StartChar: Eth
Encoding: 208 208 8
Width: 788
VWidth: 0
Flags: W
PickledData: "(dp1
S'com.typemytype.robofont.layerData'
p2
(dp3
S'back'
p4
(dp5
S'name'
p6
S'Eth'
p7
sS'lib'
p8
(dp9
sS'unicodes'
p10
(tsS'width'
p11
I788
sS'contours'
p12
(tsS'components'
p13
(tsS'anchors'
p14
(tsss."
LayerCount: 2
Fore
SplineSet
373 337 m 1
 373 407 l 1
 27 407 l 1
 27 337 l 1
 373 337 l 1
208 722 m 0
378 10 m 0
EndSplineSet
Refer: 6 68 N 1 0 0 1 0 0 2
EndChar

StartChar: F
Encoding: 70 70 9
Width: 688
VWidth: 0
Flags: W
PickledData: "(dp1
S'com.typemytype.robofont.layerData'
p2
(dp3
S'back'
p4
(dp5
S'name'
p6
S'F'
sS'lib'
p7
(dp8
sS'unicodes'
p9
(tsS'width'
p10
I688
sS'contours'
p11
((dp12
S'points'
p13
((dp14
S'segmentType'
p15
S'line'
p16
sS'x'
F15
sS'smooth'
p17
I00
sS'y'
F0
s(dp18
g15
S'line'
p19
sS'x'
F15
sg17
I00
sS'y'
F67
s(dp20
g15
S'line'
p21
sS'x'
F135
sg17
I00
sS'y'
F67
s(dp22
g15
S'line'
p23
sS'x'
F135
sg17
I00
sS'y'
F652
s(dp24
g15
S'line'
p25
sS'x'
F15
sg17
I00
sS'y'
F652
s(dp26
g15
S'line'
p27
sS'x'
F15
sg17
I00
sS'y'
F722
s(dp28
g15
S'line'
p29
sS'x'
F679
sg17
I00
sS'y'
F722
s(dp30
g15
S'line'
p31
sS'x'
F679
sg17
I00
sS'y'
F439
s(dp32
g15
S'line'
p33
sS'x'
F591
sg17
I00
sS'y'
F439
s(dp34
g15
S'line'
p35
sS'x'
F591
sg17
I00
sS'y'
F652
s(dp36
g15
S'line'
p37
sS'x'
F250
sg17
I00
sS'y'
F652
s(dp38
g15
S'line'
p39
sS'x'
F250
sg17
I00
sS'y'
F397
s(dp40
g15
S'line'
p41
sS'x'
F432
sg17
I00
sS'y'
F397
s(dp42
g15
S'line'
p43
sS'x'
F432
sg17
I00
sS'y'
F507
s(dp44
g15
S'line'
p45
sS'x'
F497
sg17
I00
sS'y'
F507
s(dp46
g15
S'line'
p47
sS'x'
F497
sg17
I00
sS'y'
F207
s(dp48
g15
S'line'
p49
sS'x'
F432
sg17
I00
sS'y'
F207
s(dp50
g15
S'line'
p51
sS'x'
F432
sg17
I00
sS'y'
F341
s(dp52
g15
S'line'
p53
sS'x'
F250
sg17
I00
sS'y'
F341
s(dp54
g15
S'line'
p55
sS'x'
F250
sg17
I00
sS'y'
F67
s(dp56
g15
S'line'
p57
sS'x'
F591
sg17
I00
sS'y'
F67
s(dp58
g15
S'line'
p59
sS'x'
F591
sg17
I00
sS'y'
F279
s(dp60
g15
S'line'
p61
sS'x'
F679
sg17
I00
sS'y'
F279
s(dp62
g15
S'line'
p63
sS'x'
F679
sg17
I00
sS'y'
F0
stp64
stp65
sS'components'
p66
(tsS'anchors'
p67
((dp68
S'y'
F10
sS'x'
F676
sg6
S'ogonek'
p69
s(dp70
S'y'
F0
sS'x'
F365
sg6
S'bottom'
p71
s(dp72
S'y'
F722
sS'x'
F365
sg6
S'top'
p73
stp74
sss."
LayerCount: 2
Fore
SplineSet
16 0 m 1
 16 67 l 1
 135 67 l 1
 135 665 l 1
 16 665 l 1
 16 735 l 1
 671 735 l 1
 671 467 l 1
 582 467 l 1
 582 665 l 1
 250 665 l 1
 250 412 l 1
 426 412 l 1
 426 515 l 1
 493 515 l 1
 493 230 l 1
 426 230 l 1
 426 354 l 1
 250 354 l 1
 250 67 l 1
 377 67 l 1
 377 0 l 1
 16 0 l 1
EndSplineSet
EndChar

StartChar: G
Encoding: 71 71 10
Width: 781
VWidth: 0
Flags: W
PickledData: "(dp1
S'com.typemytype.robofont.layerData'
p2
(dp3
S'back'
p4
(dp5
S'name'
p6
S'G'
sS'lib'
p7
(dp8
sS'unicodes'
p9
(tsS'width'
p10
I781
sS'contours'
p11
((dp12
S'points'
p13
((dp14
S'segmentType'
p15
S'curve'
p16
sS'x'
F399.142
sS'smooth'
p17
I01
sS'y'
F737.00800000000004
s(dp18
S'y'
F737.00800000000004
sS'x'
F183.64099999999999
sg17
I00
s(dp19
S'y'
F585.83900000000006
sS'x'
F44.0398
sg17
I00
s(dp20
g15
S'curve'
p21
sS'x'
F41
sg17
I01
sS'y'
F369
s(dp22
g15
S'line'
p23
sS'x'
F41
sg17
I01
sS'y'
F363
s(dp24
S'y'
F157
sS'x'
F41
sg17
I00
s(dp25
S'y'
F-13
sS'x'
F185
sg17
I00
s(dp26
g15
S'curve'
p27
sS'x'
F388
sg17
I01
sS'y'
F-13
s(dp28
S'y'
F-13
sS'x'
F559
sg17
I00
s(dp29
S'y'
F75
sS'x'
F664
sg17
I00
s(dp30
g15
S'curve'
p31
sS'x'
F698
sg17
I00
sS'y'
F223
s(dp32
g15
S'line'
p33
sS'x'
F633
sg17
I00
sS'y'
F255
s(dp34
S'y'
F173
sS'x'
F612
sg17
I00
s(dp35
S'y'
F77
sS'x'
F539
sg17
I00
s(dp36
g15
S'curve'
p37
sS'x'
F419
sg17
I01
sS'y'
F77
s(dp38
g15
S'line'
p39
sS'x'
F408
sg17
I01
sS'y'
F77
s(dp40
S'y'
F84
sS'x'
F258
sg17
I00
s(dp41
S'y'
F228
sS'x'
F170
sg17
I00
s(dp42
g15
S'curve'
p43
sS'x'
F170
sg17
I01
sS'y'
F367
s(dp44
S'y'
F557
sS'x'
F170
sg17
I00
s(dp45
S'y'
F667
sS'x'
F268
sg17
I00
s(dp46
g15
S'curve'
p47
sS'x'
F398
sg17
I01
sS'y'
F667
s(dp48
S'y'
F667
sS'x'
F486
sg17
I00
s(dp49
S'y'
F622.91999999999996
sS'x'
F548.029
sg17
I00
s(dp50
g15
S'curve'
p51
sS'x'
F577
sg17
I00
sS'y'
F580
s(dp52
S'y'
F580
sS'x'
F546
sg17
I00
s(dp53
S'y'
F558
sS'x'
F490
sg17
I00
s(dp54
g15
S'curve'
p55
sS'x'
F490
sg17
I01
sS'y'
F502
s(dp56
g15
S'line'
p57
sS'x'
F490
sg17
I01
sS'y'
F495
s(dp58
S'y'
F449
sS'x'
F493
sg17
I00
s(dp59
S'y'
F421
sS'x'
F527
sg17
I00
s(dp60
g15
S'curve'
p61
sS'x'
F573
sg17
I01
sS'y'
F421
s(dp62
S'y'
F421
sS'x'
F635.09900000000005
sg17
I00
s(dp63
S'y'
F469.57999999999998
sS'x'
F669.02099999999996
sg17
I00
s(dp64
g15
S'curve'
p65
sS'x'
F669.02099999999996
sg17
I01
sS'y'
F510.23500000000001
s(dp66
S'y'
F643.89599999999996
sS'x'
F669.02099999999996
sg17
I00
s(dp67
S'y'
F737.00800000000004
sS'x'
F532.13699999999994
sg17
I00
stp68
stp69
sS'components'
p70
(tsS'anchors'
p71
((dp72
S'y'
F0
sS'x'
F369
sg6
S'bottom'
p73
s(dp74
S'y'
F722
sS'x'
F369
sg6
S'top'
p75
stp76
sss."
LayerCount: 2
Fore
SplineSet
616 103 m 1
 640 0 l 1
 699 0 l 1
 699 286 l 1
 779 286 l 1
 779 360 l 1
 461 360 l 1
 461 286 l 1
 599 286 l 1
 599 218 l 2
 599 160 521 74 416 74 c 0
 271 74 169 216 169 372 c 0
 169 373 169 375 169 376 c 0
 171 545 266 680 427 680 c 0
 476 680 553 665 598 604 c 1
 578 606 534 578 534 526 c 0
 534 489 567 449 616 449 c 0
 671 449 702 495 700 533 c 0
 695 650 584 750 415 749 c 0
 180 747 41 568 41 371 c 0
 41 186 153 -10 385 -13 c 1
 466 -12 570 12 616 103 c 1
429 722 m 0
429 0 m 0
EndSplineSet
EndChar

StartChar: H
Encoding: 72 72 11
Width: 808
VWidth: 0
Flags: W
PickledData: "(dp1
S'com.typemytype.robofont.layerData'
p2
(dp3
S'back'
p4
(dp5
S'name'
p6
S'H'
sS'lib'
p7
(dp8
sS'unicodes'
p9
(tsS'width'
p10
I808
sS'contours'
p11
(tsS'components'
p12
(tsS'anchors'
p13
(tsss."
LayerCount: 2
Fore
SplineSet
792 67 m 1
 792 0 l 1
 445 0 l 1
 445 67 l 1
 558 67 l 1
 558 354 l 1
 250 354 l 1
 250 67 l 1
 362 67 l 1
 362 0 l 1
 16 0 l 1
 16 67 l 1
 135 67 l 1
 135 665 l 1
 16 665 l 1
 16 735 l 1
 362 735 l 1
 362 665 l 1
 250 665 l 1
 250 416 l 1
 558 416 l 1
 558 665 l 1
 445 665 l 1
 445 735 l 1
 792 735 l 1
 792 665 l 1
 673 665 l 1
 673 67 l 1
 792 67 l 1
404 722 m 0
404 361 m 0
EndSplineSet
EndChar

StartChar: I
Encoding: 73 73 12
Width: 386
VWidth: 0
Flags: W
PickledData: "(dp1
S'com.typemytype.robofont.layerData'
p2
(dp3
S'back'
p4
(dp5
S'name'
p6
S'I'
sS'lib'
p7
(dp8
sS'unicodes'
p9
(tsS'width'
p10
I386
sS'contours'
p11
(tsS'components'
p12
(tsS'anchors'
p13
(tsss."
LayerCount: 2
Fore
SplineSet
254 67 m 1
 366 67 l 1
 366 0 l 1
 20 0 l 1
 20 67 l 1
 139 67 l 1
 139 665 l 1
 20 665 l 1
 20 735 l 1
 366 735 l 1
 366 665 l 1
 254 665 l 1
 254 67 l 1
192 722 m 0
362 10 m 0
EndSplineSet
EndChar

StartChar: J
Encoding: 74 74 13
Width: 567
VWidth: 0
Flags: W
PickledData: "(dp1
S'com.typemytype.robofont.layerData'
p2
(dp3
S'back'
p4
(dp5
S'name'
p6
S'J'
sS'lib'
p7
(dp8
sS'unicodes'
p9
(tsS'width'
p10
I567
sS'contours'
p11
(tsS'components'
p12
(tsS'anchors'
p13
(tsss."
LayerCount: 2
Fore
SplineSet
220 -98 m 0
 403 -98 445 22 445 165 c 2
 445 665 l 1
 561 665 l 1
 561 735 l 1
 193 735 l 1
 193 665 l 1
 330 665 l 1
 330 152 l 2
 330 34 315 -43 215 -43 c 0
 187 -43 140 -32 127 -13 c 1
 147 -1 181 30 181 69 c 0
 181 119 140 147 100 147 c 0
 58 147 17 118 17 60 c 0
 17 -25 97 -98 220 -98 c 0
280 722 m 0
EndSplineSet
EndChar

StartChar: K
Encoding: 75 75 14
Width: 793
VWidth: 0
Flags: W
PickledData: "(dp1
S'com.typemytype.robofont.layerData'
p2
(dp3
S'back'
p4
(dp5
S'name'
p6
S'K'
sS'lib'
p7
(dp8
sS'unicodes'
p9
(tsS'width'
p10
I793
sS'contours'
p11
(tsS'components'
p12
(tsS'anchors'
p13
(tsss."
LayerCount: 2
Fore
SplineSet
442 0 m 1
 442 67 l 1
 551 67 l 1
 334 340 l 1
 250 270 l 1
 250 67 l 1
 353 67 l 1
 353 0 l 1
 16 0 l 1
 16 67 l 1
 135 67 l 1
 135 665 l 1
 16 665 l 1
 16 735 l 1
 353 735 l 1
 353 665 l 1
 250 665 l 1
 250 359 l 1
 257 361 294 395 299 399 c 0
 330 429 546 665 546 665 c 1
 434 665 l 1
 434 735 l 1
 781 735 l 1
 781 665 l 1
 669 665 l 1
 421 403 l 1
 701 67 l 1
 787 67 l 1
 787 0 l 1
 442 0 l 1
390 722 m 0
390 0 m 0
EndSplineSet
EndChar

StartChar: L
Encoding: 76 76 15
Width: 630
VWidth: 0
Flags: W
PickledData: "(dp1
S'com.typemytype.robofont.layerData'
p2
(dp3
S'back'
p4
(dp5
S'name'
p6
S'L'
sS'lib'
p7
(dp8
sS'unicodes'
p9
(tsS'width'
p10
I630
sS'contours'
p11
((dp12
S'points'
p13
((dp14
S'segmentType'
p15
S'line'
p16
sS'x'
F88
sS'smooth'
p17
I00
sS'y'
F652
s(dp18
g15
S'line'
p19
sS'x'
F205
sg17
I00
sS'y'
F652
s(dp20
g15
S'line'
p21
sS'x'
F205
sg17
I00
sS'y'
F67
s(dp22
g15
S'line'
p23
sS'x'
F22
sg17
I00
sS'y'
F67
s(dp24
g15
S'line'
p25
sS'x'
F22
sg17
I00
sS'y'
F297
s(dp26
g15
S'line'
p27
sS'x'
F-69
sg17
I00
sS'y'
F297
s(dp28
g15
S'line'
p29
sS'x'
F-69
sg17
I00
sS'y'
F0
s(dp30
g15
S'line'
p31
sS'x'
F598
sg17
I00
sS'y'
F0
s(dp32
g15
S'line'
p33
sS'x'
F598
sg17
I00
sS'y'
F297
s(dp34
g15
S'line'
p35
sS'x'
F507
sg17
I00
sS'y'
F297
s(dp36
g15
S'line'
p37
sS'x'
F507
sg17
I00
sS'y'
F67
s(dp38
S'y'
F66
sS'x'
F507
sg17
I00
s(dp39
S'y'
F67
sS'x'
F320
sg17
I00
s(dp40
g15
S'curve'
p41
sS'x'
F320
sg17
I00
sS'y'
F67
s(dp42
g15
S'line'
p43
sS'x'
F320
sg17
I00
sS'y'
F652
s(dp44
g15
S'line'
p45
sS'x'
F434
sg17
I00
sS'y'
F652
s(dp46
g15
S'line'
p47
sS'x'
F434
sg17
I00
sS'y'
F722
s(dp48
g15
S'line'
p49
sS'x'
F88
sg17
I00
sS'y'
F722
stp50
stp51
sS'components'
p52
(tsS'anchors'
p53
((dp54
S'y'
F0
sS'x'
F357
sg6
S'top'
p55
s(dp56
S'y'
F722
sS'x'
F357
sg6
S'bottom'
p57
s(dp58
S'y'
F361
sS'x'
F357
sg6
S'center'
p59
stp60
sss."
LayerCount: 2
Fore
SplineSet
617 0 m 1
 617 305 l 1
 526 305 l 1
 526 67 l 1
 250 67 l 1
 250 665 l 1
 362 665 l 1
 362 735 l 1
 16 735 l 1
 16 665 l 1
 135 665 l 1
 135 67 l 1
 16 67 l 1
 16 0 l 1
 617 0 l 1
323 722 m 0
323 0 m 0
EndSplineSet
EndChar

StartChar: M
Encoding: 77 77 16
Width: 956
VWidth: 0
Flags: W
PickledData: "(dp1
S'com.typemytype.robofont.layerData'
p2
(dp3
S'back'
p4
(dp5
S'name'
p6
S'M'
sS'lib'
p7
(dp8
sS'unicodes'
p9
(tsS'width'
p10
I956
sS'contours'
p11
((dp12
S'points'
p13
((dp14
S'segmentType'
p15
S'line'
p16
sS'x'
F4
sS'smooth'
p17
I00
sS'y'
F0
s(dp18
g15
S'line'
p19
sS'x'
F4
sg17
I00
sS'y'
F67
s(dp20
g15
S'line'
p21
sS'x'
F132
sg17
I00
sS'y'
F67
s(dp22
g15
S'line'
p23
sS'x'
F132
sg17
I00
sS'y'
F652
s(dp24
g15
S'line'
p25
sS'x'
F-5
sg17
I00
sS'y'
F652
s(dp26
g15
S'line'
p27
sS'x'
F-5
sg17
I00
sS'y'
F722
s(dp28
g15
S'line'
p29
sS'x'
F314
sg17
I00
sS'y'
F722
s(dp30
g15
S'line'
p31
sS'x'
F483
sg17
I00
sS'y'
F206
s(dp32
g15
S'line'
p33
sS'x'
F641
sg17
I00
sS'y'
F722
s(dp34
g15
S'line'
p35
sS'x'
F956
sg17
I00
sS'y'
F722
s(dp36
g15
S'line'
p37
sS'x'
F956
sg17
I00
sS'y'
F652
s(dp38
g15
S'line'
p39
sS'x'
F819
sg17
I00
sS'y'
F652
s(dp40
g15
S'line'
p41
sS'x'
F819
sg17
I00
sS'y'
F67
s(dp42
g15
S'line'
p43
sS'x'
F963
sg17
I00
sS'y'
F67
s(dp44
g15
S'line'
p45
sS'x'
F963
sg17
I00
sS'y'
F0
s(dp46
g15
S'line'
p47
sS'x'
F592
sg17
I00
sS'y'
F0
s(dp48
g15
S'line'
p49
sS'x'
F592
sg17
I00
sS'y'
F67
s(dp50
g15
S'line'
p51
sS'x'
F699
sg17
I00
sS'y'
F67
s(dp52
g15
S'line'
p53
sS'x'
F699
sg17
I00
sS'y'
F636
s(dp54
g15
S'line'
p55
sS'x'
F509
sg17
I01
sS'y'
F26
s(dp56
S'y'
F1
sS'x'
F501
sg17
I00
s(dp57
S'y'
F0
sS'x'
F483
sg17
I00
s(dp58
g15
S'curve'
p59
sS'x'
F471
sg17
I01
sS'y'
F0
s(dp60
S'y'
F0
sS'x'
F455
sg17
I00
s(dp61
S'y'
F4
sS'x'
F442
sg17
I00
s(dp62
g15
S'curve'
p63
sS'x'
F435
sg17
I01
sS'y'
F23
s(dp64
g15
S'line'
p65
sS'x'
F221
sg17
I00
sS'y'
F651
s(dp66
g15
S'line'
p67
sS'x'
F221
sg17
I00
sS'y'
F67
s(dp68
g15
S'line'
p69
sS'x'
F344
sg17
I00
sS'y'
F67
s(dp70
g15
S'line'
p71
sS'x'
F344
sg17
I00
sS'y'
F0
stp72
stp73
sS'components'
p74
(tsS'anchors'
p75
(tsss."
LayerCount: 2
Fore
SplineSet
25 0 m 1
 25 67 l 1
 132 67 l 1
 132 665 l 1
 16 665 l 1
 16 735 l 1
 309 735 l 1
 486 272 l 1
 648 735 l 1
 933 735 l 1
 933 665 l 1
 819 665 l 1
 819 67 l 1
 940 67 l 1
 940 0 l 1
 592 0 l 1
 592 67 l 1
 699 67 l 1
 699 649 l 1
 509 126 l 2
 499 100 486 89 473 89 c 0
 458 89 443 104 435 123 c 2
 221 664 l 1
 221 67 l 1
 344 67 l 1
 344 0 l 1
 25 0 l 1
EndSplineSet
EndChar

StartChar: N
Encoding: 78 78 17
Width: 840
VWidth: 0
Flags: W
PickledData: "(dp1
S'com.typemytype.robofont.layerData'
p2
(dp3
S'back'
p4
(dp5
S'name'
p6
S'N'
sS'lib'
p7
(dp8
sS'unicodes'
p9
(tsS'width'
p10
I840
sS'contours'
p11
(tsS'components'
p12
(tsS'anchors'
p13
(tsss."
LayerCount: 2
Fore
SplineSet
339 67 m 1
 227 67 l 1
 227 631 l 1
 590 0 l 1
 720 0 l 1
 720 665 l 1
 832 665 l 1
 832 735 l 1
 508 735 l 1
 508 665 l 1
 627 665 l 1
 627 130 l 1
 280 735 l 1
 16 735 l 1
 16 665 l 1
 134 665 l 1
 134 67 l 1
 16 67 l 1
 16 0 l 1
 339 0 l 1
 339 67 l 1
410 722 m 0
410 0 m 0
EndSplineSet
EndChar

StartChar: O
Encoding: 79 79 18
Width: 776
VWidth: 0
Flags: W
PickledData: "(dp1
S'com.typemytype.robofont.layerData'
p2
(dp3
S'back'
p4
(dp5
S'name'
p6
S'O'
sS'lib'
p7
(dp8
sS'unicodes'
p9
(tsS'width'
p10
I776
sS'contours'
p11
(tsS'components'
p12
(tsS'anchors'
p13
(tsss."
LayerCount: 2
Fore
SplineSet
166 369 m 0
 166 211 244 55 388 55 c 0
 532 55 610 210 610 367 c 0
 610 523 532 680 388 683 c 1
 244 683 166 526 166 369 c 0
41 368 m 0
 41 555 154 750 388 750 c 0
 621 750 735 555 735 368 c 0
 735 180 621 -13 388 -13 c 0
 154 -13 41 180 41 368 c 0
388 722 m 0
EndSplineSet
EndChar

StartChar: OE
Encoding: 338 338 19
Width: 1073
VWidth: 0
Flags: W
PickledData: "(dp1
S'com.typemytype.robofont.layerData'
p2
(dp3
S'back'
p4
(dp5
S'name'
p6
S'OE'
p7
sS'lib'
p8
(dp9
sS'unicodes'
p10
(tsS'width'
p11
I1073
sS'contours'
p12
((dp13
S'points'
p14
((dp15
S'segmentType'
p16
S'curve'
p17
sS'x'
F41
sS'smooth'
p18
I01
sS'y'
F362
s(dp19
S'y'
F549
sS'x'
F41
sg18
I00
s(dp20
S'y'
F737
sS'x'
F154
sg18
I00
s(dp21
g16
S'curve'
p22
sS'x'
F388
sg18
I01
sS'y'
F737
s(dp23
S'y'
F737
sS'x'
F621
sg18
I00
s(dp24
S'y'
F549
sS'x'
F735
sg18
I00
s(dp25
g16
S'curve'
p26
sS'x'
F735
sg18
I01
sS'y'
F362
s(dp27
S'y'
F174
sS'x'
F735
sg18
I00
s(dp28
S'y'
F-13
sS'x'
F621
sg18
I00
s(dp29
g16
S'curve'
p30
sS'x'
F388
sg18
I01
sS'y'
F-13
s(dp31
S'y'
F-13
sS'x'
F154
sg18
I00
s(dp32
S'y'
F174
sS'x'
F41
sg18
I00
stp33
s(dp34
g14
((dp35
g16
S'curve'
p36
sS'x'
F166
sg18
I01
sS'y'
F363
s(dp37
S'y'
F205
sS'x'
F166
sg18
I00
s(dp38
S'y'
F55
sS'x'
F244
sg18
I00
s(dp39
g16
S'curve'
p40
sS'x'
F388
sg18
I01
sS'y'
F55
s(dp41
S'y'
F55
sS'x'
F532
sg18
I00
s(dp42
S'y'
F204
sS'x'
F610
sg18
I00
s(dp43
g16
S'curve'
p44
sS'x'
F610
sg18
I01
sS'y'
F361
s(dp45
S'y'
F517
sS'x'
F610
sg18
I00
s(dp46
S'y'
F667
sS'x'
F532
sg18
I00
s(dp47
g16
S'curve'
p48
sS'x'
F388
sg18
I00
sS'y'
F670
s(dp49
S'y'
F670
sS'x'
F244
sg18
I00
s(dp50
S'y'
F520
sS'x'
F166
sg18
I00
stp51
stp52
sS'components'
p53
(tsS'anchors'
p54
((dp55
S'y'
F722
sS'x'
F388
sg6
S'top'
p56
stp57
sss."
LayerCount: 2
Fore
SplineSet
166 363 m 0
 166 561 270 652 393 652 c 2
 509 652 l 1
 509 67 l 1
 378 67 l 2
 261 67 166 176 166 363 c 0
1019 279 m 1
 931 279 l 1
 931 67 l 1
 619 67 l 1
 619 341 l 1
 772 341 l 1
 772 207 l 1
 837 207 l 1
 837 507 l 1
 772 507 l 1
 772 397 l 1
 619 397 l 1
 619 652 l 1
 931 652 l 1
 931 439 l 1
 1019 439 l 1
 1019 722 l 1
 377 722 l 2
 206 722 41 602 41 362 c 0
 41 130 196 0 375 0 c 2
 1019 0 l 1
 1019 279 l 1
390 0 m 0
701 10 m 0
390 722 m 0
388 722 m 0
EndSplineSet
EndChar

StartChar: Oslash
Encoding: 216 216 20
Width: 776
VWidth: 0
Flags: W
PickledData: "(dp1
S'com.typemytype.robofont.layerData'
p2
(dp3
S'back'
p4
(dp5
S'name'
p6
S'Oslash'
p7
sS'lib'
p8
(dp9
sS'unicodes'
p10
(tsS'width'
p11
I776
sS'contours'
p12
(tsS'components'
p13
(tsS'anchors'
p14
(tsss."
LayerCount: 2
Fore
SplineSet
699 750 m 1
 731 724 l 1
 81 -44 l 1
 49 -18 l 1
 699 750 l 1
EndSplineSet
Refer: 18 79 N 1 0 0 1 0 0 2
EndChar

StartChar: P
Encoding: 80 80 21
Width: 651
VWidth: 0
Flags: W
PickledData: "(dp1
S'com.typemytype.robofont.layerData'
p2
(dp3
S'back'
p4
(dp5
S'name'
p6
S'P'
sS'lib'
p7
(dp8
sS'unicodes'
p9
(tsS'width'
p10
I651
sS'contours'
p11
(tsS'components'
p12
(tsS'anchors'
p13
(tsss."
LayerCount: 2
Fore
SplineSet
16 735 m 1
 316 735 l 2
 433 735 642 727 642 536 c 0
 642 344 456 330 289 330 c 2
 250 330 l 1
 250 67 l 1
 372 67 l 1
 372 0 l 1
 16 0 l 1
 16 67 l 1
 135 67 l 1
 135 665 l 1
 16 665 l 1
 16 735 l 1
283 665 m 1
 250 665 l 1
 250 393 l 1
 318 393 l 2
 422 393 524 419 524 532 c 0
 524 665 414 664 283 665 c 1
EndSplineSet
EndChar

StartChar: Q
Encoding: 81 81 22
Width: 790
VWidth: 0
Flags: W
PickledData: "(dp1
S'com.typemytype.robofont.layerData'
p2
(dp3
S'back'
p4
(dp5
S'name'
p6
S'Q'
sS'lib'
p7
(dp8
sS'unicodes'
p9
(tsS'width'
p10
I790
sS'contours'
p11
(tsS'components'
p12
(tsS'anchors'
p13
(tsss."
LayerCount: 2
Fore
SplineSet
816 112 m 2
 816 123 l 1
 757 123 l 1
 757 112 l 2
 757 42 729 -10 690 -14 c 0
 689 -14 687 -14 686 -14 c 0
 657 -14 632 18 604 59 c 1
 692 131 735 252 735 368 c 0
 735 555 621 750 388 750 c 0
 154 750 41 555 41 368 c 0
 41 180 154 -13 388 -13 c 0
 434 -13 475 -6 512 7 c 1
 551 -54 596 -108 663 -108 c 0
 757 -108 816 -71 816 112 c 2
367 245 m 1
 353 245 l 1
 271 240 233 180 220 154 c 1
 185 211 166 292 166 369 c 0
 166 526 244 683 388 683 c 1
 532 680 610 523 610 367 c 0
 610 285 589 198 547 141 c 1
 505 195 452 242 374 245 c 1
 367 245 l 1
388 55 m 0
 335 55 291 75 257 109 c 1
 270 133 302 183 348 183 c 0
 399 183 436 133 471 74 c 1
 447 62 419 55 388 55 c 0
EndSplineSet
EndChar

StartChar: R
Encoding: 82 82 23
Width: 757
VWidth: 0
Flags: W
PickledData: "(dp1
S'com.typemytype.robofont.layerData'
p2
(dp3
S'back'
p4
(dp5
S'name'
p6
S'R'
sS'lib'
p7
(dp8
sS'unicodes'
p9
(tsS'width'
p10
I757
sS'contours'
p11
(tsS'components'
p12
(tsS'anchors'
p13
(tsss."
LayerCount: 2
Fore
SplineSet
626 -16 m 0
 696 -16 772 12 772 158 c 2
 772 230 l 1
 706 230 l 1
 706 167 l 2
 706 95 684 69 649 69 c 0
 544 69 647 321 464 360 c 1
 565 381 644 422 646 537 c 1
 646 541 l 2
 646 733 442 735 297 735 c 2
 16 735 l 1
 16 665 l 1
 135 665 l 1
 135 67 l 1
 16 67 l 1
 16 0 l 1
 361 0 l 1
 361 67 l 1
 250 67 l 1
 250 335 l 1
 279 335 l 1
 303 336 342 334 365 335 c 1
 355 333 l 1
 355 333 358 334 363 334 c 0
 378 334 447 318 465 215 c 0
 490 71 521 -16 626 -16 c 0
250 408 m 1
 250 665 l 1
 307 665 l 2
 464 665 540 638 543 537 c 1
 543 532 l 2
 543 438 457 408 311 408 c 2
 250 408 l 1
388 722 m 0
388 0 m 0
EndSplineSet
EndChar

StartChar: S
Encoding: 83 83 24
Width: 653
VWidth: 0
Flags: W
PickledData: "(dp1
S'com.typemytype.robofont.layerData'
p2
(dp3
S'back'
p4
(dp5
S'name'
p6
S'S'
sS'lib'
p7
(dp8
sS'unicodes'
p9
(tsS'width'
p10
I653
sS'contours'
p11
((dp12
S'points'
p13
((dp14
S'segmentType'
p15
S'curve'
p16
sS'x'
F104
sS'smooth'
p17
I01
sS'y'
F363
s(dp18
S'y'
F205
sS'x'
F104
sg17
I00
s(dp19
S'y'
F55
sS'x'
F182
sg17
I00
s(dp20
g15
S'curve'
p21
sS'x'
F326
sg17
I01
sS'y'
F55
s(dp22
S'y'
F55
sS'x'
F470
sg17
I00
s(dp23
S'y'
F204
sS'x'
F548
sg17
I00
s(dp24
g15
S'curve'
p25
sS'x'
F548
sg17
I01
sS'y'
F361
s(dp26
S'y'
F517
sS'x'
F548
sg17
I00
s(dp27
S'y'
F667
sS'x'
F470
sg17
I00
s(dp28
g15
S'curve'
p29
sS'x'
F326
sg17
I00
sS'y'
F670
s(dp30
S'y'
F670
sS'x'
F182
sg17
I00
s(dp31
S'y'
F520
sS'x'
F104
sg17
I00
stp32
s(dp33
g13
((dp34
g15
S'curve'
p35
sS'x'
F-21
sg17
I01
sS'y'
F362
s(dp36
S'y'
F549
sS'x'
F-21
sg17
I00
s(dp37
S'y'
F737
sS'x'
F92
sg17
I00
s(dp38
g15
S'curve'
p39
sS'x'
F326
sg17
I01
sS'y'
F737
s(dp40
S'y'
F737
sS'x'
F559
sg17
I00
s(dp41
S'y'
F549
sS'x'
F673
sg17
I00
s(dp42
g15
S'curve'
p43
sS'x'
F673
sg17
I01
sS'y'
F362
s(dp44
S'y'
F174
sS'x'
F673
sg17
I00
s(dp45
S'y'
F-13
sS'x'
F559
sg17
I00
s(dp46
g15
S'curve'
p47
sS'x'
F326
sg17
I01
sS'y'
F-13
s(dp48
S'y'
F-13
sS'x'
F92
sg17
I00
s(dp49
S'y'
F174
sS'x'
F-21
sg17
I00
stp50
stp51
sS'components'
p52
(tsS'anchors'
p53
((dp54
S'y'
F722
sS'x'
F326
sg6
S'top'
p55
stp56
sss."
LayerCount: 2
Fore
SplineSet
330 -13 m 0
 522 -13 624 67 624 194 c 1
 623 303 569 379 326 433 c 0
 173 467 155 512 155 563 c 1
 157 642 240 688 331 688 c 0
 391 688 451 676 496 636 c 1
 465 636 429 617 429 560 c 0
 429 516 470 491 511 491 c 0
 565 491 594 534 594 589 c 0
 594 709 422 750 319 750 c 0
 152 750 38 662 38 543 c 0
 38 434 97 367 300 317 c 0
 436 283 499 257 499 177 c 0
 499 95 412 59 314 59 c 0
 248 59 178 75 126 105 c 1
 166 110 195 131 195 176 c 0
 195 216 162 257 117 257 c 0
 72 257 29 220 29 164 c 0
 29 42 181 -13 330 -13 c 0
328 722 m 0
328 0 m 0
EndSplineSet
EndChar

StartChar: T
Encoding: 84 84 25
Width: 701
VWidth: 0
Flags: W
PickledData: "(dp1
S'com.typemytype.robofont.layerData'
p2
(dp3
S'back'
p4
(dp5
S'name'
p6
S'T'
sS'lib'
p7
(dp8
sS'unicodes'
p9
(tsS'width'
p10
I701
sS'contours'
p11
(tsS'components'
p12
(tsS'anchors'
p13
(tsss."
LayerCount: 2
Fore
SplineSet
527 70 m 1
 410 70 l 1
 410 668 l 1
 593 668 l 1
 593 438 l 1
 684 438 l 1
 684 735 l 1
 17 735 l 1
 17 438 l 1
 108 438 l 1
 108 668 l 2
 108 669 295 668 295 668 c 1
 295 70 l 1
 181 70 l 1
 181 0 l 1
 527 0 l 1
 527 70 l 1
351 722 m 0
351 0 m 0
351 361 m 0
EndSplineSet
EndChar

StartChar: Thorn
Encoding: 222 222 26
Width: 675
VWidth: 0
Flags: W
PickledData: "(dp1
S'com.typemytype.robofont.layerData'
p2
(dp3
S'back'
p4
(dp5
S'name'
p6
S'Thorn'
p7
sS'lib'
p8
(dp9
sS'unicodes'
p10
(tsS'width'
p11
I675
sS'contours'
p12
(tsS'components'
p13
(tsS'anchors'
p14
(tsss."
LayerCount: 2
Fore
SplineSet
390 0 m 1
 390 67 l 1
 268 67 l 1
 268 184 l 1
 307 184 l 2
 474 184 660 186 660 378 c 0
 660 569 451 571 334 571 c 2
 268 571 l 1
 268 652 l 1
 380 652 l 1
 380 722 l 1
 34 722 l 1
 34 652 l 1
 153 652 l 1
 153 67 l 1
 34 67 l 1
 34 0 l 1
 390 0 l 1
542 374 m 0
 542 261 440 247 336 247 c 2
 268 247 l 1
 268 501 l 1
 301 501 l 1
 432 500 542 507 542 374 c 0
378 10 m 0
208 722 m 0
EndSplineSet
EndChar

StartChar: U
Encoding: 85 85 27
Width: 783
VWidth: 0
Flags: W
PickledData: "(dp1
S'com.typemytype.robofont.layerData'
p2
(dp3
S'back'
p4
(dp5
S'name'
p6
S'U'
sS'lib'
p7
(dp8
sS'unicodes'
p9
(tsS'width'
p10
I783
sS'contours'
p11
((dp12
S'points'
p13
((dp14
S'segmentType'
p15
S'line'
p16
sS'x'
F772
sS'smooth'
p17
I00
sS'y'
F67
s(dp18
g15
S'line'
p19
sS'x'
F772
sg17
I00
sS'y'
F0
s(dp20
g15
S'line'
p21
sS'x'
F425
sg17
I00
sS'y'
F0
s(dp22
g15
S'line'
p23
sS'x'
F425
sg17
I00
sS'y'
F67
s(dp24
g15
S'line'
p25
sS'x'
F538
sg17
I00
sS'y'
F67
s(dp26
g15
S'line'
p27
sS'x'
F538
sg17
I00
sS'y'
F341
s(dp28
g15
S'line'
p29
sS'x'
F230
sg17
I00
sS'y'
F341
s(dp30
g15
S'line'
p31
sS'x'
F230
sg17
I00
sS'y'
F67
s(dp32
g15
S'line'
p33
sS'x'
F342
sg17
I00
sS'y'
F67
s(dp34
g15
S'line'
p35
sS'x'
F342
sg17
I00
sS'y'
F0
s(dp36
g15
S'line'
p37
sS'x'
F-4
sg17
I00
sS'y'
F0
s(dp38
g15
S'line'
p39
sS'x'
F-4
sg17
I00
sS'y'
F67
s(dp40
g15
S'line'
p41
sS'x'
F115
sg17
I00
sS'y'
F67
s(dp42
g15
S'line'
p43
sS'x'
F115
sg17
I00
sS'y'
F652
s(dp44
g15
S'line'
p45
sS'x'
F-4
sg17
I00
sS'y'
F652
s(dp46
g15
S'line'
p47
sS'x'
F-4
sg17
I00
sS'y'
F722
s(dp48
g15
S'line'
p49
sS'x'
F342
sg17
I00
sS'y'
F722
s(dp50
g15
S'line'
p51
sS'x'
F342
sg17
I00
sS'y'
F652
s(dp52
g15
S'line'
p53
sS'x'
F230
sg17
I00
sS'y'
F652
s(dp54
g15
S'line'
p55
sS'x'
F230
sg17
I00
sS'y'
F403
s(dp56
g15
S'line'
p57
sS'x'
F538
sg17
I00
sS'y'
F403
s(dp58
g15
S'line'
p59
sS'x'
F538
sg17
I00
sS'y'
F652
s(dp60
g15
S'line'
p61
sS'x'
F425
sg17
I00
sS'y'
F652
s(dp62
g15
S'line'
p63
sS'x'
F425
sg17
I00
sS'y'
F722
s(dp64
g15
S'line'
p65
sS'x'
F772
sg17
I00
sS'y'
F722
s(dp66
g15
S'line'
p67
sS'x'
F772
sg17
I00
sS'y'
F652
s(dp68
g15
S'line'
p69
sS'x'
F653
sg17
I00
sS'y'
F652
s(dp70
g15
S'line'
p71
sS'x'
F653
sg17
I00
sS'y'
F67
stp72
stp73
sS'components'
p74
(tsS'anchors'
p75
((dp76
S'y'
F361
sS'x'
F387
sg6
S'center'
p77
s(dp78
S'y'
F722
sS'x'
F384
sg6
S'top'
p79
stp80
sss."
LayerCount: 2
Fore
SplineSet
390 -13 m 0
 611 -13 671 108 671 267 c 2
 671 665 l 1
 773 665 l 1
 773 735 l 1
 461 735 l 1
 461 665 l 1
 572 665 l 1
 572 248 l 2
 572 122 511 61 401 61 c 0
 282 61 230 128 230 245 c 2
 230 665 l 1
 338 665 l 1
 338 735 l 1
 10 735 l 1
 10 665 l 1
 115 665 l 1
 115 252 l 2
 115 100 191 -13 390 -13 c 0
387 722 m 0
724 10 m 0
EndSplineSet
EndChar

StartChar: V
Encoding: 86 86 28
Width: 801
VWidth: 0
Flags: W
PickledData: "(dp1
S'com.typemytype.robofont.layerData'
p2
(dp3
S'back'
p4
(dp5
S'name'
p6
S'V'
sS'lib'
p7
(dp8
sS'unicodes'
p9
(tsS'width'
p10
I801
sS'contours'
p11
((dp12
S'points'
p13
((dp14
S'segmentType'
p15
S'line'
p16
sS'x'
F244
sS'smooth'
p17
I00
sS'y'
F67
s(dp18
g15
S'line'
p19
sS'x'
F356
sg17
I00
sS'y'
F67
s(dp20
g15
S'line'
p21
sS'x'
F356
sg17
I00
sS'y'
F0
s(dp22
g15
S'line'
p23
sS'x'
F10
sg17
I00
sS'y'
F0
s(dp24
g15
S'line'
p25
sS'x'
F10
sg17
I00
sS'y'
F67
s(dp26
g15
S'line'
p27
sS'x'
F129
sg17
I00
sS'y'
F67
s(dp28
g15
S'line'
p29
sS'x'
F129
sg17
I00
sS'y'
F652
s(dp30
g15
S'line'
p31
sS'x'
F10
sg17
I00
sS'y'
F652
s(dp32
g15
S'line'
p33
sS'x'
F10
sg17
I00
sS'y'
F722
s(dp34
g15
S'line'
p35
sS'x'
F356
sg17
I00
sS'y'
F722
s(dp36
g15
S'line'
p37
sS'x'
F356
sg17
I00
sS'y'
F652
s(dp38
g15
S'line'
p39
sS'x'
F244
sg17
I00
sS'y'
F652
stp40
stp41
sS'components'
p42
(tsS'anchors'
p43
((dp44
S'y'
F722
sS'x'
F182
sg6
S'top'
p45
s(dp46
S'y'
F10
sS'x'
F352
sg6
S'ogonek'
p47
stp48
sss."
LayerCount: 2
Fore
SplineSet
330 52 m 1
 348 4 366 -17 401 -17 c 0
 438 -17 452 6 468 52 c 2
 678 665 l 1
 797 665 l 1
 797 735 l 1
 466 735 l 1
 466 665 l 1
 595 665 l 1
 423 143 l 1
 251 665 l 1
 354 665 l 1
 354 735 l 1
 4 735 l 1
 4 665 l 1
 116 665 l 1
 330 52 l 1
EndSplineSet
EndChar

StartChar: W
Encoding: 87 87 29
Width: 1104
VWidth: 0
Flags: W
PickledData: "(dp1
S'com.typemytype.robofont.layerData'
p2
(dp3
S'back'
p4
(dp5
S'name'
p6
S'W'
sS'lib'
p7
(dp8
sS'unicodes'
p9
(tsS'width'
p10
I1104
sS'contours'
p11
((dp12
S'points'
p13
((dp14
S'segmentType'
p15
S'curve'
p16
sS'x'
F782
sS'smooth'
p17
I01
sS'y'
F-16
s(dp18
S'y'
F-16
sS'x'
F815
sg17
I00
s(dp19
S'y'
F7
sS'x'
F853
sg17
I00
s(dp20
g15
S'curve'
p21
sS'x'
F869
sg17
I01
sS'y'
F52
s(dp22
g15
S'line'
p23
sS'x'
F1071
sg17
I00
sS'y'
F632
s(dp24
g15
S'line'
p25
sS'x'
F1183
sg17
I00
sS'y'
F632
s(dp26
g15
S'line'
p27
sS'x'
F1183
sg17
I00
sS'y'
F722
s(dp28
g15
S'line'
p29
sS'x'
F841
sg17
I00
sS'y'
F722
s(dp30
g15
S'line'
p31
sS'x'
F841
sg17
I00
sS'y'
F632
s(dp32
g15
S'line'
p33
sS'x'
F960
sg17
I00
sS'y'
F632
s(dp34
g15
S'line'
p35
sS'x'
F811
sg17
I00
sS'y'
F160
s(dp36
g15
S'line'
p37
sS'x'
F666
sg17
I00
sS'y'
F632
s(dp38
g15
S'line'
p39
sS'x'
F768
sg17
I00
sS'y'
F632
s(dp40
g15
S'line'
p41
sS'x'
F768
sg17
I00
sS'y'
F722
s(dp42
g15
S'line'
p43
sS'x'
F431
sg17
I00
sS'y'
F722
s(dp44
g15
S'line'
p45
sS'x'
F431
sg17
I00
sS'y'
F632
s(dp46
g15
S'line'
p47
sS'x'
F535
sg17
I00
sS'y'
F632
s(dp48
g15
S'line'
p49
sS'x'
F403
sg17
I00
sS'y'
F160
s(dp50
g15
S'line'
p51
sS'x'
F261
sg17
I00
sS'y'
F632
s(dp52
g15
S'line'
p53
sS'x'
F349
sg17
I00
sS'y'
F632
s(dp54
g15
S'line'
p55
sS'x'
F349
sg17
I00
sS'y'
F722
s(dp56
g15
S'line'
p57
sS'x'
F6
sg17
I00
sS'y'
F722
s(dp58
g15
S'line'
p59
sS'x'
F6
sg17
I00
sS'y'
F632
s(dp60
g15
S'line'
p61
sS'x'
F98
sg17
I00
sS'y'
F632
s(dp62
g15
S'line'
p63
sS'x'
F293
sg17
I00
sS'y'
F52
s(dp64
S'y'
F6
sS'x'
F310
sg17
I00
s(dp65
S'y'
F-16
sS'x'
F342
sg17
I00
s(dp66
g15
S'curve'
p67
sS'x'
F374
sg17
I01
sS'y'
F-16
s(dp68
S'y'
F-16
sS'x'
F407
sg17
I00
s(dp69
S'y'
F7
sS'x'
F448
sg17
I00
s(dp70
g15
S'curve'
p71
sS'x'
F462
sg17
I01
sS'y'
F52
s(dp72
g15
S'line'
p73
sS'x'
F578
sg17
I00
sS'y'
F429
s(dp74
g15
S'line'
p75
sS'x'
F697
sg17
I01
sS'y'
F52
s(dp76
S'y'
F6
sS'x'
F712
sg17
I00
s(dp77
S'y'
F-16
sS'x'
F750
sg17
I00
stp78
stp79
sS'components'
p80
(tsS'anchors'
p81
(tsss."
LayerCount: 2
Fore
SplineSet
772 -17 m 0
 809 -17 823 6 839 52 c 1
 1009 665 l 1
 1098 665 l 1
 1098 735 l 1
 827 735 l 1
 827 665 l 1
 926 665 l 1
 793 150 l 1
 634 665 l 1
 536 665 l 1
 402 150 l 1
 253 665 l 1
 356 665 l 1
 356 735 l 1
 6 735 l 1
 6 665 l 1
 118 665 l 1
 310 52 l 1
 328 4 346 -17 381 -17 c 0
 418 -17 443 5 456 52 c 2
 456 52 573 494 572 494 c 2
 701 52 l 2
 716 3 737 -17 772 -17 c 0
576 722 m 0
576 722 m 0
EndSplineSet
EndChar

StartChar: X
Encoding: 88 88 30
Width: 830
VWidth: 0
Flags: W
PickledData: "(dp1
S'com.typemytype.robofont.layerData'
p2
(dp3
S'back'
p4
(dp5
S'name'
p6
S'X'
sS'lib'
p7
(dp8
sS'unicodes'
p9
(tsS'width'
p10
I830
sS'contours'
p11
((dp12
S'points'
p13
((dp14
S'segmentType'
p15
S'line'
p16
sS'x'
F354
sS'smooth'
p17
I00
sS'y'
F0
s(dp18
g15
S'line'
p19
sS'x'
F354
sg17
I00
sS'y'
F87
s(dp20
g15
S'line'
p21
sS'x'
F222
sg17
I00
sS'y'
F87
s(dp22
g15
S'line'
p23
sS'x'
F388
sg17
I00
sS'y'
F279
s(dp24
g15
S'line'
p25
sS'x'
F538
sg17
I00
sS'y'
F87
s(dp26
g15
S'line'
p27
sS'x'
F427
sg17
I00
sS'y'
F87
s(dp28
g15
S'line'
p29
sS'x'
F427
sg17
I00
sS'y'
F0
s(dp30
g15
S'line'
p31
sS'x'
F843
sg17
I00
sS'y'
F0
s(dp32
g15
S'line'
p33
sS'x'
F843
sg17
I00
sS'y'
F87
s(dp34
g15
S'line'
p35
sS'x'
F724
sg17
I00
sS'y'
F87
s(dp36
g15
S'line'
p37
sS'x'
F485
sg17
I00
sS'y'
F392
s(dp38
g15
S'line'
p39
sS'x'
F692
sg17
I00
sS'y'
F632
s(dp40
g15
S'line'
p41
sS'x'
F804
sg17
I00
sS'y'
F632
s(dp42
g15
S'line'
p43
sS'x'
F804
sg17
I00
sS'y'
F722
s(dp44
g15
S'line'
p45
sS'x'
F448
sg17
I00
sS'y'
F722
s(dp46
g15
S'line'
p47
sS'x'
F448
sg17
I00
sS'y'
F632
s(dp48
g15
S'line'
p49
sS'x'
F567
sg17
I00
sS'y'
F632
s(dp50
g15
S'line'
p51
sS'x'
F426
sg17
I00
sS'y'
F468
s(dp52
g15
S'line'
p53
sS'x'
F298
sg17
I00
sS'y'
F632
s(dp54
g15
S'line'
p55
sS'x'
F386
sg17
I00
sS'y'
F632
s(dp56
g15
S'line'
p57
sS'x'
F386
sg17
I00
sS'y'
F722
s(dp58
g15
S'line'
p59
sS'x'
F10
sg17
I00
sS'y'
F722
s(dp60
g15
S'line'
p61
sS'x'
F10
sg17
I00
sS'y'
F632
s(dp62
g15
S'line'
p63
sS'x'
F112
sg17
I00
sS'y'
F632
s(dp64
g15
S'line'
p65
sS'x'
F328
sg17
I00
sS'y'
F355
s(dp66
g15
S'line'
p67
sS'x'
F97
sg17
I00
sS'y'
F87
s(dp68
g15
S'line'
p69
sS'x'
F-22
sg17
I00
sS'y'
F87
s(dp70
g15
S'line'
p71
sS'x'
F-22
sg17
I00
sS'y'
F0
stp72
stp73
sS'components'
p74
(tsS'anchors'
p75
(tsss."
LayerCount: 2
Fore
SplineSet
221 67 m 1
 324 67 l 1
 324 0 l 1
 8 0 l 1
 8 67 l 1
 106 67 l 1
 590 665 l 1
 469 665 l 1
 469 735 l 1
 815 735 l 1
 815 665 l 1
 703 665 l 1
 221 67 l 1
715 67 m 1
 822 67 l 1
 822 0 l 1
 473 0 l 1
 473 67 l 1
 581 67 l 1
 130 665 l 1
 11 665 l 1
 11 735 l 1
 376 735 l 1
 376 665 l 1
 264 665 l 1
 715 67 l 1
164 722 m 0
334 10 m 0
164 722 m 0
334 10 m 0
EndSplineSet
EndChar

StartChar: Y
Encoding: 89 89 31
Width: 759
VWidth: 0
Flags: W
PickledData: "(dp1
S'com.typemytype.robofont.layerData'
p2
(dp3
S'back'
p4
(dp5
S'name'
p6
S'Y'
sS'lib'
p7
(dp8
sS'unicodes'
p9
(tsS'width'
p10
I759
sS'contours'
p11
((dp12
S'points'
p13
((dp14
S'segmentType'
p15
S'curve'
p16
sS'x'
F148
sS'smooth'
p17
I01
sS'y'
F7
s(dp18
S'y'
F11
sS'x'
F148
sg17
I00
s(dp19
S'y'
F56
sS'x'
F145
sg17
I00
s(dp20
g15
S'curve'
p21
sS'x'
F162
sg17
I01
sS'y'
F56
s(dp22
g15
S'line'
p23
sS'x'
F274
sg17
I00
sS'y'
F56
s(dp24
g15
S'line'
p25
sS'x'
F302
sg17
I00
sS'y'
F91
s(dp26
g15
S'line'
p27
sS'x'
F302
sg17
I00
sS'y'
F286
s(dp28
g15
S'line'
p29
sS'x'
F93
sg17
I01
sS'y'
F607
s(dp30
S'y'
F663
sS'x'
F56
sg17
I00
s(dp31
S'y'
F616
sS'x'
F-48
sg17
I00
s(dp32
g15
S'curve'
p33
sS'x'
F-48
sg17
I01
sS'y'
F688
s(dp34
S'y'
F699
sS'x'
F-48
sg17
I00
s(dp35
S'y'
F728
sS'x'
F-52
sg17
I00
s(dp36
g15
S'curve'
p37
sS'x'
F-33
sg17
I00
sS'y'
F732
s(dp38
S'y'
F732
sS'x'
F-22
sg17
I00
s(dp39
S'y'
F733
sS'x'
F27
sg17
I00
s(dp40
g15
S'curve'
p41
sS'x'
F37
sg17
I01
sS'y'
F733
s(dp42
S'y'
F733
sS'x'
F171
sg17
I00
s(dp43
S'y'
F728
sS'x'
F251
sg17
I00
s(dp44
g15
S'curve'
p45
sS'x'
F413
sg17
I00
sS'y'
F718
s(dp46
g15
S'line'
p47
sS'x'
F413
sg17
I00
sS'y'
F642
s(dp48
g15
S'line'
p49
sS'x'
F302
sg17
I01
sS'y'
F642
s(dp50
S'y'
F642
sS'x'
F292
sg17
I00
s(dp51
S'y'
F622
sS'x'
F287
sg17
I00
s(dp52
g15
S'curve'
p53
sS'x'
F287
sg17
I01
sS'y'
F613
s(dp54
S'y'
F612
sS'x'
F287
sg17
I00
s(dp55
S'y'
F607
sS'x'
F288
sg17
I00
s(dp56
g15
S'curve'
p57
sS'x'
F288
sg17
I00
sS'y'
F607
s(dp58
g15
S'line'
p59
sS'x'
F427
sg17
I01
sS'y'
F384
s(dp60
S'y'
F383
sS'x'
F428
sg17
I00
s(dp61
S'y'
F383
sS'x'
F432
sg17
I00
s(dp62
g15
S'curve'
p63
sS'x'
F434
sg17
I01
sS'y'
F383
s(dp64
S'y'
F383
sS'x'
F465
sg17
I00
s(dp65
S'y'
F549
sS'x'
F581
sg17
I00
s(dp66
g15
S'curve'
p67
sS'x'
F581
sg17
I01
sS'y'
F600
s(dp68
S'y'
F646
sS'x'
F581
sg17
I00
s(dp69
S'y'
F649
sS'x'
F483
sg17
I00
s(dp70
g15
S'curve'
p71
sS'x'
F469
sg17
I00
sS'y'
F649
s(dp72
g15
S'line'
p73
sS'x'
F469
sg17
I00
sS'y'
F718
s(dp74
g15
S'line'
p75
sS'x'
F865
sg17
I00
sS'y'
F718
s(dp76
S'y'
F599
sS'x'
F865
sg17
I00
s(dp77
S'y'
F638
sS'x'
F786
sg17
I00
s(dp78
g15
S'curve'
p79
sS'x'
F706
sg17
I00
sS'y'
F579
s(dp80
S'y'
F535
sS'x'
F674
sg17
I00
s(dp81
S'y'
F330
sS'x'
F528
sg17
I00
s(dp82
g15
S'curve'
p83
sS'x'
F497
sg17
I01
sS'y'
F286
s(dp84
S'y'
F242
sS'x'
F466
sg17
I00
s(dp85
S'y'
F184
sS'x'
F468
sg17
I00
s(dp86
g15
S'curve'
p87
sS'x'
F468
sg17
I01
sS'y'
F133
s(dp88
S'y'
F122
sS'x'
F468
sg17
I00
s(dp89
S'y'
F74
sS'x'
F469
sg17
I00
s(dp90
g15
S'curve'
p91
sS'x'
F469
sg17
I00
sS'y'
F63
s(dp92
S'y'
F39
sS'x'
F497
sg17
I00
s(dp93
S'y'
F36
sS'x'
F579
sg17
I00
s(dp94
g15
S'curve'
p95
sS'x'
F595
sg17
I00
sS'y'
F35
s(dp96
g15
S'line'
p97
sS'x'
F595
sg17
I00
sS'y'
F-34
s(dp98
g15
S'line'
p99
sS'x'
F162
sg17
I01
sS'y'
F-34
s(dp100
S'y'
F-34
sS'x'
F143
sg17
I00
s(dp101
S'y'
F2
sS'x'
F148
sg17
I00
stp102
stp103
sS'components'
p104
(tsS'anchors'
p105
(tsss."
LayerCount: 2
Fore
SplineSet
437 67 m 1
 437 308 l 1
 322 305 l 1
 322 67 l 1
 203 67 l 1
 203 0 l 1
 549 0 l 1
 549 67 l 1
 437 67 l 1
431 278 m 1
 656 665 l 1
 748 665 l 1
 748 735 l 1
 452 735 l 1
 452 665 l 1
 561 665 l 1
 391 362 l 1
 226 665 l 1
 338 665 l 1
 338 735 l 1
 11 735 l 1
 11 665 l 1
 111 665 l 1
 335 267 l 1
 431 278 l 1
409 722 m 0
549 10 m 0
379 722 m 0
549 10 m 0
379 722 m 0
409 722 m 0
EndSplineSet
EndChar

StartChar: Z
Encoding: 90 90 32
Width: 664
VWidth: 0
Flags: W
PickledData: "(dp1
S'com.typemytype.robofont.layerData'
p2
(dp3
S'back'
p4
(dp5
S'name'
p6
S'Z'
sS'lib'
p7
(dp8
sS'unicodes'
p9
(tsS'width'
p10
F664
sS'contours'
p11
(tsS'components'
p12
(tsS'anchors'
p13
(tsss."
LayerCount: 2
Fore
SplineSet
624 0 m 1
 624 288 l 1
 533 288 l 1
 533 67 l 1
 186 67 l 1
 608 652 l 1
 588 735 l 1
 63 735 l 1
 63 462 l 1
 154 462 l 1
 154 668 l 1
 480 668 l 1
 55 81 l 1
 54 81 l 1
 66 0 l 1
 624 0 l 1
EndSplineSet
EndChar

StartChar: a
Encoding: 97 97 33
Width: 619
VWidth: 0
Flags: W
PickledData: "(dp1
S'com.typemytype.robofont.layerData'
p2
(dp3
S'back'
p4
(dp5
S'name'
p6
S'a'
sS'lib'
p7
(dp8
sS'unicodes'
p9
(tsS'width'
p10
I619
sS'contours'
p11
((dp12
S'points'
p13
((dp14
S'y'
F-14
sS'x'
F563
sS'smooth'
p15
I00
s(dp16
S'y'
F18
sS'x'
F623
sg15
I00
s(dp17
S'segmentType'
p18
S'curve'
p19
sS'x'
F623
sg15
I01
sS'y'
F153
s(dp20
g18
S'line'
p21
sS'x'
F623
sg15
I00
sS'y'
F216
s(dp22
g18
S'line'
p23
sS'x'
F570
sg15
I00
sS'y'
F216
s(dp24
g18
S'line'
p25
sS'x'
F570
sg15
I01
sS'y'
F143
s(dp26
S'y'
F91
sS'x'
F570
sg15
I00
s(dp27
S'y'
F56
sS'x'
F555
sg15
I00
s(dp28
g18
S'curve'
p29
sS'x'
F508
sg15
I01
sS'y'
F56
s(dp30
S'y'
F56
sS'x'
F463
sg15
I00
s(dp31
S'y'
F105
sS'x'
F450
sg15
I00
s(dp32
g18
S'curve'
p33
sS'x'
F450
sg15
I01
sS'y'
F138
s(dp34
g18
S'line'
p35
sS'x'
F450
sg15
I01
sS'y'
F363
s(dp36
S'y'
F495
sS'x'
F450
sg15
I00
s(dp37
S'y'
F538
sS'x'
F364
sg15
I00
s(dp38
g18
S'curve'
p39
sS'x'
F262
sg15
I01
sS'y'
F538
s(dp40
S'y'
F538
sS'x'
F158
sg15
I00
s(dp41
S'y'
F480
sS'x'
F60
sg15
I00
s(dp42
g18
S'curve'
p43
sS'x'
F55
sg15
I01
sS'y'
F407
s(dp44
S'y'
F404
sS'x'
F55
sg15
I00
s(dp45
S'y'
F401
sS'x'
F55
sg15
I00
s(dp46
g18
S'curve'
p47
sS'x'
F55
sg15
I01
sS'y'
F399
s(dp48
S'y'
F344
sS'x'
F55
sg15
I00
s(dp49
S'y'
F320
sS'x'
F93
sg15
I00
s(dp50
g18
S'curve'
p51
sS'x'
F127
sg15
I01
sS'y'
F320
s(dp52
S'y'
F320
sS'x'
F163
sg15
I00
s(dp53
S'y'
F347
sS'x'
F195
sg15
I00
s(dp54
g18
S'curve'
p55
sS'x'
F195
sg15
I01
sS'y'
F389
s(dp56
S'y'
F418
sS'x'
F195
sg15
I00
s(dp57
S'y'
F446
sS'x'
F171
sg15
I00
s(dp58
g18
S'curve'
p59
sS'x'
F127
sg15
I00
sS'y'
F446
s(dp60
S'y'
F472
sS'x'
F150
sg15
I00
s(dp61
S'y'
F487
sS'x'
F196
sg15
I00
s(dp62
g18
S'curve'
p63
sS'x'
F241
sg15
I01
sS'y'
F487
s(dp64
S'y'
F487
sS'x'
F305
sg15
I00
s(dp65
S'y'
F453
sS'x'
F345
sg15
I00
s(dp66
g18
S'curve'
p67
sS'x'
F345
sg15
I01
sS'y'
F377
s(dp68
S'y'
F252
sS'x'
F345
sg15
I00
s(dp69
S'y'
F271
sS'x'
F38
sg15
I00
s(dp70
g18
S'curve'
p71
sS'x'
F38
sg15
I01
sS'y'
F107
s(dp72
S'y'
F30
sS'x'
F38
sg15
I00
s(dp73
S'y'
F-14
sS'x'
F90
sg15
I00
s(dp74
g18
S'curve'
p75
sS'x'
F168
sg15
I01
sS'y'
F-14
s(dp76
S'y'
F-13
sS'x'
F246
sg15
I00
s(dp77
S'y'
F41
sS'x'
F320
sg15
I00
s(dp78
g18
S'curve'
p79
sS'x'
F354
sg15
I00
sS'y'
F98
s(dp80
S'y'
F21
sS'x'
F365
sg15
I00
s(dp81
S'y'
F-14
sS'x'
F427
sg15
I00
s(dp82
g18
S'curve'
p83
sS'x'
F489
sg15
I01
sS'y'
F-14
stp84
s(dp85
g13
((dp86
S'y'
F57
sS'x'
F160
sg15
I00
s(dp87
S'y'
F81
sS'x'
F142
sg15
I00
s(dp88
g18
S'curve'
p89
sS'x'
F142
sg15
I01
sS'y'
F112
s(dp90
S'y'
F197
sS'x'
F142
sg15
I00
s(dp91
S'y'
F189
sS'x'
F248
sg15
I00
s(dp92
g18
S'curve'
p93
sS'x'
F345
sg15
I00
sS'y'
F285
s(dp94
g18
S'line'
p95
sS'x'
F345
sg15
I01
sS'y'
F181
s(dp96
S'y'
F126
sS'x'
F345
sg15
I00
s(dp97
S'y'
F57
sS'x'
F265
sg15
I00
s(dp98
g18
S'curve'
p99
sS'x'
F199
sg15
I01
sS'y'
F57
stp100
stp101
sS'components'
p102
(tsS'anchors'
p103
((dp104
S'y'
F10
sS'x'
F570
sg6
S'ogonek'
p105
s(dp106
S'y'
F524
sS'x'
F312
sg6
S'top'
p107
stp108
sss."
LayerCount: 2
Fore
SplineSet
623 153 m 2
 623 216 l 1
 570 216 l 1
 570 143 l 2
 570 91 555 56 508 56 c 0
 463 56 450 105 450 138 c 2
 450 363 l 2
 450 495 364 538 262 538 c 0
 121 538 55 450 55 399 c 0
 55 344 93 320 127 320 c 0
 163 320 195 347 195 389 c 0
 195 418 171 446 127 446 c 1
 150 472 196 487 241 487 c 0
 305 487 345 453 345 377 c 0
 345 252 38 271 38 107 c 0
 38 30 96 -14 174 -14 c 0
 252 -13 325 38 353 109 c 1
 361 25 424 -14 487 -14 c 2
 487 -14 488 -14 489 -14 c 0
 563 -13 623 18 623 153 c 2
142 112 m 0
 142 197 248 189 345 285 c 1
 345 181 l 2
 345 126 265 57 199 57 c 0
 160 57 142 81 142 112 c 0
312 524 m 0
570 10 m 0
EndSplineSet
EndChar

StartChar: acute
Encoding: 180 180 34
Width: 620
VWidth: 0
Flags: W
PickledData: "(dp1
S'com.typemytype.robofont.layerData'
p2
(dp3
S'back'
p4
(dp5
S'name'
p6
S'acute'
p7
sS'lib'
p8
(dp9
sS'unicodes'
p10
(tsS'width'
p11
I620
sS'contours'
p12
((dp13
S'points'
p14
((dp15
S'segmentType'
p16
S'line'
p17
sS'x'
F484
sS'smooth'
p18
I00
sS'y'
F698
s(dp19
S'y'
F648
sS'x'
F435
sg18
I00
s(dp20
S'y'
F576
sS'x'
F212
sg18
I00
s(dp21
g16
S'curve'
p22
sS'x'
F212
sg18
I00
sS'y'
F576
s(dp23
g16
S'line'
p24
sS'x'
F187
sg18
I00
sS'y'
F611
s(dp25
S'y'
F687
sS'x'
F276
sg18
I00
s(dp26
S'y'
F788
sS'x'
F419
sg18
I00
s(dp27
g16
S'curve'
p28
sS'x'
F419
sg18
I00
sS'y'
F788
stp29
stp30
sS'components'
p31
(tsS'anchors'
p32
((dp33
S'y'
F524
sS'x'
F335.5
sg6
S'_top'
p34
stp35
sss."
LayerCount: 2
Fore
SplineSet
474 712 m 1
 425 662 207 583 207 583 c 1
 193 602 l 1
 282 678 425 780 425 780 c 1
 474 712 l 1
335.5 524 m 0
EndSplineSet
EndChar

StartChar: ae
Encoding: 230 230 35
Width: 844
VWidth: 0
Flags: W
PickledData: "(dp1
S'com.typemytype.robofont.layerData'
p2
(dp3
S'back'
p4
(dp5
S'name'
p6
S'ae'
p7
sS'lib'
p8
(dp9
sS'unicodes'
p10
(tsS'width'
p11
F844
sS'contours'
p12
((dp13
S'points'
p14
((dp15
S'segmentType'
p16
S'line'
p17
sS'x'
F411
sS'smooth'
p18
I00
sS'y'
F146
s(dp19
S'y'
F14
sS'x'
F345
sg18
I00
s(dp20
S'y'
F-13
sS'x'
F236
sg18
I00
s(dp21
g16
S'curve'
p22
sS'x'
F170
sg18
I01
sS'y'
F-14
s(dp23
S'y'
F-14
sS'x'
F92
sg18
I00
s(dp24
S'y'
F30
sS'x'
F40
sg18
I00
s(dp25
g16
S'curve'
p26
sS'x'
F40
sg18
I01
sS'y'
F107
s(dp27
S'y'
F271
sS'x'
F40
sg18
I00
s(dp28
S'y'
F252
sS'x'
F347
sg18
I00
s(dp29
g16
S'curve'
p30
sS'x'
F347
sg18
I01
sS'y'
F377
s(dp31
S'y'
F453
sS'x'
F347
sg18
I00
s(dp32
S'y'
F487
sS'x'
F307
sg18
I00
s(dp33
g16
S'curve'
p34
sS'x'
F243
sg18
I01
sS'y'
F487
s(dp35
S'y'
F487
sS'x'
F198
sg18
I00
s(dp36
S'y'
F472
sS'x'
F155
sg18
I00
s(dp37
g16
S'curve'
p38
sS'x'
F132
sg18
I00
sS'y'
F446
s(dp39
S'y'
F446
sS'x'
F176
sg18
I00
s(dp40
S'y'
F418
sS'x'
F202
sg18
I00
s(dp41
g16
S'curve'
p42
sS'x'
F202
sg18
I01
sS'y'
F389
s(dp43
S'y'
F347
sS'x'
F202
sg18
I00
s(dp44
S'y'
F320
sS'x'
F165
sg18
I00
s(dp45
g16
S'curve'
p46
sS'x'
F129
sg18
I01
sS'y'
F320
s(dp47
S'y'
F320
sS'x'
F93
sg18
I00
s(dp48
S'y'
F346
sS'x'
F57
sg18
I00
s(dp49
g16
S'curve'
p50
sS'x'
F57
sg18
I01
sS'y'
F407
s(dp51
S'y'
F480
sS'x'
F57
sg18
I00
s(dp52
S'y'
F538
sS'x'
F160
sg18
I00
s(dp53
g16
S'curve'
p54
sS'x'
F264
sg18
I01
sS'y'
F538
s(dp55
S'y'
F538
sS'x'
F366
sg18
I00
s(dp56
S'y'
F495
sS'x'
F452
sg18
I00
s(dp57
g16
S'curve'
p58
sS'x'
F452
sg18
I01
sS'y'
F363
s(dp59
g16
S'line'
p60
sS'x'
F452
sg18
I01
sS'y'
F138
s(dp61
S'y'
F129
sS'x'
F452
sg18
I00
s(dp62
S'y'
F119
sS'x'
F453
sg18
I00
s(dp63
g16
S'curve'
p64
sS'x'
F455
sg18
I00
sS'y'
F109
stp65
s(dp66
g14
((dp67
S'y'
F396
sS'x'
F347
sg18
I00
s(dp68
S'y'
F536
sS'x'
F435
sg18
I00
s(dp69
g16
S'curve'
p70
sS'x'
F596
sg18
I01
sS'y'
F539
s(dp71
S'y'
F542
sS'x'
F736
sg18
I00
s(dp72
S'y'
F435
sS'x'
F801
sg18
I00
s(dp73
g16
S'curve'
p74
sS'x'
F802
sg18
I01
sS'y'
F355
s(dp75
S'y'
F303
sS'x'
F803
sg18
I00
s(dp76
S'y'
F269
sS'x'
F762
sg18
I00
s(dp77
g16
S'curve'
p78
sS'x'
F575
sg18
I00
sS'y'
F269
s(dp79
g16
S'line'
p80
sS'x'
F459
sg18
I00
sS'y'
F269
s(dp81
g16
S'line'
p82
sS'x'
F459
sg18
I01
sS'y'
F265
s(dp83
S'y'
F157
sS'x'
F459
sg18
I00
s(dp84
S'y'
F60
sS'x'
F499
sg18
I00
s(dp85
g16
S'curve'
p86
sS'x'
F607
sg18
I01
sS'y'
F60
s(dp87
S'y'
F60
sS'x'
F670
sg18
I00
s(dp88
S'y'
F100
sS'x'
F738
sg18
I00
s(dp89
g16
S'curve'
p90
sS'x'
F760
sg18
I00
sS'y'
F181
s(dp91
g16
S'line'
p92
sS'x'
F817
sg18
I00
sS'y'
F163
s(dp93
S'y'
F57
sS'x'
F792
sg18
I00
s(dp94
S'y'
F-14
sS'x'
F712
sg18
I00
s(dp95
g16
S'curve'
p96
sS'x'
F594
sg18
I01
sS'y'
F-14
s(dp97
S'y'
F-14
sS'x'
F422
sg18
I00
s(dp98
S'y'
F124
sS'x'
F347
sg18
I00
s(dp99
g16
S'curve'
p100
sS'x'
F347
sg18
I01
sS'y'
F255
stp101
s(dp102
g14
((dp103
g16
S'curve'
p104
sS'x'
F462
sg18
I00
sS'y'
F322
s(dp105
g16
S'line'
p106
sS'x'
F568
sg18
I00
sS'y'
F322
s(dp107
S'y'
F322
sS'x'
F678
sg18
I00
s(dp108
S'y'
F344
sS'x'
F711
sg18
I00
s(dp109
g16
S'curve'
p110
sS'x'
F711
sg18
I01
sS'y'
F363
s(dp111
S'y'
F434
sS'x'
F711
sg18
I00
s(dp112
S'y'
F481
sS'x'
F657
sg18
I00
s(dp113
g16
S'curve'
p114
sS'x'
F599
sg18
I01
sS'y'
F481
s(dp115
S'y'
F481
sS'x'
F528
sg18
I00
s(dp116
S'y'
F418
sS'x'
F470
sg18
I00
stp117
s(dp118
g14
((dp119
S'y'
F57
sS'x'
F162
sg18
I00
s(dp120
g16
S'curve'
p121
sS'x'
F201
sg18
I01
sS'y'
F57
s(dp122
S'y'
F57
sS'x'
F267
sg18
I00
s(dp123
S'y'
F126
sS'x'
F347
sg18
I00
s(dp124
g16
S'curve'
p125
sS'x'
F347
sg18
I01
sS'y'
F181
s(dp126
g16
S'line'
p127
sS'x'
F347
sg18
I00
sS'y'
F285
s(dp128
S'y'
F189
sS'x'
F250
sg18
I00
s(dp129
S'y'
F197
sS'x'
F144
sg18
I00
s(dp130
g16
S'curve'
p131
sS'x'
F144
sg18
I01
sS'y'
F112
s(dp132
S'y'
F81
sS'x'
F144
sg18
I00
stp133
stp134
sS'components'
p135
(tsS'anchors'
p136
((dp137
S'y'
F10
sS'x'
F572
sg6
S'ogonek'
p138
s(dp139
S'y'
F10
sS'x'
F497
sg6
S'ogonek'
p140
s(dp141
S'y'
F0
sS'x'
F272
sg6
S'bottom'
p142
s(dp143
S'y'
F524
sS'x'
F272
sg6
S'top'
p144
s(dp145
S'y'
F524
sS'x'
F314
sg6
S'top'
p146
stp147
sss."
LayerCount: 2
Fore
SplineSet
817 163 m 1
 760 181 l 1
 738 100 674 60 611 60 c 0
 503 60 470 213 470 267 c 1
 793 314 l 1
 793 394 746 539 608 539 c 0
 605 539 603 539 600 539 c 0
 529 536 476 511 435 446 c 1
 400 520 321 538 252 538 c 0
 148 538 57 480 57 407 c 0
 57 346 93 320 129 320 c 0
 165 320 202 347 202 389 c 0
 202 418 176 446 132 446 c 1
 155 472 198 487 243 487 c 0
 307 487 358 453 358 377 c 0
 358 304 l 1
 240 274 40 247 40 107 c 0
 40 30 102 -14 180 -14 c 0
 287 -14 366 51 404 130 c 1
 425 64 505 -17 608 -14 c 0
 716 -11 792 57 817 163 c 1
470 318 m 1
 478 414 532 479 603 481 c 0
 604 481 604 481 605 481 c 0
 665 481 703 420 703 356 c 1
 470 318 l 1
193 57 m 0
 158 57 138 82 134 111 c 0
 126 174 199 211 358 248 c 1
 358 248 360 202 360 190 c 1
 351 150 293 57 193 57 c 0
272 524 m 0
272 0 m 0
497 10 m 0
314 524 m 0
EndSplineSet
EndChar

StartChar: ampersand
Encoding: 38 38 37
Width: 884
VWidth: 0
Flags: W
PickledData: "(dp1
S'com.typemytype.robofont.layerData'
p2
(dp3
S'back'
p4
(dp5
S'name'
p6
S'ampersand'
p7
sS'lib'
p8
(dp9
sS'unicodes'
p10
(tsS'width'
p11
I884
sS'contours'
p12
((dp13
S'points'
p14
((dp15
S'segmentType'
p16
S'curve'
p17
sS'x'
F56
sS'smooth'
p18
I01
sS'y'
F196
s(dp19
S'y'
F339
sS'x'
F56
sg18
I00
s(dp20
S'y'
F397
sS'x'
F144
sg18
I00
s(dp21
g16
S'curve'
p22
sS'x'
F237
sg18
I00
sS'y'
F451
s(dp23
S'y'
F608
sS'x'
F180
sg18
I00
s(dp24
S'y'
F737
sS'x'
F238
sg18
I00
s(dp25
g16
S'curve'
p26
sS'x'
F406
sg18
I01
sS'y'
F737
s(dp27
S'y'
F737
sS'x'
F500
sg18
I00
s(dp28
S'y'
F691
sS'x'
F551
sg18
I00
s(dp29
g16
S'curve'
p30
sS'x'
F551
sg18
I01
sS'y'
F594
s(dp31
S'y'
F511
sS'x'
F551
sg18
I00
s(dp32
S'y'
F463
sS'x'
F474
sg18
I00
s(dp33
g16
S'curve'
p34
sS'x'
F387
sg18
I00
sS'y'
F432
s(dp35
S'y'
F432
sS'x'
F387
sg18
I00
s(dp36
S'y'
F195
sS'x'
F504
sg18
I00
s(dp37
g16
S'curve'
p38
sS'x'
F504
sg18
I00
sS'y'
F195
s(dp39
S'y'
F195
sS'x'
F504
sg18
I00
s(dp40
S'y'
F421
sS'x'
F654
sg18
I00
s(dp41
g16
S'curve'
p42
sS'x'
F654
sg18
I00
sS'y'
F421
s(dp43
S'y'
F421
sS'x'
F654
sg18
I00
s(dp44
S'y'
F421
sS'x'
F556
sg18
I00
s(dp45
g16
S'curve'
p46
sS'x'
F556
sg18
I00
sS'y'
F421
s(dp47
S'y'
F468
sS'x'
F556
sg18
I00
s(dp48
S'y'
F468
sS'x'
F556
sg18
I00
s(dp49
g16
S'curve'
p50
sS'x'
F556
sg18
I00
sS'y'
F468
s(dp51
g16
S'line'
p52
sS'x'
F837
sg18
I00
sS'y'
F468
s(dp53
S'y'
F468
sS'x'
F837
sg18
I00
s(dp54
S'y'
F421
sS'x'
F837
sg18
I00
s(dp55
g16
S'curve'
p56
sS'x'
F837
sg18
I01
sS'y'
F421
s(dp57
S'y'
F421
sS'x'
F837
sg18
I00
s(dp58
S'y'
F421
sS'x'
F736
sg18
I00
s(dp59
g16
S'curve'
p60
sS'x'
F736
sg18
I01
sS'y'
F421
s(dp61
S'y'
F421
sS'x'
F736
sg18
I00
s(dp62
S'y'
F128
sS'x'
F543
sg18
I00
s(dp63
g16
S'curve'
p64
sS'x'
F543
sg18
I00
sS'y'
F128
s(dp65
S'y'
F47
sS'x'
F584
sg18
I00
s(dp66
S'y'
F55
sS'x'
F630
sg18
I00
s(dp67
g16
S'curve'
p68
sS'x'
F667
sg18
I01
sS'y'
F55
s(dp69
S'y'
F55
sS'x'
F717
sg18
I00
s(dp70
S'y'
F84
sS'x'
F744
sg18
I00
s(dp71
g16
S'curve'
p72
sS'x'
F744
sg18
I00
sS'y'
F183
s(dp73
S'y'
F183
sS'x'
F744
sg18
I00
s(dp74
S'y'
F241
sS'x'
F744
sg18
I00
s(dp75
g16
S'curve'
p76
sS'x'
F744
sg18
I01
sS'y'
F241
s(dp77
S'y'
F241
sS'x'
F744
sg18
I00
s(dp78
S'y'
F241
sS'x'
F744
sg18
I00
s(dp79
g16
S'curve'
p80
sS'x'
F803
sg18
I01
sS'y'
F241
s(dp81
S'y'
F241
sS'x'
F803
sg18
I00
s(dp82
S'y'
F212
sS'x'
F803
sg18
I00
s(dp83
g16
S'curve'
p84
sS'x'
F803
sg18
I00
sS'y'
F212
s(dp85
S'y'
F67
sS'x'
F803
sg18
I00
s(dp86
S'y'
F-2
sS'x'
F783
sg18
I00
s(dp87
g16
S'curve'
p88
sS'x'
F648
sg18
I01
sS'y'
F-13
s(dp89
S'y'
F-18
sS'x'
F586
sg18
I00
s(dp90
S'y'
F3
sS'x'
F518
sg18
I00
s(dp91
g16
S'curve'
p92
sS'x'
F467
sg18
I00
sS'y'
F54
s(dp93
S'y'
F23
sS'x'
F411
sg18
I00
s(dp94
S'y'
F-12
sS'x'
F332
sg18
I00
s(dp95
g16
S'curve'
p96
sS'x'
F260
sg18
I01
sS'y'
F-12
s(dp97
S'y'
F-12
sS'x'
F140
sg18
I00
s(dp98
S'y'
F77
sS'x'
F56
sg18
I00
stp99
s(dp100
g14
((dp101
g16
S'curve'
p102
sS'x'
F175
sg18
I01
sS'y'
F244
s(dp103
S'y'
F130
sS'x'
F157
sg18
I00
s(dp104
S'y'
F73
sS'x'
F221
sg18
I00
s(dp105
g16
S'curve'
p106
sS'x'
F310
sg18
I01
sS'y'
F73
s(dp107
S'y'
F73
sS'x'
F325
sg18
I00
s(dp108
S'y'
F99
sS'x'
F427
sg18
I00
s(dp109
g16
S'curve'
p110
sS'x'
F409
sg18
I01
sS'y'
F130
s(dp111
g16
S'line'
p112
sS'x'
F272
sg18
I00
sS'y'
F377
s(dp113
S'y'
F377
sS'x'
F272
sg18
I00
s(dp114
S'y'
F297
sS'x'
F183
sg18
I00
stp115
s(dp116
g14
((dp117
g16
S'curve'
p118
sS'x'
F338
sg18
I01
sS'y'
F595
s(dp119
S'y'
F557
sS'x'
F338
sg18
I00
s(dp120
S'y'
F509
sS'x'
F342
sg18
I00
s(dp121
g16
S'curve'
p122
sS'x'
F388
sg18
I01
sS'y'
F509
s(dp123
S'y'
F509
sS'x'
F440
sg18
I00
s(dp124
S'y'
F546
sS'x'
F467
sg18
I00
s(dp125
g16
S'curve'
p126
sS'x'
F467
sg18
I01
sS'y'
F595
s(dp127
S'y'
F637
sS'x'
F467
sg18
I00
s(dp128
S'y'
F666
sS'x'
F454
sg18
I00
s(dp129
g16
S'curve'
p130
sS'x'
F410
sg18
I01
sS'y'
F666
s(dp131
S'y'
F666
sS'x'
F360
sg18
I00
s(dp132
S'y'
F645
sS'x'
F338
sg18
I00
stp133
stp134
sS'components'
p135
(tsS'anchors'
p136
(tsss."
LayerCount: 2
Fore
SplineSet
656 -14 m 0
 777 -14 806 69 806 212 c 2
 806 253 l 1
 742 253 l 1
 742 183 l 2
 742 80 704 71 666 67 c 0
 665 67 663 67 662 67 c 0
 630 67 575 101 540 163 c 1
 756 421 l 1
 837 421 l 1
 837 468 l 1
 556 468 l 1
 556 421 l 1
 654 421 l 1
 495 227 l 1
 389 382 l 1
 476 441 555 511 560 594 c 0
 560 597 560 601 560 604 c 0
 560 683 492 737 402 737 c 0
 400 737 397 737 395 737 c 0
 292 734 211 668 211 570 c 0
 211 536 234 470 268 414 c 1
 171 352 56 309 56 185 c 0
 56 72 130 -12 264 -12 c 0
 267 -12 270 -12 273 -12 c 0
 369 -9 420 50 474 97 c 1
 531 19 599 -14 656 -14 c 0
410 681 m 0
 450 681 475 647 476 600 c 0
 476 599 476 598 476 597 c 0
 476 531 407 495 352 452 c 1
 333 489 308 541 308 580 c 0
 308 649 356 681 410 681 c 0
276 70 m 0
 206 70 168 117 168 167 c 0
 168 236 182 254 310 337 c 1
 427 163 l 1
 369 108 321 70 276 70 c 0
EndSplineSet
EndChar

StartChar: asciicircum
Encoding: 94 94 40
Width: 450
VWidth: 0
Flags: W
PickledData: "(dp1
S'com.typemytype.robofont.layerData'
p2
(dp3
S'back'
p4
(dp5
S'name'
p6
S'asciicircum'
p7
sS'lib'
p8
(dp9
sS'unicodes'
p10
(tsS'width'
p11
I450
sS'contours'
p12
(tsS'components'
p13
(tsS'anchors'
p14
(tsss."
LayerCount: 2
Fore
SplineSet
199 545 m 1
 26 154 l 1
 107 154 l 1
 243 476 l 1
 371 154 l 1
 454 154 l 1
 295 545 l 1
 199 545 l 1
EndSplineSet
EndChar

StartChar: asterisk
Encoding: 42 42 41
Width: 789
VWidth: 0
Flags: W
PickledData: "(dp1
S'com.typemytype.robofont.layerData'
p2
(dp3
S'back'
p4
(dp5
S'name'
p6
S'asterisk'
p7
sS'lib'
p8
(dp9
sS'unicodes'
p10
(tsS'width'
p11
I789
sS'contours'
p12
(tsS'components'
p13
(tsS'anchors'
p14
(tsss."
LayerCount: 2
Fore
SplineSet
539 152 m 1
 623 227 l 1
 436 421 l 1
 689 500 l 1
 649 595 l 1
 416.028 462.018 l 1
 448 722 l 1
 341 722 l 1
 372.972 462.018 l 1
 140 595 l 1
 100 500 l 1
 353 421 l 1
 166 227 l 1
 250 152 l 1
 394.5 388.684 l 1
 539 152 l 1
EndSplineSet
EndChar

StartChar: at
Encoding: 64 64 42
Width: 802
VWidth: 0
Flags: W
LayerCount: 2
Fore
SplineSet
272 308 m 0
 272 403.395 344.039 535 419 535 c 0
 454 535 504 469 504 469 c 1
 503 462 481 334 481 333 c 0
 469.835 285.131 405.887 206 346 206 c 0
 316.789 206 272 232.229 272 308 c 0
718.379 389.054 m 0
 718.379 247.37 639.185 184 602 184 c 0
 571 184 561 207 561 243 c 0
 561 265.13 614.637 549.863 618 568 c 1
 540 568 l 1
 536 556 523 519 523 519 c 1
 523 519 452 592 425 592 c 0
 295.809 592 186 429.308 186 297 c 0
 186 188 255 148 314 148 c 0
 414 148 450 196 481 267 c 1
 486 180 521 139 590 139 c 0
 717.757 139 786.873 256.872 786.873 388.04 c 0
 786.873 553.502 676.258 740 434 740 c 0
 214.734 740 18 561.2 18 335 c 0
 18 140.331 154.525 -15 399 -15 c 0
 480.255 -15 590.965 11.4865 658 55 c 1
 658 58.6364 636 85.303 628 95 c 1
 571 60.1667 475 40 408 40 c 0
 187.779 40 89.5322 175.425 89.5322 322.071 c 0
 89.5322 495.214 217.889 684 438 684 c 0
 601.247 684 718.379 551.544 718.379 389.054 c 0
EndSplineSet
EndChar

StartChar: b
Encoding: 98 98 43
Width: 579
VWidth: 0
Flags: W
PickledData: "(dp1
S'com.typemytype.robofont.layerData'
p2
(dp3
S'back'
p4
(dp5
S'name'
p6
S'b'
sS'lib'
p7
(dp8
sS'unicodes'
p9
(tsS'width'
p10
I579
sS'contours'
p11
(tsS'components'
p12
(tsS'anchors'
p13
(tsss."
LayerCount: 2
Fore
SplineSet
321 -13 m 0
 451 -13 541 106 541 262 c 0
 541 421.914 453.723 538 316 538 c 1
 258 534 204 509 171 460 c 1
 171 735 l 1
 -35 735 l 1
 -35 675 l 1
 66 675 l 1
 66 0 l 1
 111 0 l 1
 149 97 l 1
 183 17 256 -13 321 -13 c 0
301 483 m 0
 395 483 429 363 429 256 c 0
 429 152 385 46 301 46 c 0
 220 46 171 153 171 285 c 0
 171 366 210 483 301 483 c 0
EndSplineSet
EndChar

StartChar: backslash
Encoding: 92 92 44
Width: 582
VWidth: 0
Flags: W
PickledData: "(dp1
S'com.typemytype.robofont.layerData'
p2
(dp3
S'back'
p4
(dp5
S'name'
p6
S'backslash'
p7
sS'lib'
p8
(dp9
sS'unicodes'
p10
(tsS'width'
p11
I582
sS'contours'
p12
(tsS'components'
p13
(tsS'anchors'
p14
(tsss."
LayerCount: 2
Fore
SplineSet
433 780 m 1
 491 762 l 1
 211 -83 l 1
 153 -65 l 1
 433 780 l 1
53 453 m 0
EndSplineSet
EndChar

StartChar: bar
Encoding: 124 124 45
Width: 372
VWidth: 0
Flags: W
PickledData: "(dp1
S'com.typemytype.robofont.layerData'
p2
(dp3
S'back'
p4
(dp5
S'name'
p6
S'bar'
p7
sS'lib'
p8
(dp9
sS'unicodes'
p10
(tsS'width'
p11
I372
sS'contours'
p12
(tsS'components'
p13
(tsS'anchors'
p14
(tsss."
LayerCount: 2
Fore
SplineSet
230 784 m 1
 142 784 l 1
 142 -120 l 1
 230 -120 l 1
 230 784 l 1
EndSplineSet
EndChar

StartChar: braceleft
Encoding: 123 123 46
Width: 433
VWidth: 0
Flags: W
PickledData: "(dp1
S'com.typemytype.robofont.layerData'
p2
(dp3
S'back'
p4
(dp5
S'name'
p6
S'braceleft'
p7
sS'lib'
p8
(dp9
sS'unicodes'
p10
(tsS'width'
p11
I433
sS'contours'
p12
(tsS'components'
p13
(tsS'anchors'
p14
(tsss."
LayerCount: 2
Fore
SplineSet
213.662 305 m 1
 278.838 320.323 285 364.968 285 495 c 0
 285 670 290 731 418 731 c 1
 418 773 l 1
 209 773 175 691 175 495 c 0
 175 354 186 338 118 338 c 2
 62 338 l 1
 62 272 l 1
 118 272 l 2
 186 272 175 256 175 115 c 0
 175 -81 209 -163 418 -163 c 1
 418 -121 l 1
 290 -121 285 -60 285 115 c 0
 285 245.032 278.838 289.677 213.662 305 c 1
EndSplineSet
EndChar

StartChar: braceright
Encoding: 125 125 47
Width: 433
VWidth: 0
Flags: W
PickledData: "(dp1
S'com.typemytype.robofont.layerData'
p2
(dp3
S'back'
p4
(dp5
S'name'
p6
S'braceright'
p7
sS'lib'
p8
(dp9
sS'unicodes'
p10
(tsS'width'
p11
I433
sS'contours'
p12
(tsS'components'
p13
(tsS'anchors'
p14
(tsss."
LayerCount: 2
Fore
SplineSet
241 305 m 1
 176 290 148 245 148 115 c 0
 148 -60 143 -121 15 -121 c 1
 15 -163 l 1
 224 -163 258 -81 258 115 c 0
 258 256 260 276 328 276 c 2
 371 276 l 1
 371 334 l 1
 328 334 l 2
 260 334 258 354 258 495 c 0
 258 691 224 773 15 773 c 1
 15 731 l 1
 143 731 148 670 148 495 c 0
 148 365 176 320 241 305 c 1
EndSplineSet
EndChar

StartChar: bracketleft
Encoding: 91 91 48
Width: 695
VWidth: 0
Flags: W
PickledData: "(dp1
S'com.typemytype.robofont.layerData'
p2
(dp3
S'back'
p4
(dp5
S'name'
p6
S'bracketleft'
p7
sS'lib'
p8
(dp9
sS'unicodes'
p10
(tsS'width'
p11
I695
sS'contours'
p12
(tsS'components'
p13
(tsS'anchors'
p14
(tsss."
LayerCount: 2
Fore
SplineSet
524 -120 m 2
 524 -53 l 1
 275 -53 l 1
 275 715 l 1
 524 715 l 1
 524 782 l 2
 524 783 160 782 160 782 c 1
 160 -120 l 1
 160 -120 524 -121 524 -120 c 2
EndSplineSet
EndChar

StartChar: bracketright
Encoding: 93 93 49
Width: 695
VWidth: 0
Flags: W
PickledData: "(dp1
S'com.typemytype.robofont.layerData'
p2
(dp3
S'back'
p4
(dp5
S'name'
p6
S'bracketright'
p7
sS'lib'
p8
(dp9
sS'unicodes'
p10
(tsS'width'
p11
I695
sS'contours'
p12
(tsS'components'
p13
(tsS'anchors'
p14
(tsss."
LayerCount: 2
Fore
SplineSet
160 782 m 2
 160 715 l 1
 409 715 l 1
 409 -53 l 1
 160 -53 l 1
 160 -120 l 2
 160 -121 524 -120 524 -120 c 1
 524 782 l 1
 524 782 160 783 160 782 c 2
EndSplineSet
EndChar

StartChar: breve
Encoding: 728 728 50
Width: 581
VWidth: 0
Flags: W
PickledData: "(dp1
S'com.typemytype.robofont.layerData'
p2
(dp3
S'back'
p4
(dp5
S'name'
p6
S'breve'
p7
sS'lib'
p8
(dp9
sS'unicodes'
p10
(tsS'width'
p11
I581
sS'contours'
p12
(tsS'components'
p13
(tsS'anchors'
p14
(tsss."
LayerCount: 2
Fore
SplineSet
400 705 m 1
 398 658 362 587 283 587 c 0
 203 587 167 657 165 707 c 1
 228 707 l 1
 229 668 255 645 282 645 c 0
 308 645 335 668 337 705 c 1
 400 705 l 1
EndSplineSet
EndChar

StartChar: brokenbar
Encoding: 166 166 51
Width: 372
VWidth: 0
Flags: W
PickledData: "(dp1
S'com.typemytype.robofont.layerData'
p2
(dp3
S'back'
p4
(dp5
S'name'
p6
S'brokenbar'
p7
sS'lib'
p8
(dp9
sS'unicodes'
p10
(tsS'width'
p11
I372
sS'contours'
p12
((dp13
S'points'
p14
((dp15
S'segmentType'
p16
S'line'
p17
sS'x'
F230
sS'smooth'
p18
I00
sS'y'
F784
s(dp19
g16
S'line'
p20
sS'x'
F142
sg18
I00
sS'y'
F784
s(dp21
g16
S'line'
p22
sS'x'
F142
sg18
I00
sS'y'
F-120
s(dp23
g16
S'line'
p24
sS'x'
F230
sg18
I00
sS'y'
F-120
stp25
stp26
sS'components'
p27
(tsS'anchors'
p28
(tsss."
LayerCount: 2
Fore
SplineSet
230 219 m 1
 142 219 l 1
 142 -120 l 1
 230 -120 l 1
 230 219 l 1
230 784 m 1
 142 784 l 1
 142 445 l 1
 230 445 l 1
 230 784 l 1
EndSplineSet
EndChar

StartChar: c
Encoding: 99 99 53
Width: 546
VWidth: 0
Flags: W
PickledData: "(dp1
S'com.typemytype.robofont.layerData'
p2
(dp3
S'back'
p4
(dp5
S'name'
p6
S'c'
sS'lib'
p7
(dp8
sS'unicodes'
p9
(tsS'width'
p10
I546
sS'contours'
p11
(tsS'components'
p12
(tsS'anchors'
p13
(tsss."
LayerCount: 2
Fore
SplineSet
36 252 m 0
 36 401 126 539 301 539 c 0
 393 539 503 485 508 367 c 1
 508 333.538 483.166 288 431 288 c 0
 390 288 355 315 356 359 c 0
 357 403 395 424 431 424 c 1
 411 456 371 483 318 483 c 0
 200.352 483 147 372 147 268 c 0
 147 143 208 66 311 66 c 0
 395 66 451.856 142.544 464 181 c 1
 519 163 l 1
 495 59 414 -14 289 -14 c 0
 149 -14 36 89 36 252 c 0
277 524 m 0
277 0 m 0
EndSplineSet
EndChar

StartChar: caron
Encoding: 711 711 54
Width: 620
VWidth: 0
Flags: W
PickledData: "(dp1
S'name'
p2
S'circumflex'
p3
sS'com.typemytype.robofont.layerData'
p4
(dp5
S'back'
p6
(dp7
g2
S'caron'
p8
sS'lib'
p9
(dp10
sS'unicodes'
p11
(tsS'width'
p12
I620
sS'contours'
p13
(tsS'components'
p14
(tsS'anchors'
p15
(tsssg11
(tsg12
I620
sg13
(tsg14
(tsg15
(ts."
LayerCount: 2
Fore
SplineSet
376 651 m 1
 414 685 487 782 487 782 c 1
 535 737 l 1
 376 566 l 1
 216 740 l 1
 264 784 l 1
 264 784 338 685 376 651 c 1
EndSplineSet
EndChar

StartChar: cedilla
Encoding: 184 184 56
Width: 165
VWidth: 0
Flags: W
LayerCount: 2
Fore
SplineSet
150 -135 m 2
 150 -198 18 -217 18 -217 c 1
 4 -182 l 1
 36 -176 75 -164 75 -150 c 0
 75 -129 29 -105.737 29 -82 c 0
 29 -47 72 0 131 0 c 2
 150 0 l 1
 150 -135 l 2
77 0 m 0
EndSplineSet
EndChar

StartChar: cent
Encoding: 162 162 57
Width: 560
VWidth: 0
Flags: W
PickledData: "(dp1
S'com.typemytype.robofont.layerData'
p2
(dp3
S'back'
p4
(dp5
S'name'
p6
S'cent'
p7
sS'lib'
p8
(dp9
sS'unicodes'
p10
(tsS'width'
p11
I560
sS'contours'
p12
(tsS'components'
p13
(tsS'anchors'
p14
(tsss."
LayerCount: 2
Fore
SplineSet
273 630 m 1
 316 630 l 1
 316 -104 l 1
 273 -104 l 1
 273 630 l 1
EndSplineSet
Refer: 53 99 N 1 0 0 1 0 0 2
EndChar

StartChar: ch
Encoding: 65537 -1 58
Width: 1163
VWidth: 0
Flags: W
PickledData: "(dp1
S'com.typemytype.robofont.layerData'
p2
(dp3
S'back'
p4
(dp5
S'name'
p6
S'ch'
p7
sS'lib'
p8
(dp9
sS'unicodes'
p10
(tsS'width'
p11
I1163
sS'contours'
p12
((dp13
S'points'
p14
((dp15
S'segmentType'
p16
S'line'
p17
sS'x'
F813
sS'smooth'
p18
I00
sS'y'
F57
s(dp19
g16
S'line'
p20
sS'x'
F813
sg18
I00
sS'y'
F0
s(dp21
g16
S'line'
p22
sS'x'
F523
sg18
I00
sS'y'
F0
s(dp23
g16
S'line'
p24
sS'x'
F523
sg18
I00
sS'y'
F57
s(dp25
g16
S'line'
p26
sS'x'
F613
sg18
I00
sS'y'
F57
s(dp27
g16
S'line'
p28
sS'x'
F613
sg18
I00
sS'y'
F690
s(dp29
S'y'
F690
sS'x'
F437
sg18
I00
s(dp30
S'y'
F659
sS'x'
F398
sg18
I00
s(dp31
g16
S'curve'
p32
sS'x'
F398
sg18
I01
sS'y'
F607
s(dp33
S'y'
F576
sS'x'
F398
sg18
I00
s(dp34
S'y'
F517
sS'x'
F428
sg18
I00
s(dp35
g16
S'curve'
p36
sS'x'
F447
sg18
I00
sS'y'
F469
s(dp37
S'y'
F455
sS'x'
F456
sg18
I00
s(dp38
S'y'
F436
sS'x'
F462
sg18
I00
s(dp39
g16
S'curve'
p40
sS'x'
F447
sg18
I00
sS'y'
F469
s(dp41
S'y'
F501
sS'x'
F425
sg18
I00
s(dp42
S'y'
F510
sS'x'
F389
sg18
I00
s(dp43
g16
S'curve'
p44
sS'x'
F382
sg18
I00
sS'y'
F507
s(dp45
S'y'
F505
sS'x'
F382
sg18
I00
s(dp46
S'y'
F504
sS'x'
F383
sg18
I00
s(dp47
g16
S'curve'
p48
sS'x'
F384
sg18
I00
sS'y'
F502
s(dp49
S'y'
F505
sS'x'
F380
sg18
I00
s(dp50
S'y'
F506
sS'x'
F379
sg18
I00
s(dp51
g16
S'curve'
p52
sS'x'
F382
sg18
I00
sS'y'
F507
s(dp53
S'y'
F538
sS'x'
F367
sg18
I00
s(dp54
S'y'
F584
sS'x'
F332
sg18
I00
s(dp55
g16
S'curve'
p56
sS'x'
F336
sg18
I01
sS'y'
F623
s(dp57
S'y'
F703
sS'x'
F344
sg18
I00
s(dp58
S'y'
F750
sS'x'
F402
sg18
I00
s(dp59
g16
S'curve'
p60
sS'x'
F624
sg18
I01
sS'y'
F750
s(dp61
g16
S'line'
p62
sS'x'
F718
sg18
I00
sS'y'
F750
s(dp63
g16
S'line'
p64
sS'x'
F718
sg18
I00
sS'y'
F431
s(dp65
S'y'
F511
sS'x'
F757
sg18
I00
s(dp66
S'y'
F538
sS'x'
F831
sg18
I00
s(dp67
g16
S'curve'
p68
sS'x'
F889
sg18
I01
sS'y'
F538
s(dp69
S'y'
F538
sS'x'
F945
sg18
I00
s(dp70
S'y'
F521
sS'x'
F1051
sg18
I00
s(dp71
g16
S'curve'
p72
sS'x'
F1051
sg18
I01
sS'y'
F353
s(dp73
g16
S'line'
p74
sS'x'
F1051
sg18
I00
sS'y'
F57
s(dp75
g16
S'line'
p76
sS'x'
F1156
sg18
I00
sS'y'
F57
s(dp77
g16
S'line'
p78
sS'x'
F1156
sg18
I00
sS'y'
F0
s(dp79
g16
S'line'
p80
sS'x'
F851
sg18
I00
sS'y'
F0
s(dp81
g16
S'line'
p82
sS'x'
F851
sg18
I00
sS'y'
F57
s(dp83
g16
S'line'
p84
sS'x'
F946
sg18
I00
sS'y'
F57
s(dp85
g16
S'line'
p86
sS'x'
F946
sg18
I01
sS'y'
F357
s(dp87
S'y'
F437
sS'x'
F946
sg18
I00
s(dp88
S'y'
F469
sS'x'
F911
sg18
I00
s(dp89
g16
S'curve'
p90
sS'x'
F868
sg18
I01
sS'y'
F469
s(dp91
S'y'
F469
sS'x'
F802
sg18
I00
s(dp92
S'y'
F392
sS'x'
F718
sg18
I00
s(dp93
g16
S'curve'
p94
sS'x'
F718
sg18
I01
sS'y'
F292
s(dp95
g16
S'line'
p96
sS'x'
F718
sg18
I00
sS'y'
F57
stp97
s(dp98
g14
((dp99
g16
S'curve'
p100
sS'x'
F36
sg18
I01
sS'y'
F252
s(dp101
S'y'
F401
sS'x'
F36
sg18
I00
s(dp102
S'y'
F539
sS'x'
F126
sg18
I00
s(dp103
g16
S'curve'
p104
sS'x'
F301
sg18
I01
sS'y'
F539
s(dp105
S'y'
F539
sS'x'
F393
sg18
I00
s(dp106
S'y'
F485
sS'x'
F503
sg18
I00
s(dp107
g16
S'curve'
p108
sS'x'
F508
sg18
I00
sS'y'
F367
s(dp109
S'y'
F333.53800000000001
sS'x'
F508
sg18
I00
s(dp110
S'y'
F288
sS'x'
F483.166
sg18
I00
s(dp111
g16
S'curve'
p112
sS'x'
F431
sg18
I01
sS'y'
F288
s(dp113
S'y'
F288
sS'x'
F390
sg18
I00
s(dp114
S'y'
F315
sS'x'
F355
sg18
I00
s(dp115
g16
S'curve'
p116
sS'x'
F356
sg18
I01
sS'y'
F359
s(dp117
S'y'
F403
sS'x'
F357
sg18
I00
s(dp118
S'y'
F424
sS'x'
F395
sg18
I00
s(dp119
g16
S'curve'
p120
sS'x'
F431
sg18
I00
sS'y'
F424
s(dp121
S'y'
F456
sS'x'
F411
sg18
I00
s(dp122
S'y'
F483
sS'x'
F371
sg18
I00
s(dp123
g16
S'curve'
p124
sS'x'
F318
sg18
I01
sS'y'
F483
s(dp125
S'y'
F483
sS'x'
F200.352
sg18
I00
s(dp126
S'y'
F372
sS'x'
F147
sg18
I00
s(dp127
g16
S'curve'
p128
sS'x'
F147
sg18
I01
sS'y'
F268
s(dp129
S'y'
F143
sS'x'
F147
sg18
I00
s(dp130
S'y'
F66
sS'x'
F208
sg18
I00
s(dp131
g16
S'curve'
p132
sS'x'
F311
sg18
I01
sS'y'
F66
s(dp133
S'y'
F66
sS'x'
F395
sg18
I00
s(dp134
S'y'
F142.54400000000001
sS'x'
F451.85599999999999
sg18
I00
s(dp135
g16
S'curve'
p136
sS'x'
F464
sg18
I00
sS'y'
F181
s(dp137
g16
S'line'
p138
sS'x'
F519
sg18
I00
sS'y'
F163
s(dp139
S'y'
F59
sS'x'
F495
sg18
I00
s(dp140
S'y'
F-14
sS'x'
F414
sg18
I00
s(dp141
g16
S'curve'
p142
sS'x'
F289
sg18
I01
sS'y'
F-14
s(dp143
S'y'
F-14
sS'x'
F149
sg18
I00
s(dp144
S'y'
F89
sS'x'
F36
sg18
I00
stp145
stp146
sS'components'
p147
(tsS'anchors'
p148
((dp149
S'y'
F0
sS'x'
F281
sg6
S'bottom'
p150
s(dp151
S'y'
F262
sS'x'
F323
sg6
S'center'
p152
s(dp153
S'y'
F524
sS'x'
F323
sg6
S'top'
p154
s(dp155
S'y'
F524
sS'x'
F281
sg6
S'top'
p156
s(dp157
S'y'
F262
sS'x'
F325
sg6
S'center'
p158
s(dp159
S'y'
F524
sS'x'
F277
sg6
S'top'
p160
s(dp161
S'y'
F524
sS'x'
F327
sg6
S'top'
p162
s(dp163
S'y'
F0
sS'x'
F277
sg6
S'bottom'
p164
stp165
sss."
LayerCount: 2
Fore
SplineSet
519 163 m 1
 464 181 l 1
 452 143 395 66 311 66 c 0
 208 66 147 143 147 268 c 0
 147 372 200 483 318 483 c 0
 371 483 411 456 431 424 c 1
 395 424 357 403 356 359 c 0
 355 315 390 288 431 288 c 0
 483 288 508 334 508 367 c 1
 506 414 487 451 460 478 c 0
 419 519 398 576 398 607 c 0
 398 659 437 690 613 690 c 1
 613 57 l 1
 523 57 l 1
 523 0 l 1
 813 0 l 1
 813 57 l 1
 718 57 l 1
 718 292 l 2
 718 392 802 469 868 469 c 0
 911 469 946 437 946 357 c 2
 946 57 l 1
 851 57 l 1
 851 0 l 1
 1156 0 l 1
 1156 57 l 1
 1051 57 l 1
 1051 353 l 2
 1051 521 945 538 889 538 c 0
 831 538 757 511 718 431 c 1
 718 750 l 1
 624 750 l 2
 402 750 344 703 336 623 c 0
 333 592 354 558 370 529 c 1
 347 536 324 539 301 539 c 0
 126 539 36 401 36 252 c 0
 36 89 149 -14 289 -14 c 0
 414 -14 495 59 519 163 c 1
325 262 m 0
327 524 m 0
281 524 m 0
281 0 m 0
323 262 m 0
323 524 m 0
277 524 m 0
277 0 m 0
EndSplineSet
EndChar

StartChar: circumflex
Encoding: 710 710 59
Width: 620
VWidth: 0
Flags: W
PickledData: "(dp1
S'name'
p2
S'circumflex'
p3
sS'com.typemytype.robofont.layerData'
p4
(dp5
S'back'
p6
(dp7
g2
S'circumflex'
p8
sS'lib'
p9
(dp10
sS'unicodes'
p11
(tsS'width'
p12
I620
sS'contours'
p13
(tsS'components'
p14
(tsS'anchors'
p15
(tsssg11
(tsg12
I620
sg13
(tsg14
(tsg15
(ts."
LayerCount: 2
Fore
SplineSet
375 699 m 1
 337 665 264 568 264 568 c 1
 216 613 l 1
 375 784 l 1
 535 610 l 1
 487 566 l 1
 487 566 413 665 375 699 c 1
EndSplineSet
EndChar

StartChar: ck
Encoding: 65538 -1 60
Width: 1148
VWidth: 0
Flags: W
PickledData: "(dp1
S'com.typemytype.robofont.layerData'
p2
(dp3
S'back'
p4
(dp5
S'name'
p6
S'ck'
p7
sS'lib'
p8
(dp9
sS'unicodes'
p10
(tsS'width'
p11
I1148
sS'contours'
p12
((dp13
S'points'
p14
((dp15
S'segmentType'
p16
S'curve'
p17
sS'x'
F519
sS'smooth'
p18
I00
sS'y'
F163
s(dp19
g16
S'line'
p20
sS'x'
F464
sg18
I00
sS'y'
F181
s(dp21
S'y'
F143
sS'x'
F452
sg18
I00
s(dp22
S'y'
F66
sS'x'
F395
sg18
I00
s(dp23
g16
S'curve'
p24
sS'x'
F311
sg18
I01
sS'y'
F66
s(dp25
S'y'
F66
sS'x'
F208
sg18
I00
s(dp26
S'y'
F143
sS'x'
F147
sg18
I00
s(dp27
g16
S'curve'
p28
sS'x'
F147
sg18
I01
sS'y'
F268
s(dp29
S'y'
F372
sS'x'
F147
sg18
I00
s(dp30
S'y'
F483
sS'x'
F200
sg18
I00
s(dp31
g16
S'curve'
p32
sS'x'
F318
sg18
I01
sS'y'
F483
s(dp33
S'y'
F483
sS'x'
F371
sg18
I00
s(dp34
S'y'
F456
sS'x'
F411
sg18
I00
s(dp35
g16
S'curve'
p36
sS'x'
F431
sg18
I00
sS'y'
F424
s(dp37
S'y'
F424
sS'x'
F395
sg18
I00
s(dp38
S'y'
F403
sS'x'
F357
sg18
I00
s(dp39
g16
S'curve'
p40
sS'x'
F356
sg18
I01
sS'y'
F359
s(dp41
S'y'
F315
sS'x'
F355
sg18
I00
s(dp42
S'y'
F288
sS'x'
F390
sg18
I00
s(dp43
g16
S'curve'
p44
sS'x'
F431
sg18
I01
sS'y'
F288
s(dp45
S'y'
F288
sS'x'
F483
sg18
I00
s(dp46
S'y'
F334
sS'x'
F508
sg18
I00
s(dp47
g16
S'curve'
p48
sS'x'
F508
sg18
I00
sS'y'
F367
s(dp49
S'y'
F414
sS'x'
F506
sg18
I00
s(dp50
S'y'
F451
sS'x'
F487
sg18
I00
s(dp51
g16
S'curve'
p52
sS'x'
F460
sg18
I00
sS'y'
F478
s(dp53
S'y'
F519
sS'x'
F419
sg18
I00
s(dp54
S'y'
F576
sS'x'
F398
sg18
I00
s(dp55
g16
S'curve'
p56
sS'x'
F398
sg18
I01
sS'y'
F607
s(dp57
S'y'
F659
sS'x'
F398
sg18
I00
s(dp58
S'y'
F690
sS'x'
F437
sg18
I00
s(dp59
g16
S'curve'
p60
sS'x'
F613
sg18
I00
sS'y'
F690
s(dp61
g16
S'line'
p62
sS'x'
F718
sg18
I00
sS'y'
F750
s(dp63
g16
S'line'
p64
sS'x'
F624
sg18
I01
sS'y'
F750
s(dp65
S'y'
F750
sS'x'
F402
sg18
I00
s(dp66
S'y'
F703
sS'x'
F344
sg18
I00
s(dp67
g16
S'curve'
p68
sS'x'
F336
sg18
I01
sS'y'
F623
s(dp69
S'y'
F592
sS'x'
F333
sg18
I00
s(dp70
S'y'
F558
sS'x'
F354
sg18
I00
s(dp71
g16
S'curve'
p72
sS'x'
F370
sg18
I00
sS'y'
F529
s(dp73
S'y'
F536
sS'x'
F347
sg18
I00
s(dp74
S'y'
F539
sS'x'
F324
sg18
I00
s(dp75
g16
S'curve'
p76
sS'x'
F301
sg18
I01
sS'y'
F539
s(dp77
S'y'
F539
sS'x'
F126
sg18
I00
s(dp78
S'y'
F401
sS'x'
F36
sg18
I00
s(dp79
g16
S'curve'
p80
sS'x'
F36
sg18
I01
sS'y'
F252
s(dp81
S'y'
F89
sS'x'
F36
sg18
I00
s(dp82
S'y'
F-14
sS'x'
F149
sg18
I00
s(dp83
g16
S'curve'
p84
sS'x'
F289
sg18
I01
sS'y'
F-14
s(dp85
S'y'
F-14
sS'x'
F414
sg18
I00
s(dp86
S'y'
F59
sS'x'
F495
sg18
I00
stp87
stp88
sS'components'
p89
(tsS'anchors'
p90
((dp91
S'y'
F524
sS'x'
F277
sg6
S'top'
p92
s(dp93
S'y'
F262
sS'x'
F325
sg6
S'center'
p94
s(dp95
S'y'
F0
sS'x'
F281
sg6
S'bottom'
p96
s(dp97
S'y'
F524
sS'x'
F281
sg6
S'top'
p98
s(dp99
S'y'
F0
sS'x'
F277
sg6
S'bottom'
p100
s(dp101
S'y'
F524
sS'x'
F327
sg6
S'top'
p102
s(dp103
S'y'
F524
sS'x'
F323
sg6
S'top'
p104
s(dp105
S'y'
F262
sS'x'
F323
sg6
S'center'
p106
stp107
sss."
LayerCount: 2
Fore
SplineSet
519 163 m 1
 464 181 l 1
 452 143 395 66 311 66 c 0
 208 66 147 143 147 268 c 0
 147 372 200 483 318 483 c 0
 371 483 411 456 431 424 c 1
 395 424 357 403 356 359 c 0
 355 315 390 288 431 288 c 0
 483 288 508 334 508 367 c 1
 506 414 487 451 460 478 c 0
 419 519 398 576 398 607 c 0
 398 659 437 690 613 690 c 2
 630 690 l 1
 630 57 l 1
 531 57 l 1
 531 0 l 1
 818 0 l 1
 818 57 l 1
 735 57 l 1
 735 204 l 1
 816 266 l 1
 914 97 l 1
 956 34 999 -10 1072 -10 c 0
 1100 -10 1124 -9 1159 11 c 1
 1145 77 l 1
 1130 70 1117 70 1105 68 c 0
 1015 55 946 212 878 307 c 1
 1047 467 l 1
 1140 467 l 1
 1140 524 l 1
 847 524 l 1
 847 467 l 1
 939 467 l 1
 735 279 l 1
 735 750 l 1
 624 750 l 2
 402 750 344 703 336 623 c 0
 333 592 354 558 370 529 c 1
 347 536 324 539 301 539 c 0
 126 539 36 401 36 252 c 0
 36 89 149 -14 289 -14 c 0
 414 -14 495 59 519 163 c 1
325 262 m 0
281 524 m 0
323 524 m 0
323 262 m 0
281 0 m 0
277 524 m 0
277 0 m 0
327 524 m 0
326 0 m 0
277 524 m 0
277 0 m 0
EndSplineSet
EndChar

StartChar: colon
Encoding: 58 58 61
Width: 325
VWidth: 0
Flags: W
PickledData: "(dp1
S'com.typemytype.robofont.layerData'
p2
(dp3
S'back'
p4
(dp5
S'name'
p6
S'colon'
p7
sS'lib'
p8
(dp9
sS'unicodes'
p10
(tsS'width'
p11
I325
sS'contours'
p12
(tsS'components'
p13
(tsS'anchors'
p14
(tsss."
LayerCount: 2
Fore
SplineSet
90 72 m 0
 90 112 122 145 162 145 c 0
 201 145 235 112 235 72 c 0
 235 33 201 0 162 0 c 0
 122 0 90 33 90 72 c 0
90 450 m 0
 90 490 122 523 162 523 c 0
 201 523 235 490 235 450 c 0
 235 411 201 378 162 378 c 0
 122 378 90 411 90 450 c 0
EndSplineSet
EndChar

StartChar: comma
Encoding: 44 44 62
Width: 231
VWidth: 0
Flags: W
PickledData: "(dp1
S'com.typemytype.robofont.layerData'
p2
(dp3
S'back'
p4
(dp5
S'name'
p6
S'comma'
p7
sS'lib'
p8
(dp9
sS'unicodes'
p10
(tsS'width'
p11
I231
sS'contours'
p12
(tsS'components'
p13
(tsS'anchors'
p14
(tsss."
LayerCount: 2
Fore
SplineSet
92 -85 m 1
 119 -69 155 -36 155 -8 c 0
 155 -3 154 2 151 6 c 1
 140 -1 125 -6 110 -6 c 0
 76 -6 45 26 45 59 c 0
 45 96 83 129 118 129 c 0
 158 129 210 98 210 27 c 0
 210 -19 186 -75 122 -119 c 0
 119 -120 117 -122 116 -123 c 1
 92 -85 l 1
EndSplineSet
EndChar

StartChar: copyright
Encoding: 169 169 63
Width: 832
VWidth: 0
Flags: W
PickledData: "(dp1
S'com.typemytype.robofont.layerData'
p2
(dp3
S'back'
p4
(dp5
S'name'
p6
S'copyright'
p7
sS'lib'
p8
(dp9
sS'unicodes'
p10
(tsS'width'
p11
I832
sS'contours'
p12
(tsS'components'
p13
(tsS'anchors'
p14
(tsss."
LayerCount: 2
Fore
SplineSet
416 -13 m 0
 622 -13 791 157 791 363 c 0
 791 568 622 737 416 737 c 0
 211 737 41 568 41 363 c 0
 41 157 211 -13 416 -13 c 0
417 34 m 0
 236 34 87 183 87 364 c 0
 87 546 236 694 417 694 c 0
 599 694 747 546 747 364 c 0
 747 183 599 34 417 34 c 0
608 294 m 1
 570 313 l 1
 558 265 510 210 441 210 c 1
 355 214 306 297 306 377 c 0
 306 486 360 550 435 550 c 0
 486 550 520 526 537 500 c 1
 518 500 479 484 479 448 c 0
 479 418 504 398 533 398 c 0
 572 398 595 430 595 456 c 0
 595 539 512 590 436 590 c 0
 312 590 227 500 226 375 c 0
 226 256 314 160 431 159 c 0
 514 159 588 210 608 294 c 1
423 165 m 0
423 580 m 0
412 638 m 0
412 96 m 0
EndSplineSet
EndChar

StartChar: currency
Encoding: 164 164 64
Width: 581
VWidth: 0
Flags: W
PickledData: "(dp1
S'com.typemytype.robofont.layerData'
p2
(dp3
S'back'
p4
(dp5
S'name'
p6
S'currency'
p7
sS'lib'
p8
(dp9
sS'unicodes'
p10
(tsS'width'
p11
I581
sS'contours'
p12
((dp13
S'points'
p14
((dp15
S'segmentType'
p16
S'line'
p17
sS'x'
F458
sS'smooth'
p18
I00
sS'y'
F510
s(dp19
g16
S'line'
p20
sS'x'
F487
sg18
I00
sS'y'
F481
s(dp21
g16
S'line'
p22
sS'x'
F77
sg18
I00
sS'y'
F71
s(dp23
g16
S'line'
p24
sS'x'
F48
sg18
I00
sS'y'
F100
stp25
s(dp26
g14
((dp27
S'y'
F457
sS'x'
F177
sg18
I00
s(dp28
S'y'
F392
sS'x'
F113
sg18
I00
s(dp29
g16
S'curve'
p30
sS'x'
F113
sg18
I01
sS'y'
F287
s(dp31
S'y'
F184
sS'x'
F113
sg18
I00
s(dp32
S'y'
F124
sS'x'
F178
sg18
I00
s(dp33
g16
S'curve'
p34
sS'x'
F268
sg18
I01
sS'y'
F124
s(dp35
S'y'
F124
sS'x'
F357
sg18
I00
s(dp36
S'y'
F186
sS'x'
F421
sg18
I00
s(dp37
g16
S'curve'
p38
sS'x'
F421
sg18
I01
sS'y'
F287
s(dp39
S'y'
F392
sS'x'
F421
sg18
I00
s(dp40
S'y'
F457
sS'x'
F357
sg18
I00
s(dp41
g16
S'curve'
p42
sS'x'
F267
sg18
I01
sS'y'
F457
stp43
s(dp44
g14
((dp45
g16
S'line'
p46
sS'x'
F48
sg18
I00
sS'y'
F481
s(dp47
g16
S'line'
p48
sS'x'
F77
sg18
I00
sS'y'
F510
s(dp49
g16
S'line'
p50
sS'x'
F487
sg18
I00
sS'y'
F100
s(dp51
g16
S'line'
p52
sS'x'
F458
sg18
I00
sS'y'
F71
stp53
s(dp54
g14
((dp55
S'y'
F68
sS'x'
F120
sg18
I00
s(dp56
S'y'
F179
sS'x'
F44
sg18
I00
s(dp57
g16
S'curve'
p58
sS'x'
F44
sg18
I01
sS'y'
F289
s(dp59
S'y'
F400
sS'x'
F44
sg18
I00
s(dp60
S'y'
F510
sS'x'
F119
sg18
I00
s(dp61
g16
S'curve'
p62
sS'x'
F267
sg18
I01
sS'y'
F510
s(dp63
S'y'
F510
sS'x'
F415
sg18
I00
s(dp64
S'y'
F399
sS'x'
F488
sg18
I00
s(dp65
g16
S'curve'
p66
sS'x'
F488
sg18
I01
sS'y'
F287
s(dp67
S'y'
F178
sS'x'
F488
sg18
I00
s(dp68
S'y'
F68
sS'x'
F415
sg18
I00
s(dp69
g16
S'curve'
p70
sS'x'
F268
sg18
I01
sS'y'
F68
stp71
stp72
sS'components'
p73
(tsS'anchors'
p74
((dp75
S'y'
F524
sS'x'
F266
sg6
S'top'
p76
stp77
sss."
LayerCount: 2
Fore
SplineSet
303 668 m 0
 393 668 457 603 457 498 c 0
 457 397 393 335 304 335 c 0
 214 335 149 395 149 498 c 0
 149 603 213 668 303 668 c 0
494 282 m 1
 523 311 l 1
 477 357 l 1
 508 397 524 448 524 498 c 0
 524 551 508 603 475 644 c 1
 523 692 l 1
 494 721 l 1
 446 673 l 1
 411 703 363 721 303 721 c 0
 243 721 195 703 160 674 c 1
 113 721 l 1
 84 692 l 1
 130 646 l 1
 97 605 80 553 80 500 c 0
 80 449 97 397 129 356 c 1
 84 311 l 1
 113 282 l 1
 158 327 l 1
 195 298 243 279 304 279 c 0
 365 279 413 298 448 328 c 1
 494 282 l 1
EndSplineSet
EndChar

StartChar: d
Encoding: 100 100 65
Width: 604
VWidth: 0
Flags: W
PickledData: "(dp1
S'com.typemytype.robofont.layerData'
p2
(dp3
S'back'
p4
(dp5
S'name'
p6
S'd'
sS'lib'
p7
(dp8
sS'unicodes'
p9
(tsS'width'
p10
I604
sS'contours'
p11
((dp12
S'points'
p13
((dp14
S'y'
F-18
sS'x'
F127
sS'smooth'
p15
I00
s(dp16
S'y'
F106
sS'x'
F39
sg15
I00
s(dp17
S'segmentType'
p18
S'curve'
p19
sS'x'
F39
sg15
I01
sS'y'
F262
s(dp20
S'y'
F422
sS'x'
F39
sg15
I00
s(dp21
S'y'
F538
sS'x'
F123
sg15
I00
s(dp22
g18
S'curve'
p23
sS'x'
F261
sg15
I00
sS'y'
F538
s(dp24
S'y'
F534
sS'x'
F319
sg15
I00
s(dp25
S'y'
F509
sS'x'
F372
sg15
I00
s(dp26
g18
S'curve'
p27
sS'x'
F405
sg15
I00
sS'y'
F460
s(dp28
g18
S'line'
p29
sS'x'
F405
sg15
I00
sS'y'
F661
s(dp30
g18
S'line'
p31
sS'x'
F297
sg15
I00
sS'y'
F661
s(dp32
g18
S'line'
p33
sS'x'
F297
sg15
I00
sS'y'
F721
s(dp34
g18
S'line'
p35
sS'x'
F625
sg15
I00
sS'y'
F721
s(dp36
g18
S'line'
p37
sS'x'
F625
sg15
I00
sS'y'
F662
s(dp38
g18
S'line'
p39
sS'x'
F510
sg15
I00
sS'y'
F662
s(dp40
g18
S'line'
p41
sS'x'
F510
sg15
I00
sS'y'
F662
s(dp42
g18
S'line'
p43
sS'x'
F510
sg15
I00
sS'y'
F56
s(dp44
g18
S'line'
p45
sS'x'
F605
sg15
I00
sS'y'
F56
s(dp46
g18
S'line'
p47
sS'x'
F605
sg15
I00
sS'y'
F1
s(dp48
g18
S'line'
p49
sS'x'
F408
sg15
I00
sS'y'
F-13
s(dp50
g18
S'line'
p51
sS'x'
F408
sg15
I00
sS'y'
F85
s(dp52
S'y'
F23
sS'x'
F374
sg15
I00
s(dp53
S'y'
F-11
sS'x'
F319
sg15
I00
s(dp54
g18
S'curve'
p55
sS'x'
F256
sg15
I01
sS'y'
F-13
stp56
s(dp57
g13
((dp58
S'y'
F483
sS'x'
F186
sg15
I00
s(dp59
S'y'
F363
sS'x'
F151
sg15
I00
s(dp60
g18
S'curve'
p61
sS'x'
F151
sg15
I01
sS'y'
F256
s(dp62
S'y'
F152
sS'x'
F151
sg15
I00
s(dp63
S'y'
F49
sS'x'
F196
sg15
I00
s(dp64
g18
S'curve'
p65
sS'x'
F280
sg15
I01
sS'y'
F49
s(dp66
S'y'
F49
sS'x'
F358
sg15
I00
s(dp67
S'y'
F139
sS'x'
F412
sg15
I00
s(dp68
g18
S'curve'
p69
sS'x'
F412
sg15
I01
sS'y'
F265
s(dp70
S'y'
F365
sS'x'
F412
sg15
I00
s(dp71
S'y'
F483
sS'x'
F375
sg15
I00
s(dp72
g18
S'curve'
p73
sS'x'
F280
sg15
I01
sS'y'
F483
stp74
stp75
sS'components'
p76
(tsS'anchors'
p77
(tsss."
LayerCount: 2
Fore
SplineSet
412 278 m 0
 412 275 412 272 412 268 c 0
 412 141 354 49 275 49 c 0
 190.192382006 49 151 154.990430403 151 260 c 0
 151 366 186 483 279 483 c 0
 370 483 410 373 412 278 c 0
406 83 m 1
 425 0 l 1
 598 0 l 1
 598 56 l 1
 510 56 l 1
 510 735 l 1
 290 735 l 1
 290 675 l 1
 405 675 l 1
 405 460 l 1
 372 509 314 538 261 538 c 0
 123 538 39 426 39 262 c 0
 39 97 124 -13 254 -13 c 0
 307 -13 371 18 406 83 c 1
322 262 m 0
EndSplineSet
EndChar

StartChar: degree
Encoding: 176 176 68
Width: 370
VWidth: 0
Flags: W
PickledData: "(dp1
S'com.typemytype.robofont.layerData'
p2
(dp3
S'back'
p4
(dp5
S'name'
p6
S'degree'
p7
sS'lib'
p8
(dp9
sS'unicodes'
p10
(tsS'width'
p11
I370
sS'contours'
p12
((dp13
S'points'
p14
((dp15
S'segmentType'
p16
S'curve'
p17
sS'x'
F171
sS'smooth'
p18
I00
sS'y'
F670
s(dp19
S'y'
F667
sS'x'
F295
sg18
I00
s(dp20
S'y'
F514
sS'x'
F346
sg18
I00
s(dp21
g16
S'curve'
p22
sS'x'
F346
sg18
I01
sS'y'
F361
s(dp23
S'y'
F208
sS'x'
F346
sg18
I00
s(dp24
S'y'
F55
sS'x'
F295
sg18
I00
s(dp25
g16
S'curve'
p26
sS'x'
F171
sg18
I01
sS'y'
F55
s(dp27
S'y'
F55
sS'x'
F47
sg18
I00
s(dp28
S'y'
F208
sS'x'
F-4
sg18
I00
s(dp29
g16
S'curve'
p30
sS'x'
F-4
sg18
I01
sS'y'
F361
s(dp31
S'y'
F514
sS'x'
F-4
sg18
I00
s(dp32
S'y'
F667
sS'x'
F47
sg18
I00
stp33
s(dp34
g14
((dp35
g16
S'curve'
p36
sS'x'
F171
sg18
I01
sS'y'
F-13
s(dp37
S'y'
F-13
sS'x'
F374
sg18
I00
s(dp38
S'y'
F165
sS'x'
F464
sg18
I00
s(dp39
g16
S'curve'
p40
sS'x'
F464
sg18
I01
sS'y'
F363
s(dp41
S'y'
F560
sS'x'
F464
sg18
I00
s(dp42
S'y'
F737
sS'x'
F374
sg18
I00
s(dp43
g16
S'curve'
p44
sS'x'
F171
sg18
I01
sS'y'
F737
s(dp45
S'y'
F737
sS'x'
F-32
sg18
I00
s(dp46
S'y'
F560
sS'x'
F-122
sg18
I00
s(dp47
g16
S'curve'
p48
sS'x'
F-122
sg18
I01
sS'y'
F363
s(dp49
S'y'
F165
sS'x'
F-122
sg18
I00
s(dp50
S'y'
F-13
sS'x'
F-32
sg18
I00
stp51
stp52
sS'components'
p53
(tsS'anchors'
p54
(tsss."
LayerCount: 2
Fore
SplineSet
31 594 m 0
 31 674 87 737 185 737 c 0
 282 737 339 674 339 594 c 0
 339 514 282 450 185 450 c 0
 89 450 31 512 31 594 c 0
185 694 m 0
 143 694 98 660 98 594 c 0
 98 527 141 497 184 497 c 0
 226 497 272 530 272 594 c 0
 272 660 227 694 185 694 c 0
EndSplineSet
EndChar

StartChar: dieresis
Encoding: 168 168 69
Width: 516
VWidth: 0
Flags: W
PickledData: "(dp1
S'com.typemytype.robofont.layerData'
p2
(dp3
S'back'
p4
(dp5
S'name'
p6
S'dieresis'
p7
sS'lib'
p8
(dp9
sS'unicodes'
p10
(tsS'width'
p11
I516
sS'contours'
p12
(tsS'components'
p13
(tsS'anchors'
p14
(tsss."
LayerCount: 2
Fore
SplineSet
316 643 m 0
 316 680 346 711 383 711 c 0
 419 711 451 680 451 643 c 0
 451 607 419 576 383 576 c 0
 346 576 316 607 316 643 c 0
84 643 m 0
 84 680 114 711 151 711 c 0
 187 711 218 680 218 643 c 0
 218 607 187 576 151 576 c 0
 114 576 84 607 84 643 c 0
EndSplineSet
EndChar

StartChar: divide
Encoding: 247 247 70
Width: 446
VWidth: 0
Flags: W
PickledData: "(dp1
S'com.typemytype.robofont.layerData'
p2
(dp3
S'back'
p4
(dp5
S'name'
p6
S'divide'
p7
sS'lib'
p8
(dp9
sS'unicodes'
p10
(tsS'width'
p11
I446
sS'contours'
p12
(tsS'components'
p13
(tsS'anchors'
p14
(tsss."
LayerCount: 2
Fore
SplineSet
385 258 m 1
 385 334 l 1
 61 334 l 1
 61 258 l 1
 385 258 l 1
165 131 m 0
 165 166 193 195 228 195 c 0
 262 195 292 166 292 131 c 0
 292 97 262 68 228 68 c 0
 193 68 165 97 165 131 c 0
165 460 m 0
 165 495 193 524 228 524 c 0
 262 524 292 495 292 460 c 0
 292 426 262 397 228 397 c 0
 193 397 165 426 165 460 c 0
EndSplineSet
EndChar

StartChar: dollar
Encoding: 36 36 71
Width: 681
VWidth: 0
Flags: W
PickledData: "(dp1
S'com.typemytype.robofont.layerData'
p2
(dp3
S'back'
p4
(dp5
S'name'
p6
S'dollar'
p7
sS'lib'
p8
(dp9
sS'unicodes'
p10
(tsS'width'
p11
F681.01360794699997
sS'contours'
p12
(tsS'components'
p13
(tsS'anchors'
p14
(tsss."
LayerCount: 2
Fore
SplineSet
312 425 m 1
 170 458 154 500 154 550 c 1
 156 623 229 667 312 674 c 1
 312 425 l 1
359 53 m 1
 359 297 l 1
 461 270 521 245 521 177 c 0
 521 102 449 59 362 53 c 1
 359 53 l 1
312 -94 m 1
 359 -93 l 1
 359 -12 l 1
 533 -4 617 67 617 188 c 1
 616 292 572 361 359 414 c 1
 359 674 l 1
 410 671 460 657 499 623 c 1
 468 623 432 604 432 547 c 0
 432 503 473 478 514 478 c 0
 568 478 597 521 597 576 c 0
 597 683 461 727 359 735 c 1
 359 811 l 1
 312 810 l 1
 312 737 l 1
 151 733 53 647 52 530 c 0
 51 437 100 361 303 311 c 0
 306 310 309 309 312 309 c 1
 312 53 l 1
 254 56 194 71 140 105 c 1
 180 110 209 131 209 176 c 0
 209 216 176 257 131 257 c 0
 86 257 43 220 43 164 c 0
 43 49 200 -7 312 -13 c 1
 312 -94 l 1
53 453 m 0
EndSplineSet
EndChar

StartChar: dotaccent
Encoding: 729 729 72
Width: 327
VWidth: 0
Flags: W
PickledData: "(dp1
S'com.typemytype.robofont.layerData'
p2
(dp3
S'back'
p4
(dp5
S'name'
p6
S'dotaccent'
p7
sS'lib'
p8
(dp9
sS'unicodes'
p10
(tsS'width'
p11
I327
sS'contours'
p12
(tsS'components'
p13
(tsS'anchors'
p14
(tsss."
LayerCount: 2
Fore
SplineSet
91 663 m 0
 91 703 123 736 163 736 c 0
 202 736 236 703 236 663 c 0
 236 624 202 591 163 591 c 0
 123 591 91 624 91 663 c 0
EndSplineSet
EndChar

StartChar: dotlessi
Encoding: 305 305 73
Width: 328
VWidth: 0
Flags: W
PickledData: "(dp1
S'com.typemytype.robofont.layerData'
p2
(dp3
S'back'
p4
(dp5
S'name'
p6
S'dotlessi'
p7
sS'lib'
p8
(dp9
sS'unicodes'
p10
(tsS'width'
p11
I328
sS'contours'
p12
(tsS'components'
p13
(tsS'anchors'
p14
(tsss."
LayerCount: 2
Fore
SplineSet
225 524 m 1
 225 57 l 1
 321 57 l 1
 321 0 l 1
 26 0 l 1
 26 57 l 1
 120 57 l 1
 120 469 l 1
 25 469 l 1
 25 524 l 1
 225 524 l 1
EndSplineSet
EndChar

StartChar: e
Encoding: 101 101 74
Width: 562
VWidth: 0
Flags: W
PickledData: "(dp1
S'com.typemytype.robofont.layerData'
p2
(dp3
S'back'
p4
(dp5
S'name'
p6
S'e'
sS'lib'
p7
(dp8
sS'unicodes'
p9
(tsS'width'
p10
F562.19190000000003
sS'contours'
p11
(tsS'components'
p12
(tsS'anchors'
p13
(tsss."
LayerCount: 2
Fore
SplineSet
36 255.274 m 0
 36.1189 119 126.1189 -14 291.1189 -14 c 0
 409.1189 -14 489.1919 57 514.1919 163 c 1
 457.1919 181 l 1
 435.1919 100 364.1919 60 301.1919 60 c 0
 193.5259 60 148.1919 156.596 148.1919 265 c 2
 148.1919 269 l 1
 524.1919 269 l 1
 521.1919 445 417.1919 539 285.1919 539 c 0
 123.9719 539 36.1189 402 36 255.274 c 0
151.1919 322 m 1
 159.1919 418 217.1919 481 288.1919 481 c 0
 358.1919 481 414.1919 418 417.1919 322 c 1
 151.1919 322 l 1
274.1189 524 m 0
274.1189 0 m 0
499.1189 10 m 0
EndSplineSet
EndChar

StartChar: eight
Encoding: 56 56 79
Width: 603
VWidth: 0
Flags: W
PickledData: "(dp1
S'com.typemytype.robofont.layerData'
p2
(dp3
S'back'
p4
(dp5
S'name'
p6
S'eight'
p7
sS'lib'
p8
(dp9
sS'unicodes'
p10
(tsS'width'
p11
I603
sS'contours'
p12
(tsS'components'
p13
(tsS'anchors'
p14
(tsss."
LayerCount: 2
Fore
SplineSet
557 175 m 1
 557 171 l 2
 557 60 462 -14 299 -13 c 0
 151 -12 46 56 46 162 c 0
 46 319 244 376 245 376 c 2
 319 353 l 1
 318 352 153 288 153 177 c 0
 153 92 211 52 299 52 c 0
 386 52 455 85 455 171 c 0
 455 332 80 345 80 568 c 0
 80 671 165 737 304 737 c 0
 437 737 526 656 526 558 c 0
 526 407 309 359 309 359 c 1
 289 403 l 1
 289 403 436 444 436 563 c 0
 436 621 384 680 293 675 c 0
 225 671 170 632 170 562 c 0
 170 428 551 391 557 175 c 1
EndSplineSet
EndChar

StartChar: equal
Encoding: 61 61 82
Width: 467
VWidth: 0
Flags: W
PickledData: "(dp1
S'com.typemytype.robofont.layerData'
p2
(dp3
S'back'
p4
(dp5
S'name'
p6
S'equal'
p7
sS'lib'
p8
(dp9
sS'unicodes'
p10
(tsS'width'
p11
I467
sS'contours'
p12
(tsS'components'
p13
(tsS'anchors'
p14
(tsss."
LayerCount: 2
Fore
SplineSet
30 148 m 1
 437 148 l 1
 437 76 l 1
 30 76 l 1
 30 148 l 1
30 332 m 1
 437 332 l 1
 437 260 l 1
 30 260 l 1
 30 332 l 1
EndSplineSet
EndChar

StartChar: eth
Encoding: 240 240 83
Width: 608
VWidth: 0
Flags: W
PickledData: "(dp1
S'com.typemytype.robofont.layerData'
p2
(dp3
S'back'
p4
(dp5
S'name'
p6
S'eth'
p7
sS'lib'
p8
(dp9
sS'unicodes'
p10
(tsS'width'
p11
I608
sS'contours'
p12
((dp13
S'points'
p14
((dp15
S'segmentType'
p16
S'line'
p17
sS'x'
F250
sS'smooth'
p18
I00
sS'y'
F585
s(dp19
g16
S'line'
p20
sS'x'
F566
sg18
I00
sS'y'
F726
s(dp21
g16
S'line'
p22
sS'x'
F583
sg18
I00
sS'y'
F685
s(dp23
g16
S'line'
p24
sS'x'
F267
sg18
I00
sS'y'
F544
stp25
s(dp26
g14
((dp27
g16
S'line'
p28
sS'x'
F134
sg18
I00
sS'y'
F726
s(dp29
S'y'
F736
sS'x'
F161
sg18
I00
s(dp30
S'y'
F742
sS'x'
F221
sg18
I00
s(dp31
g16
S'curve'
p32
sS'x'
F248
sg18
I01
sS'y'
F742
s(dp33
S'y'
F739
sS'x'
F451
sg18
I00
s(dp34
S'y'
F571
sS'x'
F571
sg18
I00
s(dp35
g16
S'curve'
p36
sS'x'
F571
sg18
I01
sS'y'
F329
s(dp37
S'y'
F85
sS'x'
F571
sg18
I00
s(dp38
S'y'
F-10
sS'x'
F444
sg18
I00
s(dp39
g16
S'curve'
p40
sS'x'
F304
sg18
I00
sS'y'
F-10
s(dp41
S'y'
F-10
sS'x'
F126
sg18
I00
s(dp42
S'y'
F126
sS'x'
F49
sg18
I00
s(dp43
g16
S'curve'
p44
sS'x'
F49
sg18
I01
sS'y'
F245
s(dp45
S'y'
F371
sS'x'
F49
sg18
I00
s(dp46
S'y'
F505
sS'x'
F118
sg18
I00
s(dp47
g16
S'curve'
p48
sS'x'
F294
sg18
I01
sS'y'
F495
s(dp49
S'y'
F490
sS'x'
F381
sg18
I00
s(dp50
S'y'
F439
sS'x'
F428
sg18
I00
s(dp51
g16
S'curve'
p52
sS'x'
F460
sg18
I00
sS'y'
F395
s(dp53
S'y'
F395
sS'x'
F460
sg18
I00
s(dp54
S'y'
F679
sS'x'
F429
sg18
I00
s(dp55
g16
S'curve'
p56
sS'x'
F235
sg18
I01
sS'y'
F684
s(dp57
S'y'
F684
sS'x'
F219
sg18
I00
s(dp58
S'y'
F682
sS'x'
F162
sg18
I00
s(dp59
g16
S'curve'
p60
sS'x'
F144
sg18
I00
sS'y'
F677
stp61
s(dp62
g14
((dp63
S'y'
F394
sS'x'
F416
sg18
I00
s(dp64
S'y'
F429
sS'x'
F360
sg18
I00
s(dp65
g16
S'curve'
p66
sS'x'
F295
sg18
I00
sS'y'
F429
s(dp67
S'y'
F427
sS'x'
F197
sg18
I00
s(dp68
S'y'
F339
sS'x'
F161
sg18
I00
s(dp69
g16
S'curve'
p70
sS'x'
F161
sg18
I01
sS'y'
F239
s(dp71
S'y'
F136
sS'x'
F161
sg18
I00
s(dp72
S'y'
F49
sS'x'
F211
sg18
I00
s(dp73
g16
S'curve'
p74
sS'x'
F309
sg18
I00
sS'y'
F51
s(dp75
S'y'
F59
sS'x'
F419
sg18
I00
s(dp76
S'y'
F148
sS'x'
F461
sg18
I00
s(dp77
g16
S'curve'
p78
sS'x'
F461
sg18
I00
sS'y'
F324
stp79
stp80
sS'components'
p81
(tsS'anchors'
p82
(tsss."
LayerCount: 2
Fore
SplineSet
304 429 m 1
 226 425 172 339 172 239 c 0
 172 137 211 51 307 51 c 0
 406 51 446 133 446 292 c 0
 446 311 446 331 444 352 c 1
 419 391 369 429 304 429 c 1
120 730 m 1
 155 738 189 742 220 742 c 0
 437 742 555 555 555 316 c 0
 555 72 444 -10 304 -10 c 0
 126 -10 60 126 60 245 c 0
 60 370.925190973 138.593548651 496 299 496 c 0
 382 496 414 454 435 438 c 1
 435 438 397 682 184 682 c 0
 167 682 149 680 130 677 c 1
 120 730 l 1
250 585 m 1
 550 726 l 1
 567 685 l 1
 267 544 l 1
 250 585 l 1
EndSplineSet
EndChar

StartChar: exclam
Encoding: 33 33 84
Width: 418
VWidth: 0
Flags: W
PickledData: "(dp1
S'com.typemytype.robofont.layerData'
p2
(dp3
S'back'
p4
(dp5
S'name'
p6
S'exclam'
p7
sS'lib'
p8
(dp9
sS'unicodes'
p10
(tsS'width'
p11
I418
sS'contours'
p12
(tsS'components'
p13
(tsS'anchors'
p14
(tsss."
LayerCount: 2
Fore
SplineSet
142 62 m 0
 142 102 174 135 214 135 c 0
 253 135 287 102 287 62 c 0
 287 23 253 -10 214 -10 c 0
 174 -10 142 23 142 62 c 0
230 220 m 1
 195 220 l 1
 149 722 l 1
 276 722 l 1
 230 220 l 1
208 722 m 0
378 10 m 0
EndSplineSet
EndChar

StartChar: f
Encoding: 102 102 86
Width: 380
VWidth: 0
Flags: W
PickledData: "(dp1
S'com.typemytype.robofont.layerData'
p2
(dp3
S'back'
p4
(dp5
S'name'
p6
S'f'
sS'lib'
p7
(dp8
sS'unicodes'
p9
(tsS'width'
p10
I380
sS'contours'
p11
((dp12
S'points'
p13
((dp14
S'segmentType'
p15
S'line'
p16
sS'x'
F214
sS'smooth'
p17
I00
sS'y'
F524
s(dp18
g15
S'line'
p19
sS'x'
F214
sg17
I00
sS'y'
F57
s(dp20
g15
S'line'
p21
sS'x'
F310
sg17
I00
sS'y'
F57
s(dp22
g15
S'line'
p23
sS'x'
F310
sg17
I00
sS'y'
F0
s(dp24
g15
S'line'
p25
sS'x'
F15
sg17
I00
sS'y'
F0
s(dp26
g15
S'line'
p27
sS'x'
F15
sg17
I00
sS'y'
F57
s(dp28
g15
S'line'
p29
sS'x'
F109
sg17
I00
sS'y'
F57
s(dp30
g15
S'line'
p31
sS'x'
F109
sg17
I00
sS'y'
F469
s(dp32
g15
S'line'
p33
sS'x'
F14
sg17
I00
sS'y'
F469
s(dp34
g15
S'line'
p35
sS'x'
F14
sg17
I00
sS'y'
F524
stp36
stp37
sS'components'
p38
(tsS'anchors'
p39
(tsss."
LayerCount: 2
Fore
SplineSet
120 467 m 1
 120 57 l 1
 25 57 l 1
 25 0 l 1
 347 0 l 1
 347 57 l 1
 225 57 l 1
 225 467 l 1
 378 467 l 1
 382 524 l 1
 222 524 l 1
 222 607 l 2
 222 697 262 732 319 732 c 0
 350 732 394 717 395 691 c 1
 368 691 332 669 332 632 c 0
 332 593 364 566 398 566 c 0
 438 566 471 597 471 650 c 0
 471 700 417 773 304 773 c 0
 167 773 120 690 120 524 c 1
 25 524 l 1
 25 467 l 1
 120 467 l 1
EndSplineSet
EndChar

StartChar: ff
Encoding: 65539 -1 87
Width: 687
VWidth: 0
Flags: W
PickledData: "(dp1
S'com.typemytype.robofont.layerData'
p2
(dp3
S'back'
p4
(dp5
S'name'
p6
S'ff'
p7
sS'lib'
p8
(dp9
sS'unicodes'
p10
(tsS'width'
p11
I687
sS'contours'
p12
(tsS'components'
p13
(tsS'anchors'
p14
(tsss."
LayerCount: 2
Fore
SplineSet
233 524 m 1
 233 607 l 2
 233 697 274 732 331 732 c 0
 369 732 397 722 405 715 c 1
 383 698 371 673 371 649 c 0
 371 623 386 599 420 589 c 1
 420 524 l 1
 233 524 l 1
300 0 m 1
 300 57 l 1
 236 57 l 1
 236 469 l 1
 420 469 l 1
 420 57 l 1
 346 57 l 1
 346 0 l 1
 619 0 l 1
 619 57 l 1
 525 57 l 1
 525 469 l 1
 646 469 l 1
 646 524 l 1
 522 524 l 1
 522 607 l 2
 522 697 567 732 624 732 c 0
 655 732 692 717 693 691 c 1
 666 691 633 669 633 632 c 0
 633 593 662 566 696 566 c 0
 736 566 772 594 772 647 c 0
 772 704 737 773 609 773 c 0
 568 773 517 752 478 710 c 1
 453 744 400 773 329 773 c 0
 192 773 131 690 131 524 c 1
 36 524 l 1
 36 469 l 1
 131 469 l 1
 131 57 l 1
 44 57 l 1
 44 0 l 1
 300 0 l 1
EndSplineSet
EndChar

StartChar: ffi
Encoding: 65540 -1 88
Width: 944
VWidth: 0
Flags: W
PickledData: "(dp1
S'com.typemytype.robofont.layerData'
p2
(dp3
S'back'
p4
(dp5
S'name'
p6
S'ffi'
p7
sS'lib'
p8
(dp9
sS'unicodes'
p10
(tsS'width'
p11
I944
sS'contours'
p12
(tsS'components'
p13
(tsS'anchors'
p14
(tsss."
LayerCount: 2
Fore
SplineSet
233 524 m 1
 233 607 l 2
 233 697 294 732 351 732 c 0
 389 732 418 722 426 715 c 1
 404 698 392 673 392 649 c 0
 392 623 407 599 441 589 c 1
 441 524 l 1
 233 524 l 1
307 0 m 1
 307 57 l 1
 236 57 l 1
 236 469 l 1
 441 469 l 1
 441 57 l 1
 353 57 l 1
 353 0 l 1
 628 0 l 1
 628 57 l 1
 546 57 l 1
 546 469 l 1
 746 469 l 1
 746 57 l 1
 670 57 l 1
 670 0 l 1
 937 0 l 1
 937 57 l 1
 851 57 l 1
 851 524 l 1
 543 524 l 1
 543 607 l 2
 543 697 624 732 681 732 c 0
 712 732 771 717 772 691 c 1
 745 691 709 669 709 632 c 0
 709 593 741 566 775 566 c 0
 815 566 848 595 848 648 c 0
 848 705 794 773 666 773 c 0
 590 773 538 752 499 710 c 1
 474 744 420 773 349 773 c 0
 212 773 131 690 131 524 c 1
 36 524 l 1
 36 469 l 1
 131 469 l 1
 131 57 l 1
 41 57 l 1
 41 0 l 1
 307 0 l 1
EndSplineSet
EndChar

StartChar: ffl
Encoding: 65541 -1 89
Width: 976
VWidth: 0
Flags: W
PickledData: "(dp1
S'com.typemytype.robofont.layerData'
p2
(dp3
S'back'
p4
(dp5
S'name'
p6
S'ffl'
p7
sS'lib'
p8
(dp9
sS'unicodes'
p10
(tsS'width'
p11
I976
sS'contours'
p12
(tsS'components'
p13
(tsS'anchors'
p14
(tsss."
LayerCount: 2
Fore
SplineSet
424 524 m 1
 233 524 l 1
 233 607 l 2
 233 697 280 732 337 732 c 0
 368 732 408 720 422 696 c 1
 389 693 371 666 371 639 c 0
 371 612 389 584 426 577 c 1
 425 566 424 543 424 531 c 2
 424 524 l 1
307 0 m 1
 307 57 l 1
 236 57 l 1
 236 469 l 1
 424 469 l 1
 424 57 l 1
 360 57 l 1
 360 0 l 1
 624 0 l 1
 624 57 l 1
 529 57 l 1
 529 469 l 1
 688 469 l 1
 688 524 l 1
 526 524 l 1
 526 607 l 2
 526 697 586 727 643 727 c 0
 684 727 748 718 757 685 c 1
 757 57 l 1
 672 57 l 1
 672 0 l 1
 956 0 l 1
 956 57 l 1
 862 57 l 1
 862 686 l 2
 862 736 741 773 628 773 c 0
 562 773 513 754 479 716 c 1
 441 755 389 773 322 773 c 0
 185 773 131 690 131 524 c 1
 36 524 l 1
 36 469 l 1
 131 469 l 1
 131 57 l 1
 36 57 l 1
 36 0 l 1
 307 0 l 1
160 0 m 0
325 524 m 0
160 524 m 0
EndSplineSet
EndChar

StartChar: fi
Encoding: 65542 -1 90
Width: 640
VWidth: 0
Flags: W
PickledData: "(dp1
S'com.typemytype.robofont.layerData'
p2
(dp3
S'back'
p4
(dp5
S'name'
p6
S'fi'
p7
sS'lib'
p8
(dp9
sS'unicodes'
p10
(tsS'width'
p11
I640
sS'contours'
p12
(tsS'components'
p13
(tsS'anchors'
p14
(tsss."
LayerCount: 2
Fore
SplineSet
318 0 m 1
 318 57 l 1
 236 57 l 1
 236 469 l 1
 442 469 l 1
 442 57 l 1
 366 57 l 1
 366 0 l 1
 633 0 l 1
 633 57 l 1
 547 57 l 1
 547 524 l 1
 233 524 l 1
 233 607 l 2
 233 697 320 732 377 732 c 0
 408 732 467 717 468 691 c 1
 441 691 405 669 405 632 c 0
 405 593 437 566 471 566 c 0
 511 566 544 595 544 648 c 0
 544 705 490 773 362 773 c 0
 211 773 131 690 131 524 c 1
 36 524 l 1
 36 469 l 1
 131 469 l 1
 131 57 l 1
 36 57 l 1
 36 0 l 1
 318 0 l 1
EndSplineSet
EndChar

StartChar: five
Encoding: 53 53 91
Width: 530
VWidth: 0
Flags: W
PickledData: "(dp1
S'com.typemytype.robofont.layerData'
p2
(dp3
S'back'
p4
(dp5
S'name'
p6
S'five'
p7
sS'lib'
p8
(dp9
sS'unicodes'
p10
(tsS'width'
p11
F530.89899988599996
sS'contours'
p12
((dp13
S'points'
p14
((dp15
S'y'
F-117
sS'x'
F47
sS'smooth'
p16
I00
s(dp17
S'y'
F-149
sS'x'
F125
sg16
I00
s(dp18
S'segmentType'
p19
S'curve'
p20
sS'x'
F217
sg16
I01
sS'y'
F-149
s(dp21
S'y'
F-149
sS'x'
F220
sg16
I00
s(dp22
S'y'
F-149
sS'x'
F223
sg16
I00
s(dp23
g19
S'curve'
p24
sS'x'
F226
sg16
I01
sS'y'
F-149
s(dp25
S'y'
F-144
sS'x'
F397
sg16
I00
s(dp26
S'y'
F-54
sS'x'
F500
sg16
I00
s(dp27
g19
S'curve'
p28
sS'x'
F500
sg16
I01
sS'y'
F65
s(dp29
S'y'
F152
sS'x'
F500
sg16
I00
s(dp30
S'y'
F218
sS'x'
F450
sg16
I00
s(dp31
g19
S'curve'
p32
sS'x'
F326
sg16
I00
sS'y'
F231
s(dp33
S'y'
F253
sS'x'
F412
sg16
I00
s(dp34
S'y'
F304
sS'x'
F451
sg16
I00
s(dp35
g19
S'curve'
p36
sS'x'
F451
sg16
I01
sS'y'
F371
s(dp37
S'y'
F372
sS'x'
F451
sg16
I00
s(dp38
S'y'
F374
sS'x'
F451
sg16
I00
s(dp39
g19
S'curve'
p40
sS'x'
F451
sg16
I01
sS'y'
F375
s(dp41
S'y'
F452
sS'x'
F449
sg16
I00
s(dp42
S'y'
F539
sS'x'
F393
sg16
I00
s(dp43
g19
S'curve'
p44
sS'x'
F250
sg16
I01
sS'y'
F539
s(dp45
S'y'
F539
sS'x'
F123
sg16
I00
s(dp46
S'y'
F480
sS'x'
F30
sg16
I00
s(dp47
g19
S'curve'
p48
sS'x'
F30
sg16
I01
sS'y'
F371
s(dp49
S'y'
F336
sS'x'
F30
sg16
I00
s(dp50
S'y'
F292
sS'x'
F61
sg16
I00
s(dp51
g19
S'curve'
p52
sS'x'
F115
sg16
I01
sS'y'
F292
s(dp53
S'y'
F292
sS'x'
F157
sg16
I00
s(dp54
S'y'
F322
sS'x'
F186
sg16
I00
s(dp55
g19
S'curve'
p56
sS'x'
F186
sg16
I01
sS'y'
F364
s(dp57
S'y'
F414
sS'x'
F186
sg16
I00
s(dp58
S'y'
F427
sS'x'
F140
sg16
I00
s(dp59
g19
S'curve'
p60
sS'x'
F113
sg16
I00
sS'y'
F427
s(dp61
S'y'
F470
sS'x'
F151
sg16
I00
s(dp62
S'y'
F480
sS'x'
F179
sg16
I00
s(dp63
g19
S'curve'
p64
sS'x'
F231
sg16
I01
sS'y'
F480
s(dp65
S'y'
F480
sS'x'
F311
sg16
I00
s(dp66
S'y'
F436
sS'x'
F358
sg16
I00
s(dp67
g19
S'curve'
p68
sS'x'
F358
sg16
I01
sS'y'
F368
s(dp69
S'y'
F300
sS'x'
F358
sg16
I00
s(dp70
S'y'
F260
sS'x'
F305
sg16
I00
s(dp71
g19
S'curve'
p72
sS'x'
F198
sg16
I00
sS'y'
F244
s(dp73
g19
S'line'
p74
sS'x'
F210
sg16
I00
sS'y'
F182
s(dp75
S'y'
F185
sS'x'
F228
sg16
I00
s(dp76
S'y'
F188
sS'x'
F245
sg16
I00
s(dp77
g19
S'curve'
p78
sS'x'
F260
sg16
I01
sS'y'
F188
s(dp79
S'y'
F188
sS'x'
F262
sg16
I00
s(dp80
S'y'
F188
sS'x'
F265
sg16
I00
s(dp81
g19
S'curve'
p82
sS'x'
F267
sg16
I01
sS'y'
F188
s(dp83
S'y'
F181
sS'x'
F370
sg16
I00
s(dp84
S'y'
F123
sS'x'
F391
sg16
I00
s(dp85
g19
S'curve'
p86
sS'x'
F392
sg16
I01
sS'y'
F65
s(dp87
S'y'
F64
sS'x'
F392
sg16
I00
s(dp88
S'y'
F63
sS'x'
F392
sg16
I00
s(dp89
g19
S'curve'
p90
sS'x'
F392
sg16
I01
sS'y'
F62
s(dp91
S'y'
F-20
sS'x'
F392
sg16
I00
s(dp92
S'y'
F-89
sS'x'
F334
sg16
I00
s(dp93
g19
S'curve'
p94
sS'x'
F215
sg16
I01
sS'y'
F-99
s(dp95
S'y'
F-99
sS'x'
F212
sg16
I00
s(dp96
S'y'
F-99
sS'x'
F209
sg16
I00
s(dp97
g19
S'curve'
p98
sS'x'
F206
sg16
I01
sS'y'
F-99
s(dp99
S'y'
F-99
sS'x'
F193
sg16
I00
s(dp100
S'y'
F-97
sS'x'
F180
sg16
I00
s(dp101
g19
S'curve'
p102
sS'x'
F166
sg16
I00
sS'y'
F-95
s(dp103
S'y'
F-84
sS'x'
F169
sg16
I00
s(dp104
S'y'
F-68
sS'x'
F179
sg16
I00
s(dp105
g19
S'curve'
p106
sS'x'
F179
sg16
I01
sS'y'
F-48
s(dp107
S'y'
F-16
sS'x'
F179
sg16
I00
s(dp108
S'y'
F20
sS'x'
F155
sg16
I00
s(dp109
g19
S'curve'
p110
sS'x'
F112
sg16
I01
sS'y'
F20
s(dp111
S'y'
F20
sS'x'
F63
sg16
I00
s(dp112
S'y'
F-11
sS'x'
F43
sg16
I00
s(dp113
g19
S'curve'
p114
sS'x'
F43
sg16
I01
sS'y'
F-50
stp115
stp116
sS'components'
p117
(tsS'anchors'
p118
(tsss."
LayerCount: 2
Fore
SplineSet
225 -148 m 1
 413 -142 503 -27 492 104 c 0
 483 210 415 299 224 299 c 0
 201 299 177 298 151 295 c 1
 174 441 l 1
 417 441 l 1
 446 524 l 1
 114 524 l 1
 77 271 l 1
 106 236 l 1
 127 239 148 241 169 241 c 0
 276 241 376 199 384 89 c 0
 391 -8 338 -84 214 -95 c 1
 205 -95 l 2
 192 -95 179 -93 165 -91 c 1
 168 -80 178 -67 178 -47 c 0
 178 -15 154 21 111 21 c 0
 62 21 42 -10 42 -49 c 1
 46 -116 124 -148 216 -148 c 2
 225 -148 l 1
EndSplineSet
EndChar

StartChar: fj
Encoding: 65543 -1 92
Width: 626
VWidth: 0
Flags: W
PickledData: "(dp1
S'com.typemytype.robofont.layerData'
p2
(dp3
S'back'
p4
(dp5
S'name'
p6
S'fj'
p7
sS'lib'
p8
(dp9
sS'unicodes'
p10
(tsS'width'
p11
I626
sS'contours'
p12
((dp13
S'points'
p14
((dp15
S'segmentType'
p16
S'line'
p17
sS'x'
F396
sS'smooth'
p18
I01
sS'y'
F-230
s(dp19
S'y'
F-229
sS'x'
F492
sg18
I00
s(dp20
S'y'
F-166
sS'x'
F564
sg18
I00
s(dp21
g16
S'curve'
p22
sS'x'
F564
sg18
I01
sS'y'
F-44
s(dp23
g16
S'line'
p24
sS'x'
F564
sg18
I00
sS'y'
F524
s(dp25
g16
S'line'
p26
sS'x'
F222
sg18
I00
sS'y'
F524
s(dp27
g16
S'line'
p28
sS'x'
F222
sg18
I01
sS'y'
F607
s(dp29
S'y'
F697
sS'x'
F222
sg18
I00
s(dp30
S'y'
F732
sS'x'
F262
sg18
I00
s(dp31
g16
S'curve'
p32
sS'x'
F319
sg18
I01
sS'y'
F732
s(dp33
S'y'
F732
sS'x'
F350
sg18
I00
s(dp34
S'y'
F717
sS'x'
F394
sg18
I00
s(dp35
g16
S'curve'
p36
sS'x'
F395
sg18
I00
sS'y'
F691
s(dp37
S'y'
F691
sS'x'
F368
sg18
I00
s(dp38
S'y'
F669
sS'x'
F332
sg18
I00
s(dp39
g16
S'curve'
p40
sS'x'
F332
sg18
I01
sS'y'
F632
s(dp41
S'y'
F593
sS'x'
F332
sg18
I00
s(dp42
S'y'
F566
sS'x'
F364
sg18
I00
s(dp43
g16
S'curve'
p44
sS'x'
F398
sg18
I01
sS'y'
F566
s(dp45
S'y'
F566
sS'x'
F438
sg18
I00
s(dp46
S'y'
F597
sS'x'
F471
sg18
I00
s(dp47
g16
S'curve'
p48
sS'x'
F471
sg18
I01
sS'y'
F650
s(dp49
S'y'
F700
sS'x'
F471
sg18
I00
s(dp50
S'y'
F773
sS'x'
F417
sg18
I00
s(dp51
g16
S'curve'
p52
sS'x'
F304
sg18
I01
sS'y'
F773
s(dp53
S'y'
F773
sS'x'
F167
sg18
I00
s(dp54
S'y'
F690
sS'x'
F120
sg18
I00
s(dp55
g16
S'curve'
p56
sS'x'
F120
sg18
I00
sS'y'
F524
s(dp57
g16
S'line'
p58
sS'x'
F25
sg18
I00
sS'y'
F524
s(dp59
g16
S'line'
p60
sS'x'
F25
sg18
I00
sS'y'
F469
s(dp61
g16
S'line'
p62
sS'x'
F120
sg18
I00
sS'y'
F469
s(dp63
g16
S'line'
p64
sS'x'
F120
sg18
I00
sS'y'
F57
s(dp65
g16
S'line'
p66
sS'x'
F25
sg18
I00
sS'y'
F57
s(dp67
g16
S'line'
p68
sS'x'
F25
sg18
I00
sS'y'
F0
s(dp69
g16
S'line'
p70
sS'x'
F340
sg18
I00
sS'y'
F0
s(dp71
g16
S'line'
p72
sS'x'
F340
sg18
I00
sS'y'
F57
s(dp73
g16
S'line'
p74
sS'x'
F225
sg18
I00
sS'y'
F57
s(dp75
g16
S'line'
p76
sS'x'
F225
sg18
I00
sS'y'
F469
s(dp77
g16
S'line'
p78
sS'x'
F459
sg18
I00
sS'y'
F469
s(dp79
g16
S'line'
p80
sS'x'
F459
sg18
I01
sS'y'
F-59
s(dp81
S'y'
F-159
sS'x'
F459
sg18
I00
s(dp82
S'y'
F-177
sS'x'
F413
sg18
I00
s(dp83
g16
S'curve'
p84
sS'x'
F379
sg18
I01
sS'y'
F-177
s(dp85
S'y'
F-177
sS'x'
F360
sg18
I00
s(dp86
S'y'
F-171
sS'x'
F344
sg18
I00
s(dp87
g16
S'curve'
p88
sS'x'
F344
sg18
I00
sS'y'
F-171
s(dp89
S'y'
F-161
sS'x'
F367
sg18
I00
s(dp90
S'y'
F-131
sS'x'
F372
sg18
I00
s(dp91
g16
S'curve'
p92
sS'x'
F372
sg18
I01
sS'y'
F-109
s(dp93
S'y'
F-73
sS'x'
F372
sg18
I00
s(dp94
S'y'
F-55
sS'x'
F344
sg18
I00
s(dp95
g16
S'curve'
p96
sS'x'
F315
sg18
I01
sS'y'
F-55
s(dp97
S'y'
F-55
sS'x'
F281
sg18
I00
s(dp98
S'y'
F-78
sS'x'
F244
sg18
I00
s(dp99
g16
S'curve'
p100
sS'x'
F244
sg18
I01
sS'y'
F-124
s(dp101
S'y'
F-189
sS'x'
F244
sg18
I00
s(dp102
S'y'
F-230
sS'x'
F294
sg18
I00
s(dp103
g16
S'curve'
p104
sS'x'
F392
sg18
I01
sS'y'
F-230
stp105
stp106
sS'components'
p107
(tsS'anchors'
p108
(tsss."
LayerCount: 2
Fore
SplineSet
378 -230 m 1
 474 -229 546 -166 546 -44 c 2
 546 524 l 1
 222 524 l 1
 222 577 l 2
 222 694 315 732 372 732 c 0
 403 732 457 717 458 691 c 1
 431 691 395 669 395 632 c 0
 395 593 427 566 461 566 c 0
 501 566 534 597 534 650 c 0
 534 700 470 773 357 773 c 0
 220 773 120 690 120 524 c 1
 25 524 l 1
 25 469 l 1
 120 469 l 1
 120 57 l 1
 25 57 l 1
 25 0 l 1
 340 0 l 1
 340 57 l 1
 225 57 l 1
 225 469 l 1
 441 469 l 1
 441 -59 l 2
 441 -159 395 -177 361 -177 c 0
 342 -177 326 -171 326 -171 c 1
 349 -161 354 -131 354 -109 c 0
 354 -73 326 -55 297 -55 c 0
 263 -55 226 -78 226 -124 c 0
 226 -189 276 -230 374 -230 c 2
 378 -230 l 1
EndSplineSet
EndChar

StartChar: fl
Encoding: 65544 -1 93
Width: 694
VWidth: 0
Flags: W
PickledData: "(dp1
S'com.typemytype.robofont.layerData'
p2
(dp3
S'back'
p4
(dp5
S'name'
p6
S'fl'
p7
sS'lib'
p8
(dp9
sS'unicodes'
p10
(tsS'width'
p11
I694
sS'contours'
p12
(tsS'components'
p13
(tsS'anchors'
p14
(tsss."
LayerCount: 2
Fore
SplineSet
317 57 m 1
 236 57 l 1
 236 469 l 1
 395 469 l 1
 395 524 l 1
 233 524 l 1
 233 607 l 2
 233 697 293 727 350 727 c 0
 391 727 455 718 464 685 c 1
 464 57 l 1
 379 57 l 1
 379 0 l 1
 674 0 l 1
 674 57 l 1
 569 57 l 1
 569 686 l 2
 569 736 448 773 335 773 c 0
 198 773 131 690 131 524 c 1
 36 524 l 1
 36 469 l 1
 131 469 l 1
 131 57 l 1
 36 57 l 1
 36 0 l 1
 317 0 l 1
 317 57 l 1
185 0 m 0
350 524 m 0
185 524 m 0
EndSplineSet
EndChar

StartChar: four
Encoding: 52 52 94
Width: 537
VWidth: 0
Flags: W
PickledData: "(dp1
S'com.typemytype.robofont.layerData'
p2
(dp3
S'back'
p4
(dp5
S'name'
p6
S'four'
p7
sS'lib'
p8
(dp9
sS'unicodes'
p10
(tsS'width'
p11
I537
sS'contours'
p12
(tsS'components'
p13
(tsS'anchors'
p14
(tsss."
LayerCount: 2
Fore
SplineSet
528 -122 m 1
 419 -122 l 1
 419 17 l 1
 540 17 l 1
 549 90 l 1
 419 90 l 1
 419 524 l 1
 296 524 l 1
 27 83 l 1
 39 17 l 1
 314 17 l 1
 314 -122 l 1
 197 -122 l 1
 197 -189 l 1
 528 -189 l 1
 528 -122 l 1
314 90 m 1
 117 90 l 1
 314 444 l 1
 314 90 l 1
361 722 m 0
531 10 m 0
EndSplineSet
EndChar

StartChar: g
Encoding: 103 103 95
Width: 585
VWidth: 0
Flags: W
PickledData: "(dp1
S'com.typemytype.robofont.layerData'
p2
(dp3
S'back'
p4
(dp5
S'name'
p6
S'g'
sS'lib'
p7
(dp8
sS'unicodes'
p9
(tsS'width'
p10
F585.25080000000003
sS'contours'
p11
(tsS'components'
p12
(tsS'anchors'
p13
(tsss."
LayerCount: 2
Fore
SplineSet
273.2508 47 m 0
 179.2508 47 147.2508 162 147.2508 269 c 0
 147.2508 373 191.2508 473 275.2508 473 c 0
 356.2508 473 405.2508 382 405.2508 250 c 0
 405.2508 150 364.2508 47 273.2508 47 c 0
168.2508 -47 m 0
 127.5308 -47 86.1275 -76.8302 86.1275 -131.209 c 0
 86.1275 -212.918 178.2098 -258 271.2508 -258 c 0
 446.2508 -258 510.2508 -122 510.2508 25 c 2
 510.2508 466 l 1
 580.2508 466 l 1
 580.2508 524 l 1
 417.2508 524 l 1
 405.2508 440 l 1
 383.2508 511 308.2508 538 255.2508 538 c 0
 112.2388 538 40 398.352 40 259.663 c 0
 40 122.865 110.2818 -13 252.2508 -13 c 0
 254.3438 -13.0573 256.4158 -13.0859 258.4698 -13.0859 c 0
 328.0448 -13.0859 375.1398 19.7199 405.2508 78 c 1
 405.2508 11 l 2
 405.2508 -124 364.2508 -203 259.2508 -203 c 0
 225.2508 -203 197.2508 -195 173.2508 -175 c 1
 197.2508 -173 234.2508 -157 234.2508 -115 c 0
 234.2508 -74 203.2508 -47 168.2508 -47 c 0
298.2508 524 m 0
EndSplineSet
EndChar

StartChar: germandbls
Encoding: 223 223 96
Width: 642
VWidth: 0
Flags: W
PickledData: "(dp1
S'com.typemytype.robofont.layerData'
p2
(dp3
S'back'
p4
(dp5
S'name'
p6
S'germandbls'
p7
sS'lib'
p8
(dp9
sS'unicodes'
p10
(tsS'width'
p11
F642
sS'contours'
p12
((dp13
S'points'
p14
((dp15
S'segmentType'
p16
S'line'
p17
sS'x'
F210
sS'smooth'
p18
I00
sS'y'
F750
s(dp19
g16
S'line'
p20
sS'x'
F210
sg18
I00
sS'y'
F57
s(dp21
g16
S'line'
p22
sS'x'
F315
sg18
I00
sS'y'
F57
s(dp23
g16
S'line'
p24
sS'x'
F315
sg18
I00
sS'y'
F0
s(dp25
g16
S'line'
p26
sS'x'
F-4
sg18
I00
sS'y'
F0
s(dp27
g16
S'line'
p28
sS'x'
F-4
sg18
I00
sS'y'
F57
s(dp29
g16
S'line'
p30
sS'x'
F105
sg18
I00
sS'y'
F57
s(dp31
g16
S'line'
p32
sS'x'
F105
sg18
I00
sS'y'
F690
s(dp33
g16
S'line'
p34
sS'x'
F-4
sg18
I00
sS'y'
F690
s(dp35
g16
S'line'
p36
sS'x'
F-4
sg18
I00
sS'y'
F750
stp37
stp38
sS'components'
p39
(tsS'anchors'
p40
((dp41
S'y'
F524
sS'x'
F311
sg6
S'topright'
p42
s(dp43
S'y'
F0
sS'x'
F146
sg6
S'bottom'
p44
s(dp45
S'y'
F524
sS'x'
F146
sg6
S'top'
p46
stp47
sss."
LayerCount: 2
Fore
SplineSet
210 479 m 2
 210 592 248 661 332 661 c 0
 394 661 435 625 435 561 c 0
 435 480 310 454 306 376 c 0
 306 375 306 375 306 374 c 0
 306 296 498 299 501 173 c 0
 501 172 501 171 501 170 c 0
 501 95 433 58 274 58 c 1
 274 0 l 1
 395 0 606 12 606 171 c 0
 606 323 400 347 400 376 c 0
 400 395 525 436 525 552 c 0
 525 675 442 727 328 727 c 0
 186 727 105 643 105 479 c 2
 105 58 l 1
 33 58 l 1
 33 0 l 1
 210 0 l 1
 210 479 l 2
EndSplineSet
EndChar

StartChar: grave
Encoding: 96 96 97
Width: 620
VWidth: 0
Flags: W
PickledData: "(dp1
S'anchors'
p2
(tsS'unicodes'
p3
(tsS'width'
p4
I620
sS'contours'
p5
(tsS'components'
p6
(tsS'name'
p7
S'grave'
p8
s."
LayerCount: 2
Fore
SplineSet
193 712 m 1
 242 662 460 583 460 583 c 1
 474 602 l 1
 385 678 242 780 242 780 c 1
 193 712 l 1
EndSplineSet
EndChar

StartChar: greater
Encoding: 62 62 98
Width: 450
VWidth: 0
Flags: W
PickledData: "(dp1
S'com.typemytype.robofont.layerData'
p2
(dp3
S'back'
p4
(dp5
S'name'
p6
S'greater'
p7
sS'lib'
p8
(dp9
sS'unicodes'
p10
(tsS'width'
p11
I450
sS'contours'
p12
(tsS'components'
p13
(tsS'anchors'
p14
(tsss."
LayerCount: 2
Fore
SplineSet
435 391 m 1
 44 564 l 1
 44 483 l 1
 359 347 l 1
 44 219 l 1
 44 136 l 1
 435 295 l 1
 435 391 l 1
EndSplineSet
EndChar

StartChar: guillemotleft
Encoding: 171 171 99
Width: 467
VWidth: 0
Flags: W
PickledData: "(dp1
S'com.typemytype.robofont.layerData'
p2
(dp3
S'back'
p4
(dp5
S'name'
p6
S'guillemotleft'
p7
sS'lib'
p8
(dp9
sS'unicodes'
p10
(tsS'width'
p11
I467
sS'contours'
p12
(tsS'components'
p13
(tsS'anchors'
p14
(tsss."
LayerCount: 2
Fore
SplineSet
50 126 m 1
 239 291 l 1
 239 357 l 1
 239 357 92 482 50 518 c 1
 50 413 l 1
 167 328 l 1
 50 237 l 1
 50 126 l 1
254 126 m 1
 443 291 l 1
 443 357 l 1
 443 357 296 482 254 518 c 1
 254 413 l 1
 371 328 l 1
 254 237 l 1
 254 126 l 1
EndSplineSet
EndChar

StartChar: guillemotright
Encoding: 187 187 100
Width: 467
VWidth: 0
Flags: W
PickledData: "(dp1
S'com.typemytype.robofont.layerData'
p2
(dp3
S'back'
p4
(dp5
S'name'
p6
S'guillemotright'
p7
sS'lib'
p8
(dp9
sS'unicodes'
p10
(tsS'width'
p11
I467
sS'contours'
p12
(tsS'components'
p13
(tsS'anchors'
p14
(tsss."
LayerCount: 2
Fore
SplineSet
50 126 m 1
 239 291 l 1
 239 357 l 1
 239 357 92 482 50 518 c 1
 50 413 l 1
 167 328 l 1
 50 237 l 1
 50 126 l 1
254 126 m 1
 443 291 l 1
 443 357 l 1
 443 357 296 482 254 518 c 1
 254 413 l 1
 371 328 l 1
 254 237 l 1
 254 126 l 1
EndSplineSet
EndChar

StartChar: guilsinglleft
Encoding: 8249 8249 101
Width: 266
VWidth: 0
Flags: W
PickledData: "(dp1
S'com.typemytype.robofont.layerData'
p2
(dp3
S'back'
p4
(dp5
S'name'
p6
S'guilsinglleft'
p7
sS'lib'
p8
(dp9
sS'unicodes'
p10
(tsS'width'
p11
F266
sS'contours'
p12
(tsS'components'
p13
(tsS'anchors'
p14
(tsss."
LayerCount: 2
Fore
SplineSet
50 126 m 1
 239 291 l 1
 239 357 l 1
 239 357 92 482 50 518 c 1
 50 413 l 1
 167 328 l 1
 50 237 l 1
 50 126 l 1
EndSplineSet
EndChar

StartChar: guilsinglright
Encoding: 8250 8250 102
Width: 263
VWidth: 0
Flags: W
PickledData: "(dp1
S'com.typemytype.robofont.layerData'
p2
(dp3
S'back'
p4
(dp5
S'name'
p6
S'guilsinglright'
p7
sS'lib'
p8
(dp9
sS'unicodes'
p10
(tsS'width'
p11
F263
sS'contours'
p12
(tsS'components'
p13
(tsS'anchors'
p14
(tsss."
LayerCount: 2
Fore
SplineSet
50 126 m 1
 239 291 l 1
 239 357 l 1
 239 357 92 482 50 518 c 1
 50 413 l 1
 167 328 l 1
 50 237 l 1
 50 126 l 1
EndSplineSet
EndChar

StartChar: h
Encoding: 104 104 103
Width: 662
VWidth: 0
Flags: W
PickledData: "(dp1
S'com.typemytype.robofont.layerData'
p2
(dp3
S'back'
p4
(dp5
S'name'
p6
S'h'
sS'lib'
p7
(dp8
sS'unicodes'
p9
(tsS'width'
p10
I662
sS'contours'
p11
((dp12
S'points'
p13
((dp14
S'segmentType'
p15
S'line'
p16
sS'x'
F209
sS'smooth'
p17
I00
sS'y'
F750
s(dp18
g15
S'line'
p19
sS'x'
F209
sg17
I00
sS'y'
F57
s(dp20
g15
S'line'
p21
sS'x'
F314
sg17
I00
sS'y'
F57
s(dp22
g15
S'line'
p23
sS'x'
F314
sg17
I00
sS'y'
F0
s(dp24
g15
S'line'
p25
sS'x'
F-5
sg17
I00
sS'y'
F0
s(dp26
g15
S'line'
p27
sS'x'
F-5
sg17
I00
sS'y'
F57
s(dp28
g15
S'line'
p29
sS'x'
F104
sg17
I00
sS'y'
F57
s(dp30
g15
S'line'
p31
sS'x'
F104
sg17
I00
sS'y'
F690
s(dp32
g15
S'line'
p33
sS'x'
F-5
sg17
I00
sS'y'
F690
s(dp34
g15
S'line'
p35
sS'x'
F-5
sg17
I00
sS'y'
F750
stp36
stp37
sS'components'
p38
(tsS'anchors'
p39
((dp40
S'y'
F524
sS'x'
F173
sg6
S'top'
p41
s(dp42
S'y'
F0
sS'x'
F173
sg6
S'bottom'
p43
s(dp44
S'y'
F524
sS'x'
F338
sg6
S'topright'
p45
stp46
sss."
LayerCount: 2
Fore
SplineSet
550 353 m 2
 550 521 444 538 388 538 c 0
 330 538 256 511 217 431 c 1
 217 735 l 1
 16 735 l 1
 16 675 l 1
 112 675 l 1
 112 57 l 1
 22 57 l 1
 22 0 l 1
 312 0 l 1
 312 57 l 1
 217 57 l 1
 217 292 l 2
 217 391.848 300.946 468.975 366.964 468.975 c 0
 409.747 468.975 445 436.585 445 357 c 2
 445 57 l 1
 350 57 l 1
 350 0 l 1
 655 0 l 1
 655 57 l 1
 550 57 l 1
 550 353 l 2
316 524 m 0
316 262 m 0
EndSplineSet
EndChar

StartChar: hungarumlaut
Encoding: 733 733 104
Width: 620
VWidth: 0
Flags: W
PickledData: "(dp1
S'com.typemytype.robofont.layerData'
p2
(dp3
S'back'
p4
(dp5
S'name'
p6
S'hungarumlaut'
p7
sS'lib'
p8
(dp9
sS'unicodes'
p10
(tsS'width'
p11
I620
sS'contours'
p12
(tsS'components'
p13
(tsS'anchors'
p14
(tsss."
LayerCount: 2
Fore
SplineSet
644 732 m 1
 595 682 397 583 397 583 c 1
 383 602 l 1
 472 678 595 800 595 800 c 1
 644 732 l 1
454 732 m 1
 405 682 207 583 207 583 c 1
 193 602 l 1
 282 678 405 800 405 800 c 1
 454 732 l 1
348 524 m 0
335.5 524 m 0
EndSplineSet
EndChar

StartChar: hyphen
Encoding: 45 45 105
Width: 406
VWidth: 0
Flags: W
PickledData: "(dp1
S'com.typemytype.robofont.layerData'
p2
(dp3
S'back'
p4
(dp5
S'name'
p6
S'hyphen'
p7
sS'lib'
p8
(dp9
sS'unicodes'
p10
(tsS'width'
p11
F406
sS'contours'
p12
(tsS'components'
p13
(tsS'anchors'
p14
(tsss."
LayerCount: 2
Fore
SplineSet
345 267 m 1
 345 334 l 1
 61 334 l 1
 61 267 l 1
 345 267 l 1
EndSplineSet
EndChar

StartChar: i
Encoding: 105 105 106
Width: 325
VWidth: 0
Flags: W
PickledData: "(dp1
S'com.typemytype.robofont.layerData'
p2
(dp3
S'back'
p4
(dp5
S'name'
p6
S'i'
sS'lib'
p7
(dp8
sS'unicodes'
p9
(tsS'width'
p10
I325
sS'contours'
p11
(tsS'components'
p12
(tsS'anchors'
p13
(tsss."
LayerCount: 2
Fore
SplineSet
226 524 m 1
 226 57 l 1
 322 57 l 1
 322 0 l 1
 27 0 l 1
 27 57 l 1
 121 57 l 1
 121 469 l 1
 26 469 l 1
 26 524 l 1
 226 524 l 1
92 688 m 0
 92 728 124 761 164 761 c 0
 203 761 237 728 237 688 c 0
 237 649 203 616 164 616 c 0
 124 616 92 649 92 688 c 0
EndSplineSet
EndChar

StartChar: j
Encoding: 106 106 107
Width: 325
VWidth: 0
Flags: W
PickledData: "(dp1
S'com.typemytype.robofont.layerData'
p2
(dp3
S'back'
p4
(dp5
S'name'
p6
S'j'
sS'lib'
p7
(dp8
sS'unicodes'
p9
(tsS'width'
p10
I325
sS'contours'
p11
(tsS'components'
p12
(tsS'anchors'
p13
(tsss."
LayerCount: 2
Fore
SplineSet
111 688 m 0
 111 728 143 761 183 761 c 0
 222 761 256 728 256 688 c 0
 256 649 222 616 183 616 c 0
 143 616 111 649 111 688 c 0
78 -230 m 2
 82 -230 l 1
 178 -229 250 -166 250 -44 c 2
 250 524 l 1
 26 524 l 1
 26 467 l 1
 145 467 l 1
 145 -59 l 2
 145 -159 99 -177 65 -177 c 0
 46 -177 30 -171 30 -171 c 1
 53 -161 58 -131 58 -109 c 0
 58 -73 30 -55 1 -55 c 0
 -33 -55 -70 -78 -70 -124 c 0
 -70 -189 -20 -230 78 -230 c 2
EndSplineSet
EndChar

StartChar: k
Encoding: 107 107 108
Width: 646
VWidth: 0
Flags: W
PickledData: "(dp1
S'com.typemytype.robofont.layerData'
p2
(dp3
S'back'
p4
(dp5
S'name'
p6
S'k'
sS'lib'
p7
(dp8
sS'unicodes'
p9
(tsS'width'
p10
I646
sS'contours'
p11
((dp12
S'points'
p13
((dp14
S'y'
F-228
sS'x'
F260
sS'smooth'
p15
I00
s(dp16
S'y'
F-175
sS'x'
F320
sg15
I00
s(dp17
S'segmentType'
p18
S'curve'
p19
sS'x'
F380
sg15
I00
sS'y'
F-2
s(dp20
g18
S'line'
p21
sS'x'
F548
sg15
I00
sS'y'
F467
s(dp22
g18
S'line'
p23
sS'x'
F632
sg15
I00
sS'y'
F467
s(dp24
g18
S'line'
p25
sS'x'
F632
sg15
I00
sS'y'
F524
s(dp26
g18
S'line'
p27
sS'x'
F381
sg15
I00
sS'y'
F524
s(dp28
g18
S'line'
p29
sS'x'
F381
sg15
I00
sS'y'
F467
s(dp30
g18
S'line'
p31
sS'x'
F462
sg15
I00
sS'y'
F467
s(dp32
g18
S'line'
p33
sS'x'
F341
sg15
I00
sS'y'
F86
s(dp34
g18
S'line'
p35
sS'x'
F199
sg15
I00
sS'y'
F467
s(dp36
g18
S'line'
p37
sS'x'
F288
sg15
I00
sS'y'
F467
s(dp38
g18
S'line'
p39
sS'x'
F288
sg15
I00
sS'y'
F524
s(dp40
g18
S'line'
p41
sS'x'
F-13
sg15
I00
sS'y'
F524
s(dp42
g18
S'line'
p43
sS'x'
F-13
sg15
I00
sS'y'
F467
s(dp44
g18
S'line'
p45
sS'x'
F84
sg15
I00
sS'y'
F467
s(dp46
g18
S'line'
p47
sS'x'
F274
sg15
I00
sS'y'
F-8
s(dp48
S'y'
F-88
sS'x'
F263
sg15
I00
s(dp49
S'y'
F-177
sS'x'
F226
sg15
I00
s(dp50
g18
S'curve'
p51
sS'x'
F169
sg15
I01
sS'y'
F-177
s(dp52
S'y'
F-177
sS'x'
F133
sg15
I00
s(dp53
S'y'
F-171
sS'x'
F120
sg15
I00
s(dp54
g18
S'curve'
p55
sS'x'
F104
sg15
I00
sS'y'
F-155
s(dp56
S'y'
F-155
sS'x'
F130
sg15
I00
s(dp57
S'y'
F-136
sS'x'
F168
sg15
I00
s(dp58
g18
S'curve'
p59
sS'x'
F168
sg15
I01
sS'y'
F-92
s(dp60
S'y'
F-56
sS'x'
F168
sg15
I00
s(dp61
S'y'
F-23
sS'x'
F147
sg15
I00
s(dp62
g18
S'curve'
p63
sS'x'
F104
sg15
I01
sS'y'
F-23
s(dp64
S'y'
F-23
sS'x'
F51
sg15
I00
s(dp65
S'y'
F-64
sS'x'
F20
sg15
I00
s(dp66
g18
S'curve'
p67
sS'x'
F20
sg15
I01
sS'y'
F-108
s(dp68
S'y'
F-172
sS'x'
F20
sg15
I00
s(dp69
S'y'
F-228
sS'x'
F86
sg15
I00
s(dp70
g18
S'curve'
p71
sS'x'
F176
sg15
I01
sS'y'
F-228
stp72
stp73
sS'components'
p74
(tsS'anchors'
p75
((dp76
S'y'
F524
sS'x'
F323
sg6
S'top'
p77
stp78
sss."
LayerCount: 2
Fore
SplineSet
369 307 m 1
 437 212 506 55 596 68 c 0
 608 70 621 70 636 77 c 1
 650 11 l 1
 615 -9 591 -10 563 -10 c 0
 490 -10 447 34 405 97 c 1
 307 266 l 1
 226 204 l 1
 226 57 l 1
 309 57 l 1
 309 0 l 1
 22 0 l 1
 22 57 l 1
 121 57 l 1
 121 675 l 1
 22 675 l 1
 22 735 l 1
 226 735 l 1
 226 279 l 1
 430 467 l 1
 338 467 l 1
 338 524 l 1
 631 524 l 1
 631 467 l 1
 538 467 l 1
 369 307 l 1
326 0 m 0
EndSplineSet
EndChar

StartChar: kgreenlandic
Encoding: 312 312 109
Width: 639
VWidth: 0
Flags: W
PickledData: "(dp1
S'com.typemytype.robofont.layerData'
p2
(dp3
S'back'
p4
(dp5
S'name'
p6
S'kgreenlandic'
p7
sS'lib'
p8
(dp9
sS'unicodes'
p10
(tsS'width'
p11
I639
sS'contours'
p12
(tsS'components'
p13
(tsS'anchors'
p14
(tsss."
LayerCount: 2
Fore
SplineSet
365 298 m 1
 433 203 506 55 596 68 c 0
 608 70 621 70 636 77 c 1
 650 11 l 1
 615 -9 591 -10 563 -10 c 0
 490 -10 447 34 405 97 c 1
 303 257 l 1
 226 192 l 1
 226 57 l 1
 309 57 l 1
 309 0 l 1
 22 0 l 1
 22 57 l 1
 121 57 l 1
 121 464 l 1
 22 464 l 1
 22 524 l 1
 226 524 l 1
 226 267 l 1
 438 467 l 1
 338 467 l 1
 338 524 l 1
 631 524 l 1
 631 467 l 1
 538 467 l 1
 365 298 l 1
326 0 m 0
EndSplineSet
EndChar

StartChar: l
Encoding: 108 108 110
Width: 353
VWidth: 0
Flags: W
PickledData: "(dp1
S'com.typemytype.robofont.layerData'
p2
(dp3
S'back'
p4
(dp5
S'name'
p6
S'l'
sS'lib'
p7
(dp8
sS'unicodes'
p9
(tsS'width'
p10
I353
sS'contours'
p11
(tsS'components'
p12
(tsS'anchors'
p13
(tsss."
LayerCount: 2
Fore
SplineSet
239 735 m 1
 239 57 l 1
 344 57 l 1
 344 0 l 1
 25 0 l 1
 25 57 l 1
 134 57 l 1
 134 675 l 1
 25 675 l 1
 25 735 l 1
 239 735 l 1
183 524 m 0
183 0 m 0
348 524 m 0
EndSplineSet
EndChar

StartChar: logicalnot
Encoding: 172 172 111
Width: 467
VWidth: 0
Flags: W
PickledData: "(dp1
S'com.typemytype.robofont.layerData'
p2
(dp3
S'back'
p4
(dp5
S'name'
p6
S'logicalnot'
p7
sS'lib'
p8
(dp9
sS'unicodes'
p10
(tsS'width'
p11
I467
sS'contours'
p12
(tsS'components'
p13
(tsS'anchors'
p14
(tsss."
LayerCount: 2
Fore
SplineSet
354 76 m 1
 437 76 l 1
 437 332 l 1
 30 332 l 1
 30 260 l 1
 354 260 l 1
 354 76 l 1
EndSplineSet
EndChar

StartChar: m
Encoding: 109 109 112
Width: 942
VWidth: 0
Flags: W
PickledData: "(dp1
S'com.typemytype.robofont.layerData'
p2
(dp3
S'back'
p4
(dp5
S'name'
p6
S'm'
sS'lib'
p7
(dp8
sS'unicodes'
p9
(tsS'width'
p10
I942
sS'contours'
p11
(tsS'components'
p12
(tsS'anchors'
p13
(tsss."
LayerCount: 2
Fore
SplineSet
308 58 m 1
 224 58 l 1
 224 286 l 2
 224 377 242 471 339 471 c 1
 394 470 432 435 432 347 c 2
 432 58 l 1
 348 58 l 1
 348 0 l 1
 621 0 l 1
 621 58 l 1
 537 58 l 1
 537 357 l 1
 547 420 576 471 647 471 c 1
 702 470 740 435 740 347 c 2
 740 58 l 1
 661 58 l 1
 661 0 l 1
 935 0 l 1
 935 58 l 1
 845 58 l 1
 845 348 l 2
 845 518 742 538 683 538 c 0
 623 538 561 511 527 434 c 1
 500 530 427 538 379 538 c 0
 318 538 255 510 221 432 c 1
 221 524 l 1
 24 524 l 1
 24 454 l 1
 119 454 l 1
 119 58 l 1
 24 58 l 1
 24 0 l 1
 308 0 l 1
 308 58 l 1
EndSplineSet
EndChar

StartChar: macron
Encoding: 175 175 113
Width: 406
VWidth: 0
Flags: W
PickledData: "(dp1
S'com.typemytype.robofont.layerData'
p2
(dp3
S'back'
p4
(dp5
S'name'
p6
S'macron'
p7
sS'lib'
p8
(dp9
sS'unicodes'
p10
(tsS'width'
p11
F406
sS'contours'
p12
(tsS'components'
p13
(tsS'anchors'
p14
(tsss."
LayerCount: 2
Fore
SplineSet
345 655 m 1
 345 722 l 1
 61 722 l 1
 61 655 l 1
 345 655 l 1
EndSplineSet
EndChar

StartChar: minus
Encoding: 8722 8722 114
Width: 406
VWidth: 0
Flags: W
PickledData: "(dp1
S'com.typemytype.robofont.layerData'
p2
(dp3
S'back'
p4
(dp5
S'name'
p6
S'minus'
p7
sS'lib'
p8
(dp9
sS'unicodes'
p10
(tsS'width'
p11
F406
sS'contours'
p12
(tsS'components'
p13
(tsS'anchors'
p14
(tsss."
LayerCount: 2
Fore
SplineSet
345 267 m 1
 345 347 l 1
 61 347 l 1
 61 267 l 1
 345 267 l 1
EndSplineSet
EndChar

StartChar: mu
Encoding: 956 956 115
Width: 668
VWidth: 0
Flags: W
PickledData: "(dp1
S'com.typemytype.robofont.layerData'
p2
(dp3
S'back'
p4
(dp5
S'name'
p6
S'mu'
p7
sS'lib'
p8
(dp9
sS'unicodes'
p10
(tsS'width'
p11
I668
sS'contours'
p12
(tsS'components'
p13
(tsS'anchors'
p14
(tsss."
LayerCount: 2
Fore
SplineSet
204 -164 m 0
 204 -131 164 -7 164 64 c 1
 183 -3 249 -14 272 -14 c 0
 333 -14 396 18 443 85 c 1
 443 -14 l 1
 640 0 l 1
 640 45 l 1
 545 55 l 1
 545 524 l 1
 351 524 l 1
 351 466 l 1
 440 466 l 1
 440 183 l 2
 440 122 356 57 295 57 c 0
 293 57 l 2
 236 57 208 91 208 177 c 2
 208 524 l 1
 3 524 l 1
 3 466 l 1
 103 466 l 1
 103 176 l 2
 103 -7 103 -125 103 -147 c 0
 103 -186 115 -219 155 -219 c 0
 185 -219 204 -194 204 -164 c 0
EndSplineSet
EndChar

StartChar: multiply
Encoding: 215 215 116
Width: 467
VWidth: 0
Flags: W
PickledData: "(dp1
S'com.typemytype.robofont.layerData'
p2
(dp3
S'back'
p4
(dp5
S'name'
p6
S'multiply'
p7
sS'lib'
p8
(dp9
sS'unicodes'
p10
(tsS'width'
p11
I467
sS'contours'
p12
(tsS'components'
p13
(tsS'anchors'
p14
(tsss."
LayerCount: 2
Fore
SplineSet
361 96 m 1
 53 405 l 1
 102 455 l 1
 411 147 l 1
 361 96 l 1
53 146 m 1
 361 454 l 1
 411 405 l 1
 103 97 l 1
 53 146 l 1
EndSplineSet
EndChar

StartChar: n
Encoding: 110 110 117
Width: 664
VWidth: 0
Flags: W
PickledData: "(dp1
S'com.typemytype.robofont.layerData'
p2
(dp3
S'back'
p4
(dp5
S'name'
p6
S'n'
sS'lib'
p7
(dp8
sS'unicodes'
p9
(tsS'width'
p10
I664
sS'contours'
p11
(tsS'components'
p12
(tsS'anchors'
p13
(tsss."
LayerCount: 2
Fore
SplineSet
313 0 m 1
 313 58 l 1
 224 58 l 1
 224 286 l 2
 224 377 262 471 359 471 c 1
 414 470 452 435 452 347 c 2
 452 58 l 1
 363 58 l 1
 363 0 l 1
 657 0 l 1
 657 58 l 1
 557 58 l 1
 557 348 l 2
 557 518 454 538 395 538 c 0
 334 538 255 504 221 426 c 1
 221 538 l 1
 24 524 l 1
 24 466 l 1
 119 466 l 1
 119 58 l 1
 24 58 l 1
 24 0 l 1
 313 0 l 1
332 524 m 0
332 0 m 0
EndSplineSet
EndChar

StartChar: nine
Encoding: 57 57 118
Width: 605
VWidth: 0
Flags: W
PickledData: "(dp1
S'com.typemytype.robofont.layerData'
p2
(dp3
S'back'
p4
(dp5
S'name'
p6
S'nine'
p7
sS'lib'
p8
(dp9
sS'unicodes'
p10
(tsS'width'
p11
I605
sS'contours'
p12
((dp13
S'points'
p14
((dp15
S'y'
F201.94500793590856
sS'x'
F440
sS'smooth'
p16
I00
s(dp17
S'y'
F185
sS'x'
F359.39301024442932
sg16
I00
s(dp18
S'segmentType'
p19
S'curve'
p20
sS'x'
F305
sg16
I01
sS'y'
F185
s(dp21
S'y'
F185
sS'x'
F211
sg16
I00
s(dp22
S'y'
F235
sS'x'
F158
sg16
I00
s(dp23
g19
S'curve'
p24
sS'x'
F158
sg16
I01
sS'y'
F333
s(dp25
S'y'
F418
sS'x'
F158
sg16
I00
s(dp26
S'y'
F478
sS'x'
F220
sg16
I00
s(dp27
g19
S'curve'
p28
sS'x'
F294
sg16
I01
sS'y'
F478
s(dp29
g19
S'line'
p30
sS'x'
F305
sg16
I00
sS'y'
F478
s(dp31
S'y'
F455
sS'x'
F415
sg16
I00
s(dp32
S'y'
F360
sS'x'
F440
sg16
I00
s(dp33
g19
S'curve'
p34
sS'x'
F440
sg16
I01
sS'y'
F277
stp35
s(dp36
g14
((dp37
S'y'
F-117
sS'x'
F101
sg16
I00
s(dp38
S'y'
F-150
sS'x'
F159
sg16
I00
s(dp39
g19
S'curve'
p40
sS'x'
F232
sg16
I01
sS'y'
F-150
s(dp41
S'y'
F-150
sS'x'
F374
sg16
I00
s(dp42
S'y'
F-42
sS'x'
F540
sg16
I00
s(dp43
g19
S'curve'
p44
sS'x'
F540
sg16
I01
sS'y'
F230
s(dp45
S'y'
F235
sS'x'
F540
sg16
I00
s(dp46
S'y'
F240
sS'x'
F540
sg16
I00
s(dp47
g19
S'curve'
p48
sS'x'
F540
sg16
I01
sS'y'
F245
s(dp49
S'y'
F441
sS'x'
F536
sg16
I00
s(dp50
S'y'
F533
sS'x'
F435
sg16
I00
s(dp51
g19
S'curve'
p52
sS'x'
F309
sg16
I01
sS'y'
F539
s(dp53
g19
S'line'
p54
sS'x'
F294
sg16
I00
sS'y'
F539
s(dp55
S'y'
F539
sS'x'
F162
sg16
I00
s(dp56
S'y'
F448
sS'x'
F59
sg16
I00
s(dp57
g19
S'curve'
p58
sS'x'
F59
sg16
I01
sS'y'
F329
s(dp59
S'y'
F174
sS'x'
F59
sg16
I00
s(dp60
S'y'
F121
sS'x'
F170
sg16
I00
s(dp61
g19
S'curve'
p62
sS'x'
F282
sg16
I01
sS'y'
F121
s(dp63
S'y'
F121
sS'x'
F335
sg16
I00
s(dp64
S'y'
F133
sS'x'
F388
sg16
I00
s(dp65
g19
S'curve'
p66
sS'x'
F430
sg16
I00
sS'y'
F151
s(dp67
S'y'
F30
sS'x'
F413
sg16
I00
s(dp68
S'y'
F-90
sS'x'
F351
sg16
I00
s(dp69
g19
S'curve'
p70
sS'x'
F226
sg16
I00
sS'y'
F-99
s(dp71
S'y'
F-91
sS'x'
F227
sg16
I00
s(dp72
S'y'
F-78
sS'x'
F231
sg16
I00
s(dp73
g19
S'curve'
p74
sS'x'
F231
sg16
I01
sS'y'
F-58
s(dp75
S'y'
F-27
sS'x'
F231
sg16
I00
s(dp76
S'y'
F1
sS'x'
F199
sg16
I00
s(dp77
g19
S'curve'
p78
sS'x'
F167
sg16
I01
sS'y'
F1
s(dp79
S'y'
F1
sS'x'
F127
sg16
I00
s(dp80
S'y'
F-24
sS'x'
F101
sg16
I00
s(dp81
g19
S'curve'
p82
sS'x'
F101
sg16
I01
sS'y'
F-68
stp83
stp84
sS'components'
p85
(tsS'anchors'
p86
((dp87
S'y'
F740
sS'x'
F348
sg6
S'top'
p88
stp89
sss."
LayerCount: 2
Fore
SplineSet
305 185 m 0
 211 185 158 235 158 333 c 0
 158 418 220 478 294 478 c 0
 415 478 444 355 444 275 c 0
 444 216 359 185 305 185 c 0
232 -138 m 0
 374 -138 540 -42 540 230 c 2
 540 245 l 1
 536 441 435 533 309 539 c 1
 294 539 l 2
 162 539 59 448 59 329 c 0
 59 174 180 121 292 121 c 0
 345 121 411 138 447 178 c 1
 430 57 351 -78 226 -87 c 1
 227 -79 231 -66 231 -46 c 0
 231 -15 199 13 167 13 c 0
 127 13 101 -12 101 -56 c 0
 101 -105 159 -138 232 -138 c 0
348 740 m 0
EndSplineSet
EndChar

StartChar: numbersign
Encoding: 35 35 120
Width: 582
VWidth: 0
Flags: W
PickledData: "(dp1
S'com.typemytype.robofont.layerData'
p2
(dp3
S'back'
p4
(dp5
S'name'
p6
S'numbersign'
p7
sS'lib'
p8
(dp9
sS'unicodes'
p10
(tsS'width'
p11
I582
sS'contours'
p12
(tsS'components'
p13
(tsS'anchors'
p14
(tsss."
LayerCount: 2
Fore
SplineSet
14 315 m 1
 545 315 l 1
 545 282 l 1
 14 282 l 1
 14 315 l 1
569 762 m 1
 289 -83 l 1
 231 -65 l 1
 511 780 l 1
 569 762 l 1
288 780 m 1
 346 762 l 1
 66 -83 l 1
 8 -65 l 1
 288 780 l 1
73 524 m 1
 604 524 l 1
 604 491 l 1
 73 491 l 1
 73 524 l 1
EndSplineSet
EndChar

StartChar: o
Encoding: 111 111 121
Width: 581
VWidth: 0
Flags: W
PickledData: "(dp1
S'com.typemytype.robofont.layerData'
p2
(dp3
S'back'
p4
(dp5
S'name'
p6
S'o'
sS'lib'
p7
(dp8
sS'unicodes'
p9
(tsS'width'
p10
I581
sS'contours'
p11
(tsS'components'
p12
(tsS'anchors'
p13
(tsss."
LayerCount: 2
Fore
SplineSet
292 -13 m 0
 132 -13 36 106 36 262 c 0
 36 418 131 538 291 538 c 0
 451 538 545 418 545 262 c 0
 545 108 451 -13 292 -13 c 0
291 480 m 0
 191 480 148 383 148 256 c 0
 148 132 202 49 292 49 c 0
 381 49 433 134 433 256 c 0
 433 383 391 480 291 480 c 0
291 524 m 0
EndSplineSet
EndChar

StartChar: ogonek
Encoding: 731 731 122
Width: 165
VWidth: 0
Flags: W
PickledData: "(dp1
S'com.typemytype.robofont.layerData'
p2
(dp3
S'back'
p4
(dp5
S'name'
p6
S'ogonek'
p7
sS'lib'
p8
(dp9
sS'unicodes'
p10
(tsS'width'
p11
I165
sS'contours'
p12
(tsS'components'
p13
(tsS'anchors'
p14
(tsss."
LayerCount: 2
Fore
SplineSet
8 -85 m 0
 8 -136 62 -188 149 -188 c 1
 162 -120 l 1
 99 -111 86 -86 86 -60 c 0
 86 -34.920127592 108.667220415 -9.77990032535 163 0 c 1
 163 15 l 1
 94 15 8 -15 8 -85 c 0
90 -182 m 0
EndSplineSet
EndChar

StartChar: one
Encoding: 49 49 123
Width: 401
VWidth: 0
Flags: W
PickledData: "(dp1
S'com.typemytype.robofont.layerData'
p2
(dp3
S'back'
p4
(dp5
S'name'
p6
S'one'
p7
sS'lib'
p8
(dp9
sS'unicodes'
p10
(tsS'width'
p11
F401
sS'contours'
p12
((dp13
S'points'
p14
((dp15
S'segmentType'
p16
S'line'
p17
sS'x'
F319
sS'smooth'
p18
I00
sS'y'
F0
s(dp19
g16
S'line'
p20
sS'x'
F319
sg18
I00
sS'y'
F58
s(dp21
g16
S'line'
p22
sS'x'
F230
sg18
I00
sS'y'
F58
s(dp23
g16
S'line'
p24
sS'x'
F230
sg18
I01
sS'y'
F286
s(dp25
S'y'
F377
sS'x'
F230
sg18
I00
s(dp26
S'y'
F471
sS'x'
F268
sg18
I00
s(dp27
g16
S'curve'
p28
sS'x'
F365
sg18
I00
sS'y'
F471
s(dp29
S'y'
F470
sS'x'
F420
sg18
I00
s(dp30
S'y'
F435
sS'x'
F458
sg18
I00
s(dp31
g16
S'curve'
p32
sS'x'
F458
sg18
I01
sS'y'
F347
s(dp33
g16
S'line'
p34
sS'x'
F458
sg18
I00
sS'y'
F58
s(dp35
g16
S'line'
p36
sS'x'
F369
sg18
I00
sS'y'
F58
s(dp37
g16
S'line'
p38
sS'x'
F369
sg18
I00
sS'y'
F0
s(dp39
g16
S'line'
p40
sS'x'
F663
sg18
I00
sS'y'
F0
s(dp41
g16
S'line'
p42
sS'x'
F663
sg18
I00
sS'y'
F58
s(dp43
g16
S'line'
p44
sS'x'
F563
sg18
I00
sS'y'
F58
s(dp45
g16
S'line'
p46
sS'x'
F563
sg18
I01
sS'y'
F348
s(dp47
S'y'
F518
sS'x'
F563
sg18
I00
s(dp48
S'y'
F538
sS'x'
F460
sg18
I00
s(dp49
g16
S'curve'
p50
sS'x'
F401
sg18
I01
sS'y'
F538
s(dp51
S'y'
F538
sS'x'
F340
sg18
I00
s(dp52
S'y'
F504
sS'x'
F261
sg18
I00
s(dp53
g16
S'curve'
p54
sS'x'
F227
sg18
I00
sS'y'
F426
s(dp55
g16
S'line'
p56
sS'x'
F227
sg18
I00
sS'y'
F538
s(dp57
g16
S'line'
p58
sS'x'
F30
sg18
I00
sS'y'
F524
s(dp59
g16
S'line'
p60
sS'x'
F30
sg18
I00
sS'y'
F469
s(dp61
g16
S'line'
p62
sS'x'
F125
sg18
I00
sS'y'
F469
s(dp63
g16
S'line'
p64
sS'x'
F125
sg18
I00
sS'y'
F58
s(dp65
g16
S'line'
p66
sS'x'
F30
sg18
I00
sS'y'
F58
s(dp67
g16
S'line'
p68
sS'x'
F30
sg18
I00
sS'y'
F0
stp69
stp70
sS'components'
p71
(tsS'anchors'
p72
((dp73
S'y'
F0
sS'x'
F338
sg6
S'bottom'
p74
s(dp75
S'y'
F524
sS'x'
F338
sg6
S'top'
p76
stp77
sss."
LayerCount: 2
Fore
SplineSet
57 0 m 1
 393 0 l 1
 393 58 l 1
 281 58 l 1
 281 524 l 1
 221 524 l 1
 42 453 l 1
 72 390 l 1
 176 438 l 1
 176 58 l 1
 57 58 l 1
 57 0 l 1
223 722 m 0
393 10 m 0
EndSplineSet
EndChar

StartChar: onehalf
Encoding: 189 189 124
Width: 917
VWidth: 0
Flags: W
PickledData: "(dp1
S'com.typemytype.robofont.layerData'
p2
(dp3
S'back'
p4
(dp5
S'name'
p6
S'onehalf'
p7
sS'lib'
p8
(dp9
sS'unicodes'
p10
(tsS'width'
p11
I917
sS'contours'
p12
(tsS'components'
p13
(tsS'anchors'
p14
(tsss."
LayerCount: 2
Fore
SplineSet
680 172 m 1
 565 172 l 1
 680 340 l 1
 680 172 l 1
805 42 m 1
 741 42 l 1
 741 131 l 1
 805 131 l 1
 805 172 l 1
 741 172 l 1
 741 393 l 1
 664 393 l 1
 510 176 l 1
 510 131 l 1
 680 131 l 1
 680 42 l 1
 609 42 l 1
 609 0 l 1
 805 0 l 1
 805 42 l 1
127 366 m 1
 324 366 l 1
 324 408 l 1
 263 408 l 1
 263 762 l 1
 127 724 l 1
 127 672 l 1
 192 689 l 1
 192 408 l 1
 127 408 l 1
 127 366 l 1
688 722 m 1
 737 693 l 1
 217 -30 l 1
 168 -1 l 1
 688 722 l 1
552 10 m 0
382 722 m 0
378 10 m 0
208 722 m 0
235 529 m 0
EndSplineSet
EndChar

StartChar: onequarter
Encoding: 188 188 125
Width: 917
VWidth: 0
Flags: W
PickledData: "(dp1
S'com.typemytype.robofont.layerData'
p2
(dp3
S'back'
p4
(dp5
S'name'
p6
S'onequarter'
p7
sS'lib'
p8
(dp9
sS'unicodes'
p10
(tsS'width'
p11
I917
sS'contours'
p12
(tsS'components'
p13
(tsS'anchors'
p14
(tsss."
LayerCount: 2
Fore
SplineSet
680 172 m 1
 565 172 l 1
 680 340 l 1
 680 172 l 1
805 42 m 1
 741 42 l 1
 741 131 l 1
 805 131 l 1
 805 172 l 1
 741 172 l 1
 741 393 l 1
 664 393 l 1
 510 176 l 1
 510 131 l 1
 680 131 l 1
 680 42 l 1
 609 42 l 1
 609 0 l 1
 805 0 l 1
 805 42 l 1
127 366 m 1
 324 366 l 1
 324 408 l 1
 263 408 l 1
 263 762 l 1
 127 724 l 1
 127 672 l 1
 192 689 l 1
 192 408 l 1
 127 408 l 1
 127 366 l 1
688 722 m 1
 737 693 l 1
 217 -30 l 1
 168 -1 l 1
 688 722 l 1
552 10 m 0
382 722 m 0
378 10 m 0
208 722 m 0
235 529 m 0
EndSplineSet
EndChar

StartChar: ordfeminine
Encoding: 170 170 126
Width: 623
VWidth: 0
Flags: W
PickledData: "(dp1
S'com.typemytype.robofont.layerData'
p2
(dp3
S'back'
p4
(dp5
S'name'
p6
S'ordfeminine'
p7
sS'lib'
p8
(dp9
sS'unicodes'
p10
(tsS'width'
p11
I623
sS'contours'
p12
(tsS'components'
p13
(tsS'anchors'
p14
(tsss."
LayerCount: 2
Fore
SplineSet
574 404 m 2
 574 457 l 1
 528 457 l 1
 528 395 l 2
 528 351 515 321 475 321 c 0
 436 321 425 363 425 391 c 2
 425 583 l 2
 425 695 351 732 263 732 c 0
 142 732 85 657 85 614 c 0
 85 567 118 546 147 546 c 0
 178 546 206 569 206 605 c 0
 206 630 185 654 147 654 c 1
 167 676 206 689 245 689 c 0
 300 689 335 660 335 595 c 0
 335 488 70 504 70 365 c 0
 70 299 120 261 187 261 c 0
 255 262 317 306 342 366 c 1
 348 295 403 261 457 261 c 2
 457 261 458 261 459 261 c 0
 522 262 574 289 574 404 c 2
160 369 m 0
 160 441 251 434 335 516 c 1
 335 428 l 2
 335 381 266 322 209 322 c 0
 175 322 160 342 160 369 c 0
314 524 m 0
572 10 m 0
EndSplineSet
EndChar

StartChar: ordmasculine
Encoding: 186 186 127
Width: 581
VWidth: 0
Flags: W
PickledData: "(dp1
S'com.typemytype.robofont.layerData'
p2
(dp3
S'back'
p4
(dp5
S'name'
p6
S'ordmasculine'
p7
sS'lib'
p8
(dp9
sS'unicodes'
p10
(tsS'width'
p11
I581
sS'contours'
p12
((dp13
S'points'
p14
((dp15
S'y'
F262
sS'x'
F522
sS'smooth'
p16
I00
s(dp17
S'y'
F289
sS'x'
F574
sg16
I00
s(dp18
S'segmentType'
p19
S'curve'
p20
sS'x'
F574
sg16
I01
sS'y'
F404
s(dp21
g19
S'line'
p22
sS'x'
F574
sg16
I00
sS'y'
F457
s(dp23
g19
S'line'
p24
sS'x'
F528
sg16
I00
sS'y'
F457
s(dp25
g19
S'line'
p26
sS'x'
F528
sg16
I01
sS'y'
F395
s(dp27
S'y'
F351
sS'x'
F528
sg16
I00
s(dp28
S'y'
F321
sS'x'
F515
sg16
I00
s(dp29
g19
S'curve'
p30
sS'x'
F475
sg16
I01
sS'y'
F321
s(dp31
S'y'
F321
sS'x'
F436
sg16
I00
s(dp32
S'y'
F363
sS'x'
F425
sg16
I00
s(dp33
g19
S'curve'
p34
sS'x'
F425
sg16
I01
sS'y'
F391
s(dp35
g19
S'line'
p36
sS'x'
F425
sg16
I01
sS'y'
F583
s(dp37
S'y'
F695
sS'x'
F425
sg16
I00
s(dp38
S'y'
F732
sS'x'
F351
sg16
I00
s(dp39
g19
S'curve'
p40
sS'x'
F263
sg16
I01
sS'y'
F732
s(dp41
S'y'
F732
sS'x'
F142
sg16
I00
s(dp42
S'y'
F657
sS'x'
F85
sg16
I00
s(dp43
g19
S'curve'
p44
sS'x'
F85
sg16
I01
sS'y'
F614
s(dp45
S'y'
F567
sS'x'
F85
sg16
I00
s(dp46
S'y'
F546
sS'x'
F118
sg16
I00
s(dp47
g19
S'curve'
p48
sS'x'
F147
sg16
I01
sS'y'
F546
s(dp49
S'y'
F546
sS'x'
F178
sg16
I00
s(dp50
S'y'
F569
sS'x'
F206
sg16
I00
s(dp51
g19
S'curve'
p52
sS'x'
F206
sg16
I01
sS'y'
F605
s(dp53
S'y'
F630
sS'x'
F206
sg16
I00
s(dp54
S'y'
F654
sS'x'
F185
sg16
I00
s(dp55
g19
S'curve'
p56
sS'x'
F147
sg16
I00
sS'y'
F654
s(dp57
S'y'
F676
sS'x'
F167
sg16
I00
s(dp58
S'y'
F689
sS'x'
F206
sg16
I00
s(dp59
g19
S'curve'
p60
sS'x'
F245
sg16
I01
sS'y'
F689
s(dp61
S'y'
F689
sS'x'
F300
sg16
I00
s(dp62
S'y'
F660
sS'x'
F335
sg16
I00
s(dp63
g19
S'curve'
p64
sS'x'
F335
sg16
I01
sS'y'
F595
s(dp65
S'y'
F488
sS'x'
F335
sg16
I00
s(dp66
S'y'
F504
sS'x'
F70
sg16
I00
s(dp67
g19
S'curve'
p68
sS'x'
F70
sg16
I01
sS'y'
F365
s(dp69
S'y'
F299
sS'x'
F70
sg16
I00
s(dp70
S'y'
F261
sS'x'
F120
sg16
I00
s(dp71
g19
S'curve'
p72
sS'x'
F187
sg16
I01
sS'y'
F261
s(dp73
S'y'
F262
sS'x'
F255
sg16
I00
s(dp74
S'y'
F306
sS'x'
F317
sg16
I00
s(dp75
g19
S'curve'
p76
sS'x'
F342
sg16
I00
sS'y'
F366
s(dp77
S'y'
F295
sS'x'
F348
sg16
I00
s(dp78
S'y'
F261
sS'x'
F403
sg16
I00
s(dp79
g19
S'curve'
p80
sS'x'
F457
sg16
I01
sS'y'
F261
s(dp81
S'y'
F261
sS'x'
F457
sg16
I00
s(dp82
S'y'
F261
sS'x'
F458
sg16
I00
s(dp83
g19
S'curve'
p84
sS'x'
F459
sg16
I01
sS'y'
F261
stp85
s(dp86
g14
((dp87
S'y'
F322
sS'x'
F175
sg16
I00
s(dp88
S'y'
F342
sS'x'
F160
sg16
I00
s(dp89
g19
S'curve'
p90
sS'x'
F160
sg16
I01
sS'y'
F369
s(dp91
S'y'
F441
sS'x'
F160
sg16
I00
s(dp92
S'y'
F434
sS'x'
F251
sg16
I00
s(dp93
g19
S'curve'
p94
sS'x'
F335
sg16
I00
sS'y'
F516
s(dp95
g19
S'line'
p96
sS'x'
F335
sg16
I01
sS'y'
F428
s(dp97
S'y'
F381
sS'x'
F335
sg16
I00
s(dp98
S'y'
F322
sS'x'
F266
sg16
I00
s(dp99
g19
S'curve'
p100
sS'x'
F209
sg16
I01
sS'y'
F322
stp101
stp102
sS'components'
p103
(tsS'anchors'
p104
((dp105
S'y'
F10
sS'x'
F572
sg6
S'ogonek'
p106
s(dp107
S'y'
F524
sS'x'
F314
sg6
S'top'
p108
stp109
sss."
LayerCount: 2
Fore
SplineSet
293 261 m 0
 156 261 74 363 74 496 c 0
 74 629 155 732 292 732 c 0
 429 732 509 629 509 496 c 0
 509 364 429 261 293 261 c 0
292 682 m 0
 207 682 170 599 170 491 c 0
 170 385 216 314 293 314 c 0
 369 314 413 387 413 491 c 0
 413 599 378 682 292 682 c 0
357 524 m 0
EndSplineSet
EndChar

StartChar: oslash
Encoding: 248 248 128
Width: 581
VWidth: 0
Flags: W
PickledData: "(dp1
S'com.typemytype.robofont.layerData'
p2
(dp3
S'back'
p4
(dp5
S'name'
p6
S'oslash'
p7
sS'lib'
p8
(dp9
sS'unicodes'
p10
(tsS'width'
p11
I581
sS'contours'
p12
(tsS'components'
p13
(tsS'anchors'
p14
(tsss."
LayerCount: 2
Fore
SplineSet
543 581 m 1
 575 555 l 1
 55 -54 l 1
 23 -28 l 1
 543 581 l 1
EndSplineSet
Refer: 121 111 N 1 0 0 1 0 0 2
EndChar

StartChar: p
Encoding: 112 112 129
Width: 596
VWidth: 0
Flags: W
PickledData: "(dp1
S'com.typemytype.robofont.layerData'
p2
(dp3
S'back'
p4
(dp5
S'name'
p6
S'p'
sS'lib'
p7
(dp8
sS'unicodes'
p9
(tsS'width'
p10
F596
sS'contours'
p11
((dp12
S'points'
p13
((dp14
S'segmentType'
p15
S'line'
p16
sS'x'
F283
sS'smooth'
p17
I00
sS'y'
F0
s(dp18
g15
S'line'
p19
sS'x'
F283
sg17
I00
sS'y'
F58
s(dp20
g15
S'line'
p21
sS'x'
F194
sg17
I00
sS'y'
F58
s(dp22
g15
S'line'
p23
sS'x'
F194
sg17
I01
sS'y'
F286
s(dp24
S'y'
F377
sS'x'
F194
sg17
I00
s(dp25
S'y'
F471
sS'x'
F232
sg17
I00
s(dp26
g15
S'curve'
p27
sS'x'
F329
sg17
I00
sS'y'
F471
s(dp28
S'y'
F470
sS'x'
F384
sg17
I00
s(dp29
S'y'
F435
sS'x'
F422
sg17
I00
s(dp30
g15
S'curve'
p31
sS'x'
F422
sg17
I01
sS'y'
F347
s(dp32
g15
S'line'
p33
sS'x'
F422
sg17
I00
sS'y'
F58
s(dp34
g15
S'line'
p35
sS'x'
F333
sg17
I00
sS'y'
F58
s(dp36
g15
S'line'
p37
sS'x'
F333
sg17
I00
sS'y'
F0
s(dp38
g15
S'line'
p39
sS'x'
F627
sg17
I00
sS'y'
F0
s(dp40
g15
S'line'
p41
sS'x'
F627
sg17
I00
sS'y'
F58
s(dp42
g15
S'line'
p43
sS'x'
F527
sg17
I00
sS'y'
F58
s(dp44
g15
S'line'
p45
sS'x'
F527
sg17
I01
sS'y'
F348
s(dp46
S'y'
F518
sS'x'
F527
sg17
I00
s(dp47
S'y'
F538
sS'x'
F424
sg17
I00
s(dp48
g15
S'curve'
p49
sS'x'
F365
sg17
I01
sS'y'
F538
s(dp50
S'y'
F538
sS'x'
F304
sg17
I00
s(dp51
S'y'
F504
sS'x'
F225
sg17
I00
s(dp52
g15
S'curve'
p53
sS'x'
F191
sg17
I00
sS'y'
F426
s(dp54
g15
S'line'
p55
sS'x'
F191
sg17
I00
sS'y'
F538
s(dp56
g15
S'line'
p57
sS'x'
F-6
sg17
I00
sS'y'
F524
s(dp58
g15
S'line'
p59
sS'x'
F-6
sg17
I00
sS'y'
F469
s(dp60
g15
S'line'
p61
sS'x'
F89
sg17
I00
sS'y'
F469
s(dp62
g15
S'line'
p63
sS'x'
F89
sg17
I00
sS'y'
F58
s(dp64
g15
S'line'
p65
sS'x'
F-6
sg17
I00
sS'y'
F58
s(dp66
g15
S'line'
p67
sS'x'
F-6
sg17
I00
sS'y'
F0
stp68
stp69
sS'components'
p70
(tsS'anchors'
p71
((dp72
S'y'
F0
sS'x'
F302
sg6
S'bottom'
p73
s(dp74
S'y'
F524
sS'x'
F302
sg6
S'top'
p75
stp76
sss."
LayerCount: 2
Fore
SplineSet
560 263 m 0
 560 103 476 -13 338 -13 c 1
 280 -9 227 16 194 65 c 1
 194 -136 l 1
 302 -136 l 1
 302 -196 l 1
 -26 -196 l 1
 -26 -137 l 1
 89 -137 l 1
 89 -137 l 1
 89 469 l 1
 -6 469 l 1
 -6 524 l 1
 191 538 l 1
 191 440 l 1
 225 502 280 536 343 538 c 0
 472 543 560 419 560 263 c 0
448 269 m 0
 448 373 403 476 319 476 c 0
 241 476 187 386 187 260 c 0
 187 160 224 42 319 42 c 0
 413 42 448 162 448 269 c 0
EndSplineSet
EndChar

StartChar: paragraph
Encoding: 182 182 130
Width: 591
VWidth: 0
Flags: W
PickledData: "(dp1
S'com.typemytype.robofont.layerData'
p2
(dp3
S'back'
p4
(dp5
S'name'
p6
S'paragraph'
p7
sS'lib'
p8
(dp9
sS'unicodes'
p10
(tsS'width'
p11
I591
sS'contours'
p12
(tsS'components'
p13
(tsS'anchors'
p14
(tsss."
LayerCount: 2
Fore
SplineSet
389 359 m 1
 460 359 l 1
 460 -28 l 1
 540 -28 l 1
 540 722 l 1
 271 722 l 2
 139 722 72 631 72 540 c 0
 72 449 139 359 276 359 c 2
 306 359 l 1
 306 -28 l 1
 389 -28 l 1
 389 359 l 1
EndSplineSet
EndChar

StartChar: parenleft
Encoding: 40 40 131
Width: 426
VWidth: 0
Flags: W
PickledData: "(dp1
S'com.typemytype.robofont.layerData'
p2
(dp3
S'back'
p4
(dp5
S'name'
p6
S'parenleft'
p7
sS'lib'
p8
(dp9
sS'unicodes'
p10
(tsS'width'
p11
I426
sS'contours'
p12
(tsS'components'
p13
(tsS'anchors'
p14
(tsss."
LayerCount: 2
Fore
SplineSet
207 355 m 0
 207 531 268 708 390 731 c 1
 390 773 l 1
 195 754 97 554 97 355 c 0
 97 155 195 -44 390 -63 c 1
 390 -21 l 1
 268 2 207 178 207 355 c 0
EndSplineSet
EndChar

StartChar: parenright
Encoding: 41 41 132
Width: 426
VWidth: 0
Flags: W
PickledData: "(dp1
S'com.typemytype.robofont.layerData'
p2
(dp3
S'back'
p4
(dp5
S'name'
p6
S'parenright'
p7
sS'lib'
p8
(dp9
sS'unicodes'
p10
(tsS'width'
p11
I426
sS'contours'
p12
(tsS'components'
p13
(tsS'anchors'
p14
(tsss."
LayerCount: 2
Fore
SplineSet
219 355 m 0
 219 179 158 2 36 -21 c 1
 36 -63 l 1
 231 -44 329 156 329 355 c 0
 329 555 231 754 36 773 c 1
 36 731 l 1
 158 708 219 532 219 355 c 0
EndSplineSet
EndChar

StartChar: percent
Encoding: 37 37 133
Width: 893
VWidth: 0
Flags: W
PickledData: "(dp1
S'com.typemytype.robofont.layerData'
p2
(dp3
S'back'
p4
(dp5
S'name'
p6
S'percent'
p7
sS'lib'
p8
(dp9
sS'unicodes'
p10
(tsS'width'
p11
I893
sS'contours'
p12
(tsS'components'
p13
(tsS'anchors'
p14
(tsss."
LayerCount: 2
Fore
SplineSet
473 161 m 0
 473 250 536 340 660 340 c 0
 784 340 847 250 847 160 c 0
 847 71 786 -18 661 -18 c 0
 535 -18 473 71 473 161 c 0
549 167 m 0
 549 99 589 28 661 28 c 0
 732 28 771 98 771 166 c 0
 771 232 735 296 660 296 c 0
 585 296 549 233 549 167 c 0
46 559 m 0
 46 648 109 738 233 738 c 0
 357 738 420 648 420 558 c 0
 420 469 359 380 234 380 c 0
 108 380 46 469 46 559 c 0
122 565 m 0
 122 497 162 426 234 426 c 0
 305 426 344 496 344 564 c 0
 344 630 308 694 233 694 c 0
 158 694 122 631 122 565 c 0
685 722 m 1
 734 693 l 1
 214 -30 l 1
 165 -1 l 1
 685 722 l 1
223 529 m 0
EndSplineSet
EndChar

StartChar: period
Encoding: 46 46 134
Width: 224
VWidth: 0
Flags: W
PickledData: "(dp1
S'com.typemytype.robofont.layerData'
p2
(dp3
S'back'
p4
(dp5
S'name'
p6
S'period'
p7
sS'lib'
p8
(dp9
sS'unicodes'
p10
(tsS'width'
p11
I224
sS'contours'
p12
(tsS'components'
p13
(tsS'anchors'
p14
(tsss."
LayerCount: 2
Fore
SplineSet
61 62 m 0
 61 102 93 135 133 135 c 0
 172 135 206 102 206 62 c 0
 206 23 172 -10 133 -10 c 0
 93 -10 61 23 61 62 c 0
EndSplineSet
EndChar

StartChar: periodcentered
Encoding: 183 183 135
Width: 327
VWidth: 0
Flags: W
PickledData: "(dp1
S'com.typemytype.robofont.layerData'
p2
(dp3
S'back'
p4
(dp5
S'name'
p6
S'periodcentered'
p7
sS'lib'
p8
(dp9
sS'unicodes'
p10
(tsS'width'
p11
I327
sS'contours'
p12
(tsS'components'
p13
(tsS'anchors'
p14
(tsss."
LayerCount: 2
Fore
SplineSet
91 451 m 0
 91 491 123 524 163 524 c 0
 202 524 236 491 236 451 c 0
 236 412 202 379 163 379 c 0
 123 379 91 412 91 451 c 0
EndSplineSet
EndChar

StartChar: plus
Encoding: 43 43 136
Width: 467
VWidth: 0
Flags: W
PickledData: "(dp1
S'com.typemytype.robofont.layerData'
p2
(dp3
S'back'
p4
(dp5
S'name'
p6
S'plus'
p7
sS'lib'
p8
(dp9
sS'unicodes'
p10
(tsS'width'
p11
I467
sS'contours'
p12
(tsS'components'
p13
(tsS'anchors'
p14
(tsss."
LayerCount: 2
Fore
SplineSet
30 332 m 1
 437 332 l 1
 437 260 l 1
 30 260 l 1
 30 332 l 1
275 511 m 1
 275 76 l 1
 192 76 l 1
 192 511 l 1
 275 511 l 1
EndSplineSet
EndChar

StartChar: plusminus
Encoding: 177 177 137
Width: 467
VWidth: 0
Flags: W
PickledData: "(dp1
S'com.typemytype.robofont.layerData'
p2
(dp3
S'back'
p4
(dp5
S'name'
p6
S'plusminus'
p7
sS'lib'
p8
(dp9
sS'unicodes'
p10
(tsS'width'
p11
I467
sS'contours'
p12
(tsS'components'
p13
(tsS'anchors'
p14
(tsss."
LayerCount: 2
Fore
SplineSet
50 72 m 1
 417 72 l 1
 417 0 l 1
 50 0 l 1
 50 72 l 1
50 375 m 1
 417 375 l 1
 417 303 l 1
 50 303 l 1
 50 375 l 1
275 514 m 1
 275 159 l 1
 192 159 l 1
 192 514 l 1
 275 514 l 1
EndSplineSet
EndChar

StartChar: q
Encoding: 113 113 138
Width: 584
VWidth: 0
Flags: W
PickledData: "(dp1
S'com.typemytype.robofont.layerData'
p2
(dp3
S'back'
p4
(dp5
S'name'
p6
S'q'
sS'lib'
p7
(dp8
sS'unicodes'
p9
(tsS'width'
p10
I584
sS'contours'
p11
(tsS'components'
p12
(tsS'anchors'
p13
(tsss."
LayerCount: 2
Fore
SplineSet
256 538 m 0
 126 538 36 419 36 263 c 0
 36 103 123 -13 261 -13 c 1
 319 -9 373 16 406 65 c 1
 406 -135 l 1
 300 -134.5 l 1
 300 -195 l 1
 612 -195 l 1
 612 -135 l 1
 511 -135 l 1
 511 524 l 1
 466 524 l 1
 428 428 l 1
 394 508 321 538 256 538 c 0
276 42 m 0
 182 42 148 162 148 269 c 0
 148 373 192 479 276 479 c 0
 357 479 406 372 406 240 c 0
 406 159 367 42 276 42 c 0
EndSplineSet
EndChar

StartChar: question
Encoding: 63 63 139
Width: 493
VWidth: 0
Flags: W
PickledData: "(dp1
S'com.typemytype.robofont.layerData'
p2
(dp3
S'back'
p4
(dp5
S'name'
p6
S'question'
p7
sS'lib'
p8
(dp9
sS'unicodes'
p10
(tsS'width'
p11
I493
sS'contours'
p12
(tsS'components'
p13
(tsS'anchors'
p14
(tsss."
LayerCount: 2
Fore
SplineSet
222 -10 m 0
 261 -10 295 23 295 62 c 0
 295 102 261 135 222 135 c 0
 182 135 150 102 150 62 c 0
 150 23 182 -10 222 -10 c 0
240 198 m 1
 279 318 452 370 452 535 c 0
 452 694.006 325.471 734.955 258 737 c 1
 143 737 40 676 40 564 c 0
 40 529 71 487 125 487 c 0
 167 487 196 517 196 559 c 0
 196 609 150 622 123 622 c 1
 139 658 191 682 231 682 c 0
 282.753 682 347 659.733 347 550 c 0
 347 421 208 375 208 198 c 1
 240 198 l 1
EndSplineSet
EndChar

StartChar: quotedbl
Encoding: 34 34 141
Width: 326
VWidth: 0
Flags: W
PickledData: "(dp1
S'com.typemytype.robofont.layerData'
p2
(dp3
S'back'
p4
(dp5
S'name'
p6
S'quotedbl'
p7
sS'lib'
p8
(dp9
sS'unicodes'
p10
(tsS'width'
p11
I326
sS'contours'
p12
(tsS'components'
p13
(tsS'anchors'
p14
(tsss."
LayerCount: 2
Fore
SplineSet
168 711 m 0
 168 733 182 750 210 750 c 0
 240 750 251 733 251 711 c 0
 251 709 220 532 220 532 c 2
 219 524 214 519 209 519 c 0
 204 519 200 524 199 532 c 2
 199 532 168 709 168 711 c 0
40 711 m 0
 40 733 54 750 82 750 c 0
 112 750 123 733 123 711 c 0
 123 709 92 532 92 532 c 2
 91 524 86 519 81 519 c 0
 76 519 72 524 71 532 c 2
 71 532 40 709 40 711 c 0
116 722 m 0
286 10 m 0
EndSplineSet
EndChar

StartChar: quotedblbase
Encoding: 8222 8222 142
Width: 326
VWidth: 0
Flags: W
PickledData: "(dp1
S'com.typemytype.robofont.layerData'
p2
(dp3
S'back'
p4
(dp5
S'name'
p6
S'quotedblbase'
p7
sS'lib'
p8
(dp9
sS'unicodes'
p10
(tsS'width'
p11
I326
sS'contours'
p12
(tsS'components'
p13
(tsS'anchors'
p14
(tsss."
LayerCount: 2
Fore
SplineSet
168 711 m 0
 168 733 182 750 210 750 c 0
 240 750 251 733 251 711 c 0
 251 709 220 532 220 532 c 2
 219 524 214 519 209 519 c 0
 204 519 200 524 199 532 c 2
 199 532 168 709 168 711 c 0
40 711 m 0
 40 733 54 750 82 750 c 0
 112 750 123 733 123 711 c 0
 123 709 92 532 92 532 c 2
 91 524 86 519 81 519 c 0
 76 519 72 524 71 532 c 2
 71 532 40 709 40 711 c 0
116 722 m 0
286 10 m 0
EndSplineSet
EndChar

StartChar: quotedblleft
Encoding: 8220 8220 143
Width: 410
VWidth: 0
Flags: W
PickledData: "(dp1
S'com.typemytype.robofont.layerData'
p2
(dp3
S'back'
p4
(dp5
S'name'
p6
S'quotedblleft'
p7
sS'lib'
p8
(dp9
sS'unicodes'
p10
(tsS'width'
p11
I410
sS'contours'
p12
(tsS'components'
p13
(tsS'anchors'
p14
(tsss."
LayerCount: 2
Fore
SplineSet
276 641 m 0
 276 636 277 631 280 627 c 1
 290 634 304 639 318 639 c 0
 349 639 378 608 378 577 c 0
 378 541 343 510 310 510 c 0
 273 510 225 540 225 607 c 0
 225 651 247 704 307 746 c 0
 309 747 311 749 312 750 c 1
 334 714 l 1
 309 699 276 667 276 641 c 0
159 714 m 1
 134 699 101 667 101 641 c 0
 101 636 102 631 105 627 c 1
 115 634 129 639 143 639 c 0
 174 639 203 608 203 577 c 0
 203 541 168 510 135 510 c 0
 98 510 50 540 50 607 c 0
 50 651 72 704 132 746 c 0
 134 747 136 749 137 750 c 1
 159 714 l 1
EndSplineSet
EndChar

StartChar: quotedblright
Encoding: 8221 8221 144
Width: 374
VWidth: 0
Flags: W
PickledData: "(dp1
S'com.typemytype.robofont.layerData'
p2
(dp3
S'back'
p4
(dp5
S'name'
p6
S'quotedblright'
p7
sS'lib'
p8
(dp9
sS'unicodes'
p10
(tsS'width'
p11
I374
sS'contours'
p12
(tsS'components'
p13
(tsS'anchors'
p14
(tsss."
LayerCount: 2
Fore
SplineSet
303 619 m 0
 303 624 302 629 299 633 c 1
 289 626 275 621 261 621 c 0
 230 621 201 652 201 683 c 0
 201 719 236 750 269 750 c 0
 306 750 354 720 354 653 c 0
 354 609 333 556 273 514 c 0
 271 513 268 511 267 510 c 1
 245 546 l 1
 270 561 303 593 303 619 c 0
69 546 m 1
 94 561 127 593 127 619 c 0
 127 624 126 629 123 633 c 1
 113 626 99 621 85 621 c 0
 54 621 25 652 25 683 c 0
 25 719 60 750 93 750 c 0
 130 750 178 720 178 653 c 0
 178 609 157 556 97 514 c 0
 95 513 92 511 91 510 c 1
 69 546 l 1
EndSplineSet
EndChar

StartChar: quoteleft
Encoding: 8216 8216 145
Width: 397
VWidth: 0
Flags: W
PickledData: "(dp1
S'com.typemytype.robofont.layerData'
p2
(dp3
S'back'
p4
(dp5
S'name'
p6
S'quoteleft'
p7
sS'lib'
p8
(dp9
sS'unicodes'
p10
(tsS'width'
p11
I397
sS'contours'
p12
(tsS'components'
p13
(tsS'anchors'
p14
(tsss."
LayerCount: 2
Fore
SplineSet
233 714 m 1
 208 699 175 667 175 641 c 0
 175 636 176 631 179 627 c 1
 189 634 203 639 217 639 c 0
 248 639 277 608 277 577 c 0
 277 541 242 510 209 510 c 0
 172 510 124 540 124 607 c 0
 124 651 146 704 206 746 c 0
 208 747 210 749 211 750 c 1
 233 714 l 1
EndSplineSet
EndChar

StartChar: quoteright
Encoding: 8217 8217 146
Width: 253
VWidth: 0
Flags: W
PickledData: "(dp1
S'com.typemytype.robofont.layerData'
p2
(dp3
S'back'
p4
(dp5
S'name'
p6
S'quoteright'
p7
sS'lib'
p8
(dp9
sS'unicodes'
p10
(tsS'width'
p11
I253
sS'contours'
p12
(tsS'components'
p13
(tsS'anchors'
p14
(tsss."
LayerCount: 2
Fore
SplineSet
96 546 m 1
 121 561 154 593 154 619 c 0
 154 624 153 629 150 633 c 1
 140 626 126 621 112 621 c 0
 81 621 52 652 52 683 c 0
 52 719 87 750 120 750 c 0
 157 750 205 720 205 653 c 0
 205 609 184 556 124 514 c 0
 122 513 119 511 118 510 c 1
 96 546 l 1
EndSplineSet
EndChar

StartChar: quotesingle
Encoding: 39 39 147
Width: 161
VWidth: 0
Flags: W
PickledData: "(dp1
S'com.typemytype.robofont.layerData'
p2
(dp3
S'back'
p4
(dp5
S'name'
p6
S'quotesingle'
p7
sS'lib'
p8
(dp9
sS'unicodes'
p10
(tsS'width'
p11
F161
sS'contours'
p12
(tsS'components'
p13
(tsS'anchors'
p14
(tsss."
LayerCount: 2
Fore
SplineSet
40 711 m 0
 40 733 54 750 82 750 c 0
 112 750 123 733 123 711 c 0
 123 709 92 532 92 532 c 2
 91 524 86 519 81 519 c 0
 76 519 72 524 71 532 c 2
 71 532 40 709 40 711 c 0
116 722 m 0
286 10 m 0
EndSplineSet
EndChar

StartChar: quotesinglebase
Encoding: 65545 -1 148
Width: 161
VWidth: 0
Flags: W
PickledData: "(dp1
S'com.typemytype.robofont.layerData'
p2
(dp3
S'back'
p4
(dp5
S'name'
p6
S'quotesinglebase'
p7
sS'lib'
p8
(dp9
sS'unicodes'
p10
(tsS'width'
p11
F161
sS'contours'
p12
(tsS'components'
p13
(tsS'anchors'
p14
(tsss."
LayerCount: 2
Fore
SplineSet
40 17 m 0
 40 39 54 56 82 56 c 0
 112 56 123 39 123 17 c 0
 123 15 92 -162 92 -162 c 2
 91 -170 86 -175 81 -175 c 0
 76 -175 72 -170 71 -162 c 2
 71 -162 40 15 40 17 c 0
116 722 m 0
286 10 m 0
EndSplineSet
EndChar

StartChar: r
Encoding: 114 114 149
Width: 462
VWidth: 0
Flags: W
PickledData: "(dp1
S'com.typemytype.robofont.layerData'
p2
(dp3
S'back'
p4
(dp5
S'name'
p6
S'r'
sS'lib'
p7
(dp8
sS'unicodes'
p9
(tsS'width'
p10
I462
sS'contours'
p11
((dp12
S'points'
p13
((dp14
S'segmentType'
p15
S'line'
p16
sS'x'
F121
sS'smooth'
p17
I00
sS'y'
F469
s(dp18
g15
S'line'
p19
sS'x'
F121
sg17
I00
sS'y'
F57
s(dp20
g15
S'line'
p21
sS'x'
F26
sg17
I00
sS'y'
F57
s(dp22
g15
S'line'
p23
sS'x'
F26
sg17
I00
sS'y'
F0
s(dp24
g15
S'line'
p25
sS'x'
F341
sg17
I00
sS'y'
F0
s(dp26
g15
S'line'
p27
sS'x'
F341
sg17
I00
sS'y'
F57
s(dp28
g15
S'line'
p29
sS'x'
F226
sg17
I00
sS'y'
F57
s(dp30
g15
S'line'
p31
sS'x'
F226
sg17
I00
sS'y'
F469
s(dp32
g15
S'line'
p33
sS'x'
F342
sg17
I00
sS'y'
F469
s(dp34
g15
S'line'
p35
sS'x'
F342
sg17
I00
sS'y'
F524
s(dp36
g15
S'line'
p37
sS'x'
F223
sg17
I00
sS'y'
F524
s(dp38
g15
S'line'
p39
sS'x'
F223
sg17
I01
sS'y'
F607
s(dp40
S'y'
F697
sS'x'
F223
sg17
I00
s(dp41
S'y'
F732
sS'x'
F263
sg17
I00
s(dp42
g15
S'curve'
p43
sS'x'
F320
sg17
I01
sS'y'
F732
s(dp44
S'y'
F732
sS'x'
F351
sg17
I00
s(dp45
S'y'
F717
sS'x'
F395
sg17
I00
s(dp46
g15
S'curve'
p47
sS'x'
F396
sg17
I00
sS'y'
F691
s(dp48
S'y'
F691
sS'x'
F369
sg17
I00
s(dp49
S'y'
F669
sS'x'
F333
sg17
I00
s(dp50
g15
S'curve'
p51
sS'x'
F333
sg17
I01
sS'y'
F632
s(dp52
S'y'
F593
sS'x'
F333
sg17
I00
s(dp53
S'y'
F566
sS'x'
F365
sg17
I00
s(dp54
g15
S'curve'
p55
sS'x'
F399
sg17
I01
sS'y'
F566
s(dp56
S'y'
F566
sS'x'
F439
sg17
I00
s(dp57
S'y'
F597
sS'x'
F472
sg17
I00
s(dp58
g15
S'curve'
p59
sS'x'
F472
sg17
I01
sS'y'
F650
s(dp60
S'y'
F700
sS'x'
F472
sg17
I00
s(dp61
S'y'
F773
sS'x'
F418
sg17
I00
s(dp62
g15
S'curve'
p63
sS'x'
F305
sg17
I01
sS'y'
F773
s(dp64
S'y'
F773
sS'x'
F168
sg17
I00
s(dp65
S'y'
F690
sS'x'
F121
sg17
I00
s(dp66
g15
S'curve'
p67
sS'x'
F121
sg17
I00
sS'y'
F524
s(dp68
g15
S'line'
p69
sS'x'
F26
sg17
I00
sS'y'
F524
s(dp70
g15
S'line'
p71
sS'x'
F26
sg17
I00
sS'y'
F469
stp72
stp73
sS'components'
p74
(tsS'anchors'
p75
(tsss."
LayerCount: 2
Fore
SplineSet
334 0 m 1
 334 57 l 1
 224 57 l 1
 224 281 l 2
 224 372 255 476 337 476 c 1
 337 476 317 456 317 433 c 0
 317 391 351 368 386 368 c 0
 423 368 461 394 461 448 c 0
 461 504 413 532 364 532 c 0
 284 532 233 467 219 418 c 1
 219 538 l 1
 24 524 l 1
 24 479 l 1
 119 468 l 1
 119 57 l 1
 24 57 l 1
 24 0 l 1
 334 0 l 1
244 524 m 0
244 0 m 0
EndSplineSet
EndChar

StartChar: registered
Encoding: 174 174 150
Width: 832
VWidth: 0
Flags: W
PickledData: "(dp1
S'com.typemytype.robofont.layerData'
p2
(dp3
S'back'
p4
(dp5
S'name'
p6
S'registered'
p7
sS'lib'
p8
(dp9
sS'unicodes'
p10
(tsS'width'
p11
I832
sS'contours'
p12
((dp13
S'points'
p14
((dp15
S'segmentType'
p16
S'curve'
p17
sS'x'
F166
sS'smooth'
p18
I01
sS'y'
F363
s(dp19
S'y'
F205
sS'x'
F166
sg18
I00
s(dp20
S'y'
F55
sS'x'
F244
sg18
I00
s(dp21
g16
S'curve'
p22
sS'x'
F388
sg18
I01
sS'y'
F55
s(dp23
S'y'
F55
sS'x'
F532
sg18
I00
s(dp24
S'y'
F204
sS'x'
F610
sg18
I00
s(dp25
g16
S'curve'
p26
sS'x'
F610
sg18
I01
sS'y'
F361
s(dp27
S'y'
F517
sS'x'
F610
sg18
I00
s(dp28
S'y'
F667
sS'x'
F532
sg18
I00
s(dp29
g16
S'curve'
p30
sS'x'
F388
sg18
I00
sS'y'
F670
s(dp31
S'y'
F670
sS'x'
F244
sg18
I00
s(dp32
S'y'
F520
sS'x'
F166
sg18
I00
stp33
s(dp34
g14
((dp35
g16
S'curve'
p36
sS'x'
F41
sg18
I01
sS'y'
F362
s(dp37
S'y'
F549
sS'x'
F41
sg18
I00
s(dp38
S'y'
F737
sS'x'
F154
sg18
I00
s(dp39
g16
S'curve'
p40
sS'x'
F388
sg18
I01
sS'y'
F737
s(dp41
S'y'
F737
sS'x'
F621
sg18
I00
s(dp42
S'y'
F549
sS'x'
F735
sg18
I00
s(dp43
g16
S'curve'
p44
sS'x'
F735
sg18
I01
sS'y'
F362
s(dp45
S'y'
F174
sS'x'
F735
sg18
I00
s(dp46
S'y'
F-13
sS'x'
F621
sg18
I00
s(dp47
g16
S'curve'
p48
sS'x'
F388
sg18
I01
sS'y'
F-13
s(dp49
S'y'
F-13
sS'x'
F154
sg18
I00
s(dp50
S'y'
F174
sS'x'
F41
sg18
I00
stp51
stp52
sS'components'
p53
(tsS'anchors'
p54
((dp55
S'y'
F722
sS'x'
F388
sg6
S'top'
p56
stp57
sss."
LayerCount: 2
Fore
SplineSet
416 -13 m 0
 622 -13 791 157 791 363 c 0
 791 568 622 737 416 737 c 0
 211 737 41 568 41 363 c 0
 41 157 211 -13 416 -13 c 0
417 34 m 0
 236 34 87 183 87 364 c 0
 87 546 236 694 417 694 c 0
 599 694 747 546 747 364 c 0
 747 183 599 34 417 34 c 0
548 160 m 0
 586 160 641 175 641 256 c 2
 641 297 l 1
 591 297 l 1
 591 262 l 2
 591 221 580 207 560 207 c 0
 514 207 564 350 461 372 c 1
 519 383 569 406 570 468 c 1
 570 574 453 579 373 579 c 2
 214 579 l 1
 214 540 l 1
 275 540 l 1
 275 206 l 1
 214 206 l 1
 214 168 l 1
 400 168 l 1
 400 206 l 1
 350 206 l 1
 350 364 l 1
 400 364 l 2
 408 364 435 333 445 278 c 1
 458 198 479 160 548 160 c 0
350 397 m 1
 350 540 l 1
 373 540 l 2
 459 540 492 525 494 468 c 1
 494 416 455 397 375 397 c 2
 350 397 l 1
412 638 m 0
412 96 m 0
EndSplineSet
EndChar

StartChar: ring
Encoding: 730 730 151
Width: 581
VWidth: 0
Flags: W
PickledData: "(dp1
S'com.typemytype.robofont.layerData'
p2
(dp3
S'back'
p4
(dp5
S'name'
p6
S'ring'
p7
sS'lib'
p8
(dp9
sS'unicodes'
p10
(tsS'width'
p11
I581
sS'contours'
p12
(tsS'components'
p13
(tsS'anchors'
p14
(tsss."
LayerCount: 2
Fore
SplineSet
171 679 m 0
 171 729 207 768 269 768 c 0
 330 768 366 729 366 679 c 0
 366 629 330 590 269 590 c 0
 208 590 171 628 171 679 c 0
269 741 m 0
 242 741 214 720 214 679 c 0
 214 638 241 618 268 618 c 0
 295 618 323 639 323 679 c 0
 323 720 296 741 269 741 c 0
269 766 m 0
EndSplineSet
EndChar

StartChar: s
Encoding: 115 115 152
Width: 508
VWidth: 0
Flags: W
PickledData: "(dp1
S'com.typemytype.robofont.layerData'
p2
(dp3
S'back'
p4
(dp5
S'name'
p6
S's'
sS'lib'
p7
(dp8
sS'unicodes'
p9
(tsS'width'
p10
I508
sS'contours'
p11
((dp12
S'points'
p13
((dp14
S'segmentType'
p15
S'curve'
p16
sS'x'
F475
sS'smooth'
p17
I01
sS'y'
F145
s(dp18
S'y'
F345.553
sS'x'
F475
sg17
I00
s(dp19
S'y'
F301.33600000000001
sS'x'
F136
sg17
I00
s(dp20
g15
S'curve'
p21
sS'x'
F136
sg17
I01
sS'y'
F405
s(dp22
S'y'
F471
sS'x'
F136
sg17
I00
s(dp23
S'y'
F481
sS'x'
F203
sg17
I00
s(dp24
g15
S'curve'
p25
sS'x'
F260
sg17
I01
sS'y'
F481
s(dp26
S'y'
F481
sS'x'
F303
sg17
I00
s(dp27
S'y'
F475
sS'x'
F355
sg17
I00
s(dp28
g15
S'curve'
p29
sS'x'
F383
sg17
I00
sS'y'
F455
s(dp30
S'y'
F452
sS'x'
F350
sg17
I00
s(dp31
S'y'
F431
sS'x'
F331
sg17
I00
s(dp32
g15
S'curve'
p33
sS'x'
F331
sg17
I01
sS'y'
F397
s(dp34
S'y'
F358
sS'x'
F331
sg17
I00
s(dp35
S'y'
F340
sS'x'
F365
sg17
I00
s(dp36
g15
S'curve'
p37
sS'x'
F400
sg17
I01
sS'y'
F340
s(dp38
S'y'
F340
sS'x'
F432
sg17
I00
s(dp39
S'y'
F369
sS'x'
F463
sg17
I00
s(dp40
g15
S'curve'
p41
sS'x'
F463
sg17
I01
sS'y'
F413
s(dp42
S'y'
F518
sS'x'
F463
sg17
I00
s(dp43
S'y'
F536
sS'x'
F329
sg17
I00
s(dp44
g15
S'curve'
p45
sS'x'
F237
sg17
I01
sS'y'
F536
s(dp46
S'y'
F536
sS'x'
F168
sg17
I00
s(dp47
S'y'
F501
sS'x'
F45
sg17
I00
s(dp48
g15
S'curve'
p49
sS'x'
F45
sg17
I01
sS'y'
F395
s(dp50
S'y'
F210.495
sS'x'
F45
sg17
I00
s(dp51
S'y'
F267.63999999999999
sS'x'
F382
sg17
I00
s(dp52
g15
S'curve'
p53
sS'x'
F382
sg17
I01
sS'y'
F135
s(dp54
S'y'
F73.717200000000005
sS'x'
F382
sg17
I00
s(dp55
S'y'
F42
sS'x'
F328.488
sg17
I00
s(dp56
g15
S'curve'
p57
sS'x'
F265
sg17
I01
sS'y'
F42
s(dp58
S'y'
F42
sS'x'
F216
sg17
I00
s(dp59
S'y'
F52
sS'x'
F159
sg17
I00
s(dp60
g15
S'curve'
p61
sS'x'
F131
sg17
I00
sS'y'
F73
s(dp62
S'y'
F73
sS'x'
F155
sg17
I00
s(dp63
S'y'
F100
sS'x'
F179
sg17
I00
s(dp64
g15
S'curve'
p65
sS'x'
F179
sg17
I01
sS'y'
F134
s(dp66
S'y'
F175
sS'x'
F179
sg17
I00
s(dp67
S'y'
F194
sS'x'
F148
sg17
I00
s(dp68
g15
S'curve'
p69
sS'x'
F115
sg17
I01
sS'y'
F194
s(dp70
S'y'
F194
sS'x'
F81
sg17
I00
s(dp71
S'y'
F164
sS'x'
F46
sg17
I00
s(dp72
g15
S'curve'
p73
sS'x'
F46
sg17
I01
sS'y'
F120
s(dp74
S'y'
F23
sS'x'
F46
sg17
I00
s(dp75
S'y'
F-13
sS'x'
F171
sg17
I00
s(dp76
g15
S'curve'
p77
sS'x'
F268
sg17
I01
sS'y'
F-13
s(dp78
S'y'
F-13
sS'x'
F362
sg17
I00
s(dp79
S'y'
F25
sS'x'
F475
sg17
I00
stp80
stp81
sS'components'
p82
(tsS'anchors'
p83
(tsss."
LayerCount: 2
Fore
SplineSet
475 150 m 0
 475 346 139 301 139 408 c 0
 139 464 196 486 259 486 c 0
 306 486 353 474 381 454 c 1
 348 451 329 431 329 397 c 0
 329 358 363 340 398 340 c 0
 430 340 461 369 461 413 c 0
 461 512 344 536 253 536 c 0
 178.972977907 536 48 508.678152467 48 395 c 0
 48 210 382 268 382 135 c 0
 382 69 312 43 243 43 c 0
 199 43 151 57 126 76 c 1
 150 76 174 103 174 137 c 0
 174 178 143 197 110 197 c 0
 76 197 41 167 41 123 c 0
 41 26 159 -13 256 -13 c 0
 361 -13 475 27 475 150 c 0
EndSplineSet
EndChar

StartChar: section
Encoding: 167 167 153
Width: 505
VWidth: 0
Flags: W
PickledData: "(dp1
S'com.typemytype.robofont.layerData'
p2
(dp3
S'back'
p4
(dp5
S'name'
p6
S'section'
p7
sS'lib'
p8
(dp9
sS'unicodes'
p10
(tsS'width'
p11
I505
sS'contours'
p12
((dp13
S'points'
p14
((dp15
S'segmentType'
p16
S'curve'
p17
sS'x'
F-95
sS'smooth'
p18
I01
sS'y'
F362
s(dp19
S'y'
F549
sS'x'
F-95
sg18
I00
s(dp20
S'y'
F737
sS'x'
F18
sg18
I00
s(dp21
g16
S'curve'
p22
sS'x'
F252
sg18
I01
sS'y'
F737
s(dp23
S'y'
F737
sS'x'
F485
sg18
I00
s(dp24
S'y'
F549
sS'x'
F599
sg18
I00
s(dp25
g16
S'curve'
p26
sS'x'
F599
sg18
I01
sS'y'
F362
s(dp27
S'y'
F174
sS'x'
F599
sg18
I00
s(dp28
S'y'
F-13
sS'x'
F485
sg18
I00
s(dp29
g16
S'curve'
p30
sS'x'
F252
sg18
I01
sS'y'
F-13
s(dp31
S'y'
F-13
sS'x'
F18
sg18
I00
s(dp32
S'y'
F174
sS'x'
F-95
sg18
I00
stp33
s(dp34
g14
((dp35
g16
S'curve'
p36
sS'x'
F30
sg18
I01
sS'y'
F363
s(dp37
S'y'
F205
sS'x'
F30
sg18
I00
s(dp38
S'y'
F55
sS'x'
F108
sg18
I00
s(dp39
g16
S'curve'
p40
sS'x'
F252
sg18
I01
sS'y'
F55
s(dp41
S'y'
F55
sS'x'
F396
sg18
I00
s(dp42
S'y'
F204
sS'x'
F474
sg18
I00
s(dp43
g16
S'curve'
p44
sS'x'
F474
sg18
I01
sS'y'
F361
s(dp45
S'y'
F517
sS'x'
F474
sg18
I00
s(dp46
S'y'
F667
sS'x'
F396
sg18
I00
s(dp47
g16
S'curve'
p48
sS'x'
F252
sg18
I00
sS'y'
F670
s(dp49
S'y'
F670
sS'x'
F108
sg18
I00
s(dp50
S'y'
F520
sS'x'
F30
sg18
I00
stp51
stp52
sS'components'
p53
(tsS'anchors'
p54
((dp55
S'y'
F722
sS'x'
F388
sg6
S'top'
p56
stp57
sss."
LayerCount: 2
Fore
SplineSet
350 265 m 1
 252 305 121 314 121 397 c 0
 121 423 131 443 149 457 c 1
 247 417 378 408 378 325 c 0
 378 301 369 282 354 268 c 1
 350 265 l 1
250 -4 m 0
 324 -4 455 23 455 137 c 0
 455 175 441 203 418 224 c 1
 450 250 471 288 471 340 c 0
 471 536 135 491 135 598 c 0
 135 654 192 676 255 676 c 0
 302 676 349 664 377 644 c 1
 344 641 325 621 325 587 c 0
 325 548 359 530 394 530 c 0
 426 530 457 559 457 603 c 0
 457 702 340 726 249 726 c 0
 175 726 44 699 44 585 c 0
 44 547 58 519 81 498 c 1
 49 472 28 434 28 382 c 0
 28 186 364 231 364 124 c 0
 364 68 307 46 244 46 c 0
 197 46 150 58 122 78 c 1
 155 81 174 101 174 135 c 0
 174 174 140 192 105 192 c 0
 73 192 42 163 42 119 c 0
 42 20 159 -4 250 -4 c 0
EndSplineSet
EndChar

StartChar: semicolon
Encoding: 59 59 154
Width: 307
VWidth: 0
Flags: W
PickledData: "(dp1
S'com.typemytype.robofont.layerData'
p2
(dp3
S'back'
p4
(dp5
S'name'
p6
S'semicolon'
p7
sS'lib'
p8
(dp9
sS'unicodes'
p10
(tsS'width'
p11
F307
sS'contours'
p12
(tsS'components'
p13
(tsS'anchors'
p14
(tsss."
LayerCount: 2
Fore
SplineSet
97 450 m 0
 97 490 129 523 169 523 c 0
 208 523 242 490 242 450 c 0
 242 411 208 378 169 378 c 0
 129 378 97 411 97 450 c 0
141 -73 m 1
 166 -58 199 -26 199 0 c 0
 199 5 198 10 195 14 c 1
 185 7 171 2 157 2 c 0
 126 2 97 33 97 64 c 0
 97 100 132 129 165 131 c 0
 208 133 250 101 250 34 c 0
 250 -10 228 -63 168 -105 c 0
 166 -106 164 -108 163 -109 c 1
 141 -73 l 1
EndSplineSet
EndChar

StartChar: seven
Encoding: 55 55 155
Width: 509
VWidth: 0
Flags: W
PickledData: "(dp1
S'com.typemytype.robofont.layerData'
p2
(dp3
S'back'
p4
(dp5
S'name'
p6
S'seven'
p7
sS'lib'
p8
(dp9
sS'unicodes'
p10
(tsS'width'
p11
I509
sS'contours'
p12
(tsS'components'
p13
(tsS'anchors'
p14
(tsss."
LayerCount: 2
Fore
SplineSet
463 450 m 1
 449 524 l 1
 48 524 l 1
 48 336 l 1
 138 336 l 1
 138 455 l 1
 384 455 l 1
 126 -124 l 2
 120 -138 117 -152 117 -163 c 0
 117 -199 143 -220 172 -220 c 0
 195 -220 219 -207 232 -176 c 1
 463 450 l 1
EndSplineSet
EndChar

StartChar: sh
Encoding: 65546 -1 156
Width: 1161
VWidth: 0
Flags: W
PickledData: "(dp1
S'com.typemytype.robofont.layerData'
p2
(dp3
S'back'
p4
(dp5
S'name'
p6
S'sh'
p7
sS'lib'
p8
(dp9
sS'unicodes'
p10
(tsS'width'
p11
I1161
sS'contours'
p12
((dp13
S'points'
p14
((dp15
S'y'
F-13
sS'x'
F357
sS'smooth'
p16
I00
s(dp17
S'y'
F27
sS'x'
F471
sg16
I00
s(dp18
S'segmentType'
p19
S'curve'
p20
sS'x'
F471
sg16
I01
sS'y'
F150
s(dp21
S'y'
F346
sS'x'
F471
sg16
I00
s(dp22
S'y'
F301
sS'x'
F135
sg16
I00
s(dp23
g19
S'curve'
p24
sS'x'
F135
sg16
I01
sS'y'
F408
s(dp25
S'y'
F464
sS'x'
F135
sg16
I00
s(dp26
S'y'
F486
sS'x'
F192
sg16
I00
s(dp27
g19
S'curve'
p28
sS'x'
F255
sg16
I01
sS'y'
F486
s(dp29
S'y'
F486
sS'x'
F302
sg16
I00
s(dp30
S'y'
F473
sS'x'
F353
sg16
I00
s(dp31
g19
S'curve'
p32
sS'x'
F381
sg16
I00
sS'y'
F453
s(dp33
S'y'
F450
sS'x'
F348
sg16
I00
s(dp34
S'y'
F430
sS'x'
F329
sg16
I00
s(dp35
g19
S'curve'
p36
sS'x'
F329
sg16
I01
sS'y'
F396
s(dp37
S'y'
F357
sS'x'
F329
sg16
I00
s(dp38
S'y'
F339
sS'x'
F363
sg16
I00
s(dp39
g19
S'curve'
p40
sS'x'
F398
sg16
I01
sS'y'
F339
s(dp41
S'y'
F339
sS'x'
F430
sg16
I00
s(dp42
S'y'
F368
sS'x'
F461
sg16
I00
s(dp43
g19
S'curve'
p44
sS'x'
F461
sg16
I01
sS'y'
F412
s(dp45
S'y'
F453
sS'x'
F461
sg16
I00
s(dp46
S'y'
F561
sS'x'
F396
sg16
I00
s(dp47
g19
S'curve'
p48
sS'x'
F396
sg16
I01
sS'y'
F607
s(dp49
S'y'
F659
sS'x'
F396
sg16
I00
s(dp50
S'y'
F690
sS'x'
F435
sg16
I00
s(dp51
g19
S'curve'
p52
sS'x'
F611
sg16
I00
sS'y'
F690
s(dp53
g19
S'line'
p54
sS'x'
F611
sg16
I00
sS'y'
F57
s(dp55
g19
S'line'
p56
sS'x'
F501
sg16
I00
sS'y'
F57
s(dp57
g19
S'line'
p58
sS'x'
F501
sg16
I00
sS'y'
F0
s(dp59
g19
S'line'
p60
sS'x'
F799
sg16
I00
sS'y'
F0
s(dp61
g19
S'line'
p62
sS'x'
F799
sg16
I00
sS'y'
F57
s(dp63
g19
S'line'
p64
sS'x'
F716
sg16
I00
sS'y'
F57
s(dp65
g19
S'line'
p66
sS'x'
F716
sg16
I00
sS'y'
F204
s(dp67
g19
S'line'
p68
sS'x'
F797
sg16
I00
sS'y'
F266
s(dp69
g19
S'line'
p70
sS'x'
F895
sg16
I01
sS'y'
F97
s(dp71
S'y'
F34
sS'x'
F937
sg16
I00
s(dp72
S'y'
F-10
sS'x'
F980
sg16
I00
s(dp73
g19
S'curve'
p74
sS'x'
F1053
sg16
I01
sS'y'
F-10
s(dp75
S'y'
F-10
sS'x'
F1081
sg16
I00
s(dp76
S'y'
F-9
sS'x'
F1105
sg16
I00
s(dp77
g19
S'curve'
p78
sS'x'
F1140
sg16
I00
sS'y'
F11
s(dp79
g19
S'line'
p80
sS'x'
F1126
sg16
I00
sS'y'
F77
s(dp81
S'y'
F70
sS'x'
F1111
sg16
I00
s(dp82
S'y'
F70
sS'x'
F1098
sg16
I00
s(dp83
g19
S'curve'
p84
sS'x'
F1086
sg16
I01
sS'y'
F68
s(dp85
S'y'
F67
sS'x'
F1082
sg16
I00
s(dp86
S'y'
F67
sS'x'
F1079
sg16
I00
s(dp87
g19
S'curve'
p88
sS'x'
F1075
sg16
I01
sS'y'
F67
s(dp89
S'y'
F67
sS'x'
F991
sg16
I00
s(dp90
S'y'
F216
sS'x'
F924
sg16
I00
s(dp91
g19
S'curve'
p92
sS'x'
F859
sg16
I00
sS'y'
F307
s(dp93
g19
S'line'
p94
sS'x'
F1028
sg16
I00
sS'y'
F467
s(dp95
g19
S'line'
p96
sS'x'
F1121
sg16
I00
sS'y'
F467
s(dp97
g19
S'line'
p98
sS'x'
F1121
sg16
I00
sS'y'
F524
s(dp99
g19
S'line'
p100
sS'x'
F828
sg16
I00
sS'y'
F524
s(dp101
g19
S'line'
p102
sS'x'
F828
sg16
I00
sS'y'
F467
s(dp103
g19
S'line'
p104
sS'x'
F920
sg16
I00
sS'y'
F467
s(dp105
g19
S'line'
p106
sS'x'
F716
sg16
I00
sS'y'
F279
s(dp107
g19
S'line'
p108
sS'x'
F716
sg16
I00
sS'y'
F750
s(dp109
g19
S'line'
p110
sS'x'
F622
sg16
I01
sS'y'
F750
s(dp111
S'y'
F750
sS'x'
F400
sg16
I00
s(dp112
S'y'
F703
sS'x'
F342
sg16
I00
s(dp113
g19
S'curve'
p114
sS'x'
F334
sg16
I01
sS'y'
F623
s(dp115
S'y'
F582
sS'x'
F330
sg16
I00
s(dp116
S'y'
F532
sS'x'
F369
sg16
I00
s(dp117
g19
S'curve'
p118
sS'x'
F382
sg16
I00
sS'y'
F502
s(dp119
S'y'
F524
sS'x'
F346
sg16
I00
s(dp120
S'y'
F536
sS'x'
F287
sg16
I00
s(dp121
g19
S'curve'
p122
sS'x'
F249
sg16
I01
sS'y'
F536
s(dp123
S'y'
F536
sS'x'
F169
sg16
I00
s(dp124
S'y'
F509
sS'x'
F44
sg16
I00
s(dp125
g19
S'curve'
p126
sS'x'
F44
sg16
I01
sS'y'
F395
s(dp127
S'y'
F210
sS'x'
F44
sg16
I00
s(dp128
S'y'
F268
sS'x'
F378
sg16
I00
s(dp129
g19
S'curve'
p130
sS'x'
F378
sg16
I01
sS'y'
F135
s(dp131
S'y'
F69
sS'x'
F378
sg16
I00
s(dp132
S'y'
F43
sS'x'
F308
sg16
I00
s(dp133
g19
S'curve'
p134
sS'x'
F239
sg16
I01
sS'y'
F43
s(dp135
S'y'
F43
sS'x'
F195
sg16
I00
s(dp136
S'y'
F57
sS'x'
F147
sg16
I00
s(dp137
g19
S'curve'
p138
sS'x'
F122
sg16
I00
sS'y'
F76
s(dp139
S'y'
F76
sS'x'
F146
sg16
I00
s(dp140
S'y'
F103
sS'x'
F170
sg16
I00
s(dp141
g19
S'curve'
p142
sS'x'
F170
sg16
I01
sS'y'
F137
s(dp143
S'y'
F178
sS'x'
F170
sg16
I00
s(dp144
S'y'
F197
sS'x'
F139
sg16
I00
s(dp145
g19
S'curve'
p146
sS'x'
F106
sg16
I01
sS'y'
F197
s(dp147
S'y'
F197
sS'x'
F72
sg16
I00
s(dp148
S'y'
F167
sS'x'
F37
sg16
I00
s(dp149
g19
S'curve'
p150
sS'x'
F37
sg16
I01
sS'y'
F123
s(dp151
S'y'
F26
sS'x'
F37
sg16
I00
s(dp152
S'y'
F-13
sS'x'
F155
sg16
I00
s(dp153
g19
S'curve'
p154
sS'x'
F252
sg16
I01
sS'y'
F-13
stp155
stp156
sS'components'
p157
(tsS'anchors'
p158
((dp159
S'y'
F0
sS'x'
F265
sg6
S'bottom'
p160
s(dp161
S'y'
F524
sS'x'
F265
sg6
S'top'
p162
s(dp163
S'y'
F0
sS'x'
F314
sg6
S'bottom'
p164
stp165
sss."
LayerCount: 2
Fore
SplineSet
471 150 m 0
 471 346 135 301 135 408 c 0
 135 464 192 486 255 486 c 0
 302 486 353 473 381 453 c 1
 348 450 329 430 329 396 c 0
 329 357 363 339 398 339 c 0
 430 339 461 368 461 412 c 0
 461 453 396 561 396 607 c 0
 396 659 435 690 611 690 c 1
 611 57 l 1
 521 57 l 1
 521 0 l 1
 811 0 l 1
 811 57 l 1
 716 57 l 1
 716 292 l 2
 716 392 800 469 866 469 c 0
 909 469 944 437 944 357 c 2
 944 57 l 1
 849 57 l 1
 849 0 l 1
 1154 0 l 1
 1154 57 l 1
 1049 57 l 1
 1049 353 l 2
 1049 521 943 538 887 538 c 0
 829 538 755 511 716 431 c 1
 716 750 l 1
 622 750 l 2
 400 750 342 703 334 623 c 0
 330 582 369 532 382 502 c 1
 346 524 287 536 249 536 c 0
 169 536 44 509 44 395 c 0
 44 210 378 268 378 135 c 0
 378 69 308 43 239 43 c 0
 195 43 147 57 122 76 c 1
 146 76 170 103 170 137 c 0
 170 178 139 197 106 197 c 0
 72 197 37 167 37 123 c 0
 37 26 155 -13 252 -13 c 0
 357 -13 471 27 471 150 c 0
323 262 m 0
323 524 m 0
277 524 m 0
277 0 m 0
EndSplineSet
EndChar

StartChar: six
Encoding: 54 54 157
Width: 606
VWidth: 0
Flags: W
PickledData: "(dp1
S'com.typemytype.robofont.layerData'
p2
(dp3
S'back'
p4
(dp5
S'name'
p6
S'six'
p7
sS'lib'
p8
(dp9
sS'unicodes'
p10
(tsS'width'
p11
I606
sS'contours'
p12
((dp13
S'points'
p14
((dp15
S'segmentType'
p16
S'curve'
p17
sS'x'
F297
sS'smooth'
p18
I01
sS'y'
F480
s(dp19
S'y'
F480
sS'x'
F197
sg18
I00
s(dp20
S'y'
F383
sS'x'
F154
sg18
I00
s(dp21
g16
S'curve'
p22
sS'x'
F154
sg18
I01
sS'y'
F256
s(dp23
S'y'
F132
sS'x'
F154
sg18
I00
s(dp24
S'y'
F49
sS'x'
F208
sg18
I00
s(dp25
g16
S'curve'
p26
sS'x'
F298
sg18
I01
sS'y'
F49
s(dp27
S'y'
F49
sS'x'
F387
sg18
I00
s(dp28
S'y'
F134
sS'x'
F439
sg18
I00
s(dp29
g16
S'curve'
p30
sS'x'
F439
sg18
I01
sS'y'
F256
s(dp31
S'y'
F383
sS'x'
F439
sg18
I00
s(dp32
S'y'
F480
sS'x'
F397
sg18
I00
stp33
s(dp34
g14
((dp35
g16
S'curve'
p36
sS'x'
F298
sg18
I01
sS'y'
F-13
s(dp37
S'y'
F-13
sS'x'
F138
sg18
I00
s(dp38
S'y'
F106
sS'x'
F42
sg18
I00
s(dp39
g16
S'curve'
p40
sS'x'
F42
sg18
I01
sS'y'
F262
s(dp41
S'y'
F418
sS'x'
F42
sg18
I00
s(dp42
S'y'
F538
sS'x'
F137
sg18
I00
s(dp43
g16
S'curve'
p44
sS'x'
F297
sg18
I01
sS'y'
F538
s(dp45
S'y'
F538
sS'x'
F457
sg18
I00
s(dp46
S'y'
F418
sS'x'
F551
sg18
I00
s(dp47
g16
S'curve'
p48
sS'x'
F551
sg18
I01
sS'y'
F262
s(dp49
S'y'
F108
sS'x'
F551
sg18
I00
s(dp50
S'y'
F-13
sS'x'
F457
sg18
I00
stp51
stp52
sS'components'
p53
(tsS'anchors'
p54
((dp55
S'y'
F524
sS'x'
F297
sg6
S'top'
p56
stp57
sss."
LayerCount: 2
Fore
SplineSet
550 200 m 0
 550 340 454 412 344 412 c 0
 291 412 217 391 172 342 c 1
 178 499 265 614 383 625 c 1
 382 617 378 604 378 584 c 0
 378 553 410 525 442 525 c 0
 482 525 508 550 508 594 c 0
 508 643 450 676 377 676 c 0
 235 676 69 568 69 296 c 2
 69 281 l 1
 73 85 174 -7 300 -13 c 1
 315 -13 l 2
 450.325643472 -13 550 77.9252996352 550 200 c 0
319 48 m 0
 218 48 172 140 172 249 c 0
 172 307 267 348 321 348 c 0
 410 348 452 285 452 203 c 0
 452 112.80022173 397.342734306 48 319 48 c 0
261 -150 m 0
EndSplineSet
EndChar

StartChar: sk
Encoding: 65547 -1 158
Width: 1129
VWidth: 0
Flags: W
PickledData: "(dp1
S'com.typemytype.robofont.layerData'
p2
(dp3
S'back'
p4
(dp5
S'name'
p6
S'sk'
p7
sS'lib'
p8
(dp9
sS'unicodes'
p10
(tsS'width'
p11
I1129
sS'contours'
p12
(tsS'components'
p13
(tsS'anchors'
p14
(tsss."
LayerCount: 2
Fore
SplineSet
471 150 m 0
 471 346 135 301 135 408 c 0
 135 464 192 486 255 486 c 0
 302 486 353 473 381 453 c 1
 348 450 329 430 329 396 c 0
 329 357 363 339 398 339 c 0
 430 339 461 368 461 412 c 0
 461 453 396 561 396 607 c 0
 396 659 435 690 611 690 c 1
 611 57 l 1
 501 57 l 1
 501 0 l 1
 799 0 l 1
 799 57 l 1
 716 57 l 1
 716 204 l 1
 797 266 l 1
 895 97 l 1
 937 34 980 -10 1053 -10 c 0
 1081 -10 1105 -9 1140 11 c 1
 1126 77 l 1
 1111 70 1098 70 1086 68 c 0
 1082 67 1079 67 1075 67 c 0
 991 67 924 216 859 307 c 1
 1028 467 l 1
 1121 467 l 1
 1121 524 l 1
 828 524 l 1
 828 467 l 1
 920 467 l 1
 716 279 l 1
 716 750 l 1
 622 750 l 2
 400 750 342 703 334 623 c 0
 330 582 369 532 382 502 c 1
 346 524 287 536 249 536 c 0
 169 536 44 509 44 395 c 0
 44 210 378 268 378 135 c 0
 378 69 308 43 239 43 c 0
 195 43 147 57 122 76 c 1
 146 76 170 103 170 137 c 0
 170 178 139 197 106 197 c 0
 72 197 37 167 37 123 c 0
 37 26 155 -13 252 -13 c 0
 357 -13 471 27 471 150 c 0
314 0 m 0
265 524 m 0
265 0 m 0
EndSplineSet
EndChar

StartChar: slash
Encoding: 47 47 159
Width: 582
VWidth: 0
Flags: W
PickledData: "(dp1
S'com.typemytype.robofont.layerData'
p2
(dp3
S'back'
p4
(dp5
S'name'
p6
S'slash'
p7
sS'lib'
p8
(dp9
sS'unicodes'
p10
(tsS'width'
p11
I582
sS'contours'
p12
(tsS'components'
p13
(tsS'anchors'
p14
(tsss."
LayerCount: 2
Fore
SplineSet
433 780 m 1
 491 762 l 1
 211 -83 l 1
 153 -65 l 1
 433 780 l 1
53 453 m 0
EndSplineSet
EndChar

StartChar: sterling
Encoding: 163 163 161
Width: 621
VWidth: 0
Flags: W
PickledData: "(dp1
S'com.typemytype.robofont.layerData'
p2
(dp3
S'back'
p4
(dp5
S'name'
p6
S'sterling'
p7
sS'lib'
p8
(dp9
sS'unicodes'
p10
(tsS'width'
p11
I621
sS'contours'
p12
(tsS'components'
p13
(tsS'anchors'
p14
(tsss."
LayerCount: 2
Fore
SplineSet
69 322 m 1
 401 322 l 1
 414 381 l 1
 80 381 l 1
 69 322 l 1
565 242 m 1
 474 242 l 1
 474 67 l 1
 168 67 l 1
 216 122 268 219 268 313 c 0
 268 436.531566093 203 480 197 552 c 0
 190 631 261 675 346 675 c 0
 406 675 441 653 466 623 c 1
 435 623 399 604 399 547 c 0
 399 503 440 478 481 478 c 0
 532 478 564 516 564 567 c 0
 564 570 564 573 564 576 c 0
 557 675 450 737 339 737 c 0
 338 737 336 737 334 737 c 0
 179 734 70 658 82 546 c 0
 89 485 153 435.006491579 153 312 c 0
 153 212 100 121 52 66 c 1
 83 0 l 1
 565 0 l 1
 565 242 l 1
369 0 m 0
369 722 m 0
373 722 m 0
373 0 m 0
EndSplineSet
EndChar

StartChar: t
Encoding: 116 116 162
Width: 432
VWidth: 0
Flags: W
PickledData: "(dp1
S'com.typemytype.robofont.layerData'
p2
(dp3
S'back'
p4
(dp5
S'name'
p6
S't'
sS'lib'
p7
(dp8
sS'unicodes'
p9
(tsS'width'
p10
I432
sS'contours'
p11
(tsS'components'
p12
(tsS'anchors'
p13
(tsss."
LayerCount: 2
Fore
SplineSet
86 469 m 1
 -14 469 l 1
 -14 492 l 1
 133 535 130 651 160 777 c 0
 163 788 171 794 178 794 c 0
 185 794 191 788 191 777 c 2
 191 524 l 1
 334 524 l 1
 334 468 l 1
 191 468 l 1
 191 141 l 2
 191 81 221 55 262 55 c 2
 262 55 263 55 264 55 c 0
 310 56 341 80 341 171 c 2
 341 241 l 1
 400 241 l 1
 400 181 l 2
 400 62 367 -10 249 -13 c 0
 247 -13 246 -13 244 -13 c 0
 166 -13 86 34 86 144 c 2
 86 469 l 1
206 0 m 0
206 262 m 0
EndSplineSet
EndChar

StartChar: thorn
Encoding: 254 254 163
Width: 623
VWidth: 0
Flags: W
PickledData: "(dp1
S'com.typemytype.robofont.layerData'
p2
(dp3
S'back'
p4
(dp5
S'name'
p6
S'thorn'
p7
sS'lib'
p8
(dp9
sS'unicodes'
p10
(tsS'width'
p11
I623
sS'contours'
p12
(tsS'components'
p13
(tsS'anchors'
p14
(tsss."
LayerCount: 2
Fore
SplineSet
579 263 m 0
 579 103 495 -13 357 -13 c 1
 299 -9 246 16 213 65 c 1
 213 -136 l 1
 321 -136 l 1
 321 -196 l 1
 -7 -196 l 1
 -7 -137 l 1
 108 -137 l 1
 108 -137 l 1
 108 695 l 1
 13 695 l 1
 13 750 l 1
 210 750 l 1
 210 440 l 1
 244 502 299 536 362 538 c 0
 491 543 579 419 579 263 c 0
467 269 m 0
 467 373 422 476 338 476 c 0
 260 476 206 386 206 260 c 0
 206 160 243 42 338 42 c 0
 432 42 467 162 467 269 c 0
EndSplineSet
EndChar

StartChar: three
Encoding: 51 51 164
Width: 540
VWidth: 0
Flags: W
PickledData: "(dp1
S'com.typemytype.robofont.layerData'
p2
(dp3
S'back'
p4
(dp5
S'name'
p6
S'three'
p7
sS'lib'
p8
(dp9
sS'unicodes'
p10
(tsS'width'
p11
F540
sS'contours'
p12
((dp13
S'points'
p14
((dp15
S'y'
F193
sS'x'
F374
sS'smooth'
p16
I00
s(dp17
S'y'
F185
sS'x'
F330
sg16
I00
s(dp18
S'segmentType'
p19
S'curve'
p20
sS'x'
F293
sg16
I01
sS'y'
F185
s(dp21
S'y'
F185
sS'x'
F199
sg16
I00
s(dp22
S'y'
F235
sS'x'
F146
sg16
I00
s(dp23
g19
S'curve'
p24
sS'x'
F146
sg16
I01
sS'y'
F333
s(dp25
S'y'
F418
sS'x'
F146
sg16
I00
s(dp26
S'y'
F478
sS'x'
F208
sg16
I00
s(dp27
g19
S'curve'
p28
sS'x'
F282
sg16
I01
sS'y'
F478
s(dp29
g19
S'line'
p30
sS'x'
F293
sg16
I00
sS'y'
F478
s(dp31
S'y'
F455
sS'x'
F403
sg16
I00
s(dp32
S'y'
F360
sS'x'
F428
sg16
I00
s(dp33
g19
S'curve'
p34
sS'x'
F428
sg16
I01
sS'y'
F277
s(dp35
S'y'
F253
sS'x'
F428
sg16
I00
s(dp36
S'y'
F229
sS'x'
F426
sg16
I00
s(dp37
g19
S'curve'
p38
sS'x'
F423
sg16
I00
sS'y'
F209
stp39
s(dp40
g14
((dp41
S'y'
F-112
sS'x'
F89
sg16
I00
s(dp42
S'y'
F-145
sS'x'
F147
sg16
I00
s(dp43
g19
S'curve'
p44
sS'x'
F220
sg16
I01
sS'y'
F-145
s(dp45
S'y'
F-145
sS'x'
F362
sg16
I00
s(dp46
S'y'
F-42
sS'x'
F528
sg16
I00
s(dp47
g19
S'curve'
p48
sS'x'
F528
sg16
I01
sS'y'
F230
s(dp49
S'y'
F235
sS'x'
F528
sg16
I00
s(dp50
S'y'
F240
sS'x'
F528
sg16
I00
s(dp51
g19
S'curve'
p52
sS'x'
F528
sg16
I01
sS'y'
F245
s(dp53
S'y'
F441
sS'x'
F524
sg16
I00
s(dp54
S'y'
F533
sS'x'
F423
sg16
I00
s(dp55
g19
S'curve'
p56
sS'x'
F297
sg16
I01
sS'y'
F539
s(dp57
g19
S'line'
p58
sS'x'
F282
sg16
I00
sS'y'
F539
s(dp59
S'y'
F539
sS'x'
F150
sg16
I00
s(dp60
S'y'
F448
sS'x'
F47
sg16
I00
s(dp61
g19
S'curve'
p62
sS'x'
F47
sg16
I01
sS'y'
F329
s(dp63
S'y'
F174
sS'x'
F47
sg16
I00
s(dp64
S'y'
F121
sS'x'
F158
sg16
I00
s(dp65
g19
S'curve'
p66
sS'x'
F270
sg16
I01
sS'y'
F121
s(dp67
S'y'
F121
sS'x'
F323
sg16
I00
s(dp68
S'y'
F133
sS'x'
F376
sg16
I00
s(dp69
g19
S'curve'
p70
sS'x'
F418
sg16
I00
sS'y'
F151
s(dp71
S'y'
F30
sS'x'
F401
sg16
I00
s(dp72
S'y'
F-85
sS'x'
F339
sg16
I00
s(dp73
g19
S'curve'
p74
sS'x'
F214
sg16
I00
sS'y'
F-94
s(dp75
S'y'
F-86
sS'x'
F215
sg16
I00
s(dp76
S'y'
F-73
sS'x'
F219
sg16
I00
s(dp77
g19
S'curve'
p78
sS'x'
F219
sg16
I01
sS'y'
F-53
s(dp79
S'y'
F-22
sS'x'
F219
sg16
I00
s(dp80
S'y'
F6
sS'x'
F187
sg16
I00
s(dp81
g19
S'curve'
p82
sS'x'
F155
sg16
I01
sS'y'
F6
s(dp83
S'y'
F6
sS'x'
F115
sg16
I00
s(dp84
S'y'
F-19
sS'x'
F89
sg16
I00
s(dp85
g19
S'curve'
p86
sS'x'
F89
sg16
I01
sS'y'
F-63
stp87
stp88
sS'components'
p89
(tsS'anchors'
p90
((dp91
S'y'
F740
sS'x'
F336
sg6
S'top'
p92
stp93
sss."
LayerCount: 2
Fore
SplineSet
218 -149 m 0
 221 -149 224 -149 227 -149 c 0
 398 -144 501 -54 501 65 c 0
 501 152 451 218 327 231 c 1
 413 253 452 304 452 371 c 0
 452 372 452 374 452 375 c 0
 450 452 394 539 251 539 c 0
 124 539 31 479.564516129 31 371 c 0
 31 336 62 292 116 292 c 0
 158 292 187 322 187 364 c 0
 187 414 141 427 114 427 c 1
 152 470 180 480 232 480 c 0
 312 480 359 436 359 368 c 0
 359 300 306 260 199 244 c 1
 211 182 l 1
 229 185 246 188 261 188 c 0
 263 188 266 188 268 188 c 0
 371 181 392 123 393 65 c 0
 393 64 393 63 393 62 c 0
 393 -20 335 -89 216 -99 c 0
 213 -99 210 -99 207 -99 c 0
 194 -99 181 -97 167 -95 c 1
 170 -84 180 -68 180 -48 c 0
 180 -16 156 20 113 20 c 0
 64 20 44 -11 44 -50 c 1
 48 -117 126 -149 218 -149 c 0
EndSplineSet
EndChar

StartChar: threequarters
Encoding: 190 190 165
Width: 917
VWidth: 0
Flags: W
PickledData: "(dp1
S'com.typemytype.robofont.layerData'
p2
(dp3
S'back'
p4
(dp5
S'name'
p6
S'threequarters'
p7
sS'lib'
p8
(dp9
sS'unicodes'
p10
(tsS'width'
p11
I917
sS'contours'
p12
(tsS'components'
p13
(tsS'anchors'
p14
(tsss."
LayerCount: 2
Fore
SplineSet
680 172 m 1
 565 172 l 1
 680 340 l 1
 680 172 l 1
805 42 m 1
 741 42 l 1
 741 131 l 1
 805 131 l 1
 805 172 l 1
 741 172 l 1
 741 393 l 1
 664 393 l 1
 510 176 l 1
 510 131 l 1
 680 131 l 1
 680 42 l 1
 609 42 l 1
 609 0 l 1
 805 0 l 1
 805 42 l 1
127 366 m 1
 324 366 l 1
 324 408 l 1
 263 408 l 1
 263 762 l 1
 127 724 l 1
 127 672 l 1
 192 689 l 1
 192 408 l 1
 127 408 l 1
 127 366 l 1
688 722 m 1
 737 693 l 1
 217 -30 l 1
 168 -1 l 1
 688 722 l 1
552 10 m 0
382 722 m 0
378 10 m 0
208 722 m 0
235 529 m 0
EndSplineSet
EndChar

StartChar: tilde
Encoding: 732 732 166
Width: 518
VWidth: 0
Flags: W
PickledData: "(dp1
S'com.typemytype.robofont.layerData'
p2
(dp3
S'back'
p4
(dp5
S'name'
p6
S'tilde'
p7
sS'lib'
p8
(dp9
sS'unicodes'
p10
(tsS'width'
p11
I518
sS'contours'
p12
(tsS'components'
p13
(tsS'anchors'
p14
(tsss."
LayerCount: 2
Fore
SplineSet
389 664 m 0
 422 664 432 651 432 619 c 1
 475 619 l 1
 475 706 453 738 393 738 c 0
 340 738 269 692 226 692 c 0
 193 692 183 705 183 737 c 1
 140 737 l 1
 140 650 162 618 222 618 c 0
 275 618 346 664 389 664 c 0
EndSplineSet
EndChar

StartChar: tt
Encoding: 65548 -1 167
Width: 795
VWidth: 0
Flags: W
PickledData: "(dp1
S'com.typemytype.robofont.layerData'
p2
(dp3
S'back'
p4
(dp5
S'name'
p6
S'tt'
p7
sS'lib'
p8
(dp9
sS'unicodes'
p10
(tsS'width'
p11
I795
sS'contours'
p12
(tsS'components'
p13
(tsS'anchors'
p14
(tsss."
LayerCount: 2
Fore
SplineSet
625 -13 m 0
 743 -13 763 72 763 191 c 2
 763 241 l 1
 706 241 l 1
 706 181 l 2
 706 90 682 55 636 55 c 0
 596 55 567 74 567 146 c 2
 567 469 l 1
 710 469 l 1
 710 524 l 1
 567 524 l 1
 567 777 l 2
 567 788 561 794 554 794 c 0
 547 794 539 788 536 777 c 0
 512 675 496 524 401 524 c 2
 203 524 l 1
 203 777 l 2
 203 788 197 794 190 794 c 0
 183 794 175 788 172 777 c 0
 142 651 145 535 -2 492 c 1
 -2 469 l 1
 98 469 l 1
 98 149 l 2
 98 37 177 -13 256 -13 c 0
 374 -13 402 72 402 191 c 2
 402 241 l 1
 346 241 l 1
 346 181 l 2
 346 90 319 55 273 55 c 0
 233 55 203 78 203 146 c 2
 203 469 l 1
 462 469 l 1
 462 159 l 2
 462 47 531 -13 625 -13 c 0
218 262 m 0
218 0 m 0
218 0 m 0
218 262 m 0
EndSplineSet
EndChar

StartChar: two
Encoding: 50 50 168
Width: 517
VWidth: 0
Flags: W
PickledData: "(dp1
S'com.typemytype.robofont.layerData'
p2
(dp3
S'back'
p4
(dp5
S'name'
p6
S'two'
p7
sS'lib'
p8
(dp9
sS'unicodes'
p10
(tsS'width'
p11
I517
sS'contours'
p12
((dp13
S'points'
p14
((dp15
S'y'
F159
sS'x'
F398
sS'smooth'
p16
I00
s(dp17
S'y'
F129
sS'x'
F341
sg16
I00
s(dp18
S'segmentType'
p19
S'curve'
p20
sS'x'
F290
sg16
I01
sS'y'
F129
s(dp21
S'y'
F129
sS'x'
F213
sg16
I00
s(dp22
S'y'
F184
sS'x'
F147
sg16
I00
s(dp23
g19
S'curve'
p24
sS'x'
F147
sg16
I01
sS'y'
F298
s(dp25
S'y'
F400
sS'x'
F147
sg16
I00
s(dp26
S'y'
F476
sS'x'
F200
sg16
I00
s(dp27
g19
S'curve'
p28
sS'x'
F289
sg16
I01
sS'y'
F477
s(dp29
S'y'
F477
sS'x'
F291
sg16
I00
s(dp30
S'y'
F477
sS'x'
F292
sg16
I00
s(dp31
g19
S'curve'
p32
sS'x'
F293
sg16
I01
sS'y'
F477
s(dp33
S'y'
F475
sS'x'
F371
sg16
I00
s(dp34
S'y'
F400
sS'x'
F443
sg16
I00
s(dp35
g19
S'curve'
p36
sS'x'
F443
sg16
I01
sS'y'
F251
s(dp37
S'y'
F239
sS'x'
F443
sg16
I00
s(dp38
S'y'
F211
sS'x'
F443
sg16
I00
s(dp39
g19
S'curve'
p40
sS'x'
F442
sg16
I00
sS'y'
F198
stp41
s(dp42
g14
((dp43
S'y'
F-176
sS'x'
F74
sg16
I00
s(dp44
S'y'
F-218
sS'x'
F129
sg16
I00
s(dp45
g19
S'curve'
p46
sS'x'
F207
sg16
I01
sS'y'
F-218
s(dp47
S'y'
F-218
sS'x'
F321
sg16
I00
s(dp48
S'y'
F-96
sS'x'
F556
sg16
I00
s(dp49
g19
S'curve'
p50
sS'x'
F556
sg16
I00
sS'y'
F211
s(dp51
S'y'
F461
sS'x'
F556
sg16
I00
s(dp52
S'y'
F536
sS'x'
F417
sg16
I00
s(dp53
g19
S'curve'
p54
sS'x'
F293
sg16
I01
sS'y'
F538
s(dp55
S'y'
F538
sS'x'
F292
sg16
I00
s(dp56
S'y'
F538
sS'x'
F290
sg16
I00
s(dp57
g19
S'curve'
p58
sS'x'
F290
sg16
I01
sS'y'
F538
s(dp59
S'y'
F538
sS'x'
F133
sg16
I00
s(dp60
S'y'
F437
sS'x'
F35
sg16
I00
s(dp61
g19
S'curve'
p62
sS'x'
F33
sg16
I01
sS'y'
F305
s(dp63
S'y'
F304
sS'x'
F33
sg16
I00
s(dp64
S'y'
F302
sS'x'
F33
sg16
I00
s(dp65
g19
S'curve'
p66
sS'x'
F33
sg16
I01
sS'y'
F301
s(dp67
S'y'
F138
sS'x'
F33
sg16
I00
s(dp68
S'y'
F62
sS'x'
F151
sg16
I00
s(dp69
g19
S'curve'
p70
sS'x'
F265
sg16
I01
sS'y'
F62
s(dp71
S'y'
F62
sS'x'
F336.06335201775948
sg16
I00
s(dp72
S'y'
F84.077390346547304
sS'x'
F404.85277658113682
sg16
I00
s(dp73
g19
S'curve'
p74
sS'x'
F443
sg16
I00
sS'y'
F136
s(dp75
S'y'
F136
sS'x'
F443
sg16
I00
s(dp76
S'y'
F135
sS'x'
F443
sg16
I00
s(dp77
g19
S'curve'
p78
sS'x'
F443
sg16
I01
sS'y'
F134
s(dp79
S'y'
F49
sS'x'
F443
sg16
I00
s(dp80
S'y'
F-152
sS'x'
F357
sg16
I00
s(dp81
g19
S'curve'
p82
sS'x'
F199
sg16
I00
sS'y'
F-170
s(dp83
S'y'
F-154
sS'x'
F215
sg16
I00
s(dp84
S'y'
F-136
sS'x'
F222
sg16
I00
s(dp85
g19
S'curve'
p86
sS'x'
F222
sg16
I01
sS'y'
F-118
s(dp87
S'y'
F-80
sS'x'
F222
sg16
I00
s(dp88
S'y'
F-45
sS'x'
F192
sg16
I00
s(dp89
g19
S'curve'
p90
sS'x'
F156
sg16
I01
sS'y'
F-44
s(dp91
S'y'
F-44
sS'x'
F154
sg16
I00
s(dp92
S'y'
F-44
sS'x'
F152
sg16
I00
s(dp93
g19
S'curve'
p94
sS'x'
F151
sg16
I01
sS'y'
F-44
s(dp95
S'y'
F-44
sS'x'
F112
sg16
I00
s(dp96
S'y'
F-65
sS'x'
F74
sg16
I00
s(dp97
g19
S'curve'
p98
sS'x'
F74
sg16
I01
sS'y'
F-117
stp99
stp100
sS'components'
p101
(tsS'anchors'
p102
((dp103
S'y'
F740
sS'x'
F343
sg6
S'top'
p104
stp105
sss."
LayerCount: 2
Fore
SplineSet
486 -67 m 1
 468 80 l 1
 207 80 l 1
 339 176 l 1
 441 241 470 310 470 355 c 0
 470 473 394 540 274 540 c 0
 146 540 42 468 42 388 c 2
 42 385 l 1
 43 348 66 306 123 306 c 0
 167 306 198 334 198 377 c 0
 198 412 172 432 151 438 c 1
 178 469 214 484 256 484 c 0
 317 484 369 428.052815769 369 362 c 0
 369 315 347 265 293 229 c 0
 281 220 60 58 60 58 c 2
 61 58 70 0 70 0 c 1
 406 0 l 1
 452 -72 l 1
 486 -67 l 1
EndSplineSet
EndChar

StartChar: u
Encoding: 117 117 169
Width: 628
VWidth: 0
Flags: W
PickledData: "(dp1
S'com.typemytype.robofont.layerData'
p2
(dp3
S'back'
p4
(dp5
S'name'
p6
S'u'
sS'lib'
p7
(dp8
sS'unicodes'
p9
(tsS'width'
p10
I628
sS'contours'
p11
(tsS'components'
p12
(tsS'anchors'
p13
(tsss."
LayerCount: 2
Fore
SplineSet
430 -14 m 1
 627 0 l 1
 627 45 l 1
 532 55 l 1
 532 524 l 1
 338 524 l 1
 338 466 l 1
 427 466 l 1
 427 183 l 2
 427 122 343 57 282 57 c 0
 280 57 l 2
 223 57 195 91 195 177 c 2
 195 524 l 1
 -2 524 l 1
 -2 466 l 1
 90 466 l 1
 90 176 l 2
 90 6 195 -14 254 -14 c 0
 315 -14 383 18 430 85 c 1
 430 -14 l 1
321 524 m 0
588 10 m 0
EndSplineSet
EndChar

StartChar: underscore
Encoding: 95 95 170
Width: 695
VWidth: 0
Flags: W
PickledData: "(dp1
S'com.typemytype.robofont.layerData'
p2
(dp3
S'back'
p4
(dp5
S'name'
p6
S'underscore'
p7
sS'lib'
p8
(dp9
sS'unicodes'
p10
(tsS'width'
p11
I695
sS'contours'
p12
(tsS'components'
p13
(tsS'anchors'
p14
(tsss."
LayerCount: 2
Fore
SplineSet
524 -67 m 1
 524 0 l 1
 160 0 l 1
 160 -67 l 1
 524 -67 l 1
EndSplineSet
EndChar

StartChar: v
Encoding: 118 118 171
Width: 613
VWidth: 0
Flags: W
PickledData: "(dp1
S'com.typemytype.robofont.layerData'
p2
(dp3
S'back'
p4
(dp5
S'name'
p6
S'v'
sS'lib'
p7
(dp8
sS'unicodes'
p9
(tsS'width'
p10
I613
sS'contours'
p11
((dp12
S'points'
p13
((dp14
S'segmentType'
p15
S'line'
p16
sS'x'
F198
sS'smooth'
p17
I00
sS'y'
F524
s(dp18
g15
S'line'
p19
sS'x'
F198
sg17
I00
sS'y'
F57
s(dp20
g15
S'line'
p21
sS'x'
F294
sg17
I00
sS'y'
F57
s(dp22
g15
S'line'
p23
sS'x'
F294
sg17
I00
sS'y'
F0
s(dp24
g15
S'line'
p25
sS'x'
F-1
sg17
I00
sS'y'
F0
s(dp26
g15
S'line'
p27
sS'x'
F-1
sg17
I00
sS'y'
F57
s(dp28
g15
S'line'
p29
sS'x'
F93
sg17
I00
sS'y'
F57
s(dp30
g15
S'line'
p31
sS'x'
F93
sg17
I00
sS'y'
F469
s(dp32
g15
S'line'
p33
sS'x'
F-2
sg17
I00
sS'y'
F469
s(dp34
g15
S'line'
p35
sS'x'
F-2
sg17
I00
sS'y'
F524
stp36
stp37
sS'components'
p38
(tsS'anchors'
p39
(tsss."
LayerCount: 2
Fore
SplineSet
310 -19 m 0
 311 -19 312 -19 313 -19 c 0
 351 -19 373 3 392 56 c 2
 536 466 l 1
 620 466 l 1
 620 524 l 1
 370 524 l 1
 370 466 l 1
 453 466 l 1
 328 77 l 1
 199 466 l 1
 288 466 l 1
 288 524 l 1
 -7 524 l 1
 -7 466 l 1
 83 466 l 1
 236 53 l 2
 254 3 276 -18 310 -19 c 0
EndSplineSet
EndChar

StartChar: w
Encoding: 119 119 172
Width: 824
VWidth: 0
Flags: W
PickledData: "(dp1
S'com.typemytype.robofont.layerData'
p2
(dp3
S'back'
p4
(dp5
S'name'
p6
S'w'
sS'lib'
p7
(dp8
sS'unicodes'
p9
(tsS'width'
p10
I824
sS'contours'
p11
(tsS'components'
p12
(tsS'anchors'
p13
(tsss."
LayerCount: 2
Fore
SplineSet
580 -19 m 0
 616 -19 630 -2 644 53 c 2
 755 466 l 1
 824 466 l 1
 824 524 l 1
 599 524 l 1
 599 466 l 1
 681 466 l 1
 590 104 l 1
 484 468 l 1
 395 468 l 1
 281 107 l 1
 199 466 l 1
 278 466 l 1
 278 524 l 1
 4 524 l 1
 4 466 l 1
 86 466 l 1
 197 51 l 1
 212 0 228 -19 259 -19 c 0
 296 -19 312 1 329 54 c 2
 430 365 l 1
 516 50 l 2
 530 0 547 -19 580 -19 c 0
EndSplineSet
EndChar

StartChar: x
Encoding: 120 120 173
Width: 625
VWidth: 0
Flags: W
PickledData: "(dp1
S'com.typemytype.robofont.layerData'
p2
(dp3
S'back'
p4
(dp5
S'name'
p6
S'x'
sS'lib'
p7
(dp8
sS'unicodes'
p9
(tsS'width'
p10
I625
sS'contours'
p11
(tsS'components'
p12
(tsS'anchors'
p13
(tsss."
LayerCount: 2
Fore
SplineSet
594 524 m 1
 594 466 l 1
 514 466 l 1
 177 58 l 1
 265 58 l 1
 265 0 l 1
 13 0 l 1
 13 58 l 1
 90 58 l 1
 427 465 l 1
 348 465 l 1
 348 524 l 1
 594 524 l 1
279 524 m 1
 279 466 l 1
 206 466 l 1
 542 58 l 1
 623 58 l 1
 623 0 l 1
 333 0 l 1
 333 58 l 1
 420 58 l 1
 82 465 l 1
 2 465 l 1
 2 524 l 1
 279 524 l 1
EndSplineSet
EndChar

StartChar: y
Encoding: 121 121 174
Width: 625
VWidth: 0
Flags: W
PickledData: "(dp1
S'com.typemytype.robofont.layerData'
p2
(dp3
S'back'
p4
(dp5
S'name'
p6
S'y'
sS'lib'
p7
(dp8
sS'unicodes'
p9
(tsS'width'
p10
I625
sS'contours'
p11
((dp12
S'points'
p13
((dp14
S'y'
F-228
sS'x'
F260
sS'smooth'
p15
I00
s(dp16
S'y'
F-175
sS'x'
F320
sg15
I00
s(dp17
S'segmentType'
p18
S'curve'
p19
sS'x'
F380
sg15
I00
sS'y'
F-2
s(dp20
g18
S'line'
p21
sS'x'
F548
sg15
I00
sS'y'
F467
s(dp22
g18
S'line'
p23
sS'x'
F632
sg15
I00
sS'y'
F467
s(dp24
g18
S'line'
p25
sS'x'
F632
sg15
I00
sS'y'
F524
s(dp26
g18
S'line'
p27
sS'x'
F381
sg15
I00
sS'y'
F524
s(dp28
g18
S'line'
p29
sS'x'
F381
sg15
I00
sS'y'
F467
s(dp30
g18
S'line'
p31
sS'x'
F462
sg15
I00
sS'y'
F467
s(dp32
g18
S'line'
p33
sS'x'
F341
sg15
I00
sS'y'
F86
s(dp34
g18
S'line'
p35
sS'x'
F199
sg15
I00
sS'y'
F467
s(dp36
g18
S'line'
p37
sS'x'
F288
sg15
I00
sS'y'
F467
s(dp38
g18
S'line'
p39
sS'x'
F288
sg15
I00
sS'y'
F524
s(dp40
g18
S'line'
p41
sS'x'
F-13
sg15
I00
sS'y'
F524
s(dp42
g18
S'line'
p43
sS'x'
F-13
sg15
I00
sS'y'
F467
s(dp44
g18
S'line'
p45
sS'x'
F84
sg15
I00
sS'y'
F467
s(dp46
g18
S'line'
p47
sS'x'
F274
sg15
I00
sS'y'
F-8
s(dp48
S'y'
F-88
sS'x'
F263
sg15
I00
s(dp49
S'y'
F-177
sS'x'
F226
sg15
I00
s(dp50
g18
S'curve'
p51
sS'x'
F169
sg15
I01
sS'y'
F-177
s(dp52
S'y'
F-177
sS'x'
F133
sg15
I00
s(dp53
S'y'
F-171
sS'x'
F120
sg15
I00
s(dp54
g18
S'curve'
p55
sS'x'
F104
sg15
I00
sS'y'
F-155
s(dp56
S'y'
F-155
sS'x'
F130
sg15
I00
s(dp57
S'y'
F-136
sS'x'
F168
sg15
I00
s(dp58
g18
S'curve'
p59
sS'x'
F168
sg15
I01
sS'y'
F-92
s(dp60
S'y'
F-56
sS'x'
F168
sg15
I00
s(dp61
S'y'
F-23
sS'x'
F147
sg15
I00
s(dp62
g18
S'curve'
p63
sS'x'
F104
sg15
I01
sS'y'
F-23
s(dp64
S'y'
F-23
sS'x'
F51
sg15
I00
s(dp65
S'y'
F-64
sS'x'
F20
sg15
I00
s(dp66
g18
S'curve'
p67
sS'x'
F20
sg15
I01
sS'y'
F-108
s(dp68
S'y'
F-172
sS'x'
F20
sg15
I00
s(dp69
S'y'
F-228
sS'x'
F86
sg15
I00
s(dp70
g18
S'curve'
p71
sS'x'
F176
sg15
I01
sS'y'
F-228
stp72
stp73
sS'components'
p74
(tsS'anchors'
p75
((dp76
S'y'
F524
sS'x'
F323
sg6
S'top'
p77
stp78
sss."
LayerCount: 2
Fore
SplineSet
176 -228 m 0
 260 -228 320 -175 380 -2 c 1
 548 466 l 1
 632 466 l 1
 632 524 l 1
 381 524 l 1
 381 466 l 1
 462 466 l 1
 341 86 l 1
 199 466 l 1
 288 466 l 1
 288 524 l 1
 -13 524 l 1
 -13 466 l 1
 84 466 l 1
 278 -11 l 1
 256 -135 206 -175 163 -175 c 0
 150 -175 142 -170 131 -164 c 1
 151 -154 172 -127 172 -101 c 0
 172 -65 151 -32 108 -32 c 0
 55 -32 24 -66 24 -110 c 0
 24 -174 86 -228 176 -228 c 0
323 524 m 0
EndSplineSet
EndChar

StartChar: z
Encoding: 122 122 176
Width: 509
VWidth: 0
Flags: W
PickledData: "(dp1
S'com.typemytype.robofont.layerData'
p2
(dp3
S'back'
p4
(dp5
S'name'
p6
S'z'
sS'lib'
p7
(dp8
sS'unicodes'
p9
(tsS'width'
p10
I509
sS'contours'
p11
((dp12
S'points'
p13
((dp14
S'segmentType'
p15
S'line'
p16
sS'x'
F138
sS'smooth'
p17
I00
sS'y'
F252
s(dp18
g15
S'line'
p19
sS'x'
F138
sg17
I00
sS'y'
F461
s(dp20
g15
S'line'
p21
sS'x'
F58
sg17
I00
sS'y'
F461
s(dp22
g15
S'line'
p23
sS'x'
F58
sg17
I01
sS'y'
F309
s(dp24
g15
S'line'
p25
sS'x'
F-186
sg17
I00
sS'y'
F309
s(dp26
g15
S'line'
p27
sS'x'
F120
sg17
I00
sS'y'
F705
s(dp28
g15
S'line'
p29
sS'x'
F110
sg17
I00
sS'y'
F776
s(dp30
g15
S'line'
p31
sS'x'
F-277
sg17
I00
sS'y'
F776
s(dp32
g15
S'line'
p33
sS'x'
F-277
sg17
I00
sS'y'
F567
s(dp34
g15
S'line'
p35
sS'x'
F-199
sg17
I00
sS'y'
F567
s(dp36
g15
S'line'
p37
sS'x'
F-199
sg17
I01
sS'y'
F721
s(dp38
g15
S'line'
p39
sS'x'
F16
sg17
I00
sS'y'
F721
s(dp40
g15
S'line'
p41
sS'x'
F-289
sg17
I00
sS'y'
F321
s(dp42
g15
S'line'
p43
sS'x'
F-290
sg17
I00
sS'y'
F321
s(dp44
g15
S'line'
p45
sS'x'
F-282
sg17
I00
sS'y'
F252
stp46
stp47
sS'components'
p48
(tsS'anchors'
p49
(tsss."
LayerCount: 2
Fore
SplineSet
473 0 m 1
 473 204 l 1
 393 204 l 1
 393 57 l 1
 160 57 l 1
 459 451 l 1
 445 524 l 1
 58 524 l 1
 58 335 l 1
 138 335 l 1
 138 469 l 1
 351 469 l 1
 56 77 l 1
 55 77 l 1
 64 0 l 1
 473 0 l 1
EndSplineSet
EndChar

StartChar: zero
Encoding: 48 48 177
Width: 544
VWidth: 0
Flags: W
PickledData: "(dp1
S'com.typemytype.robofont.layerData'
p2
(dp3
S'back'
p4
(dp5
S'name'
p6
S'zero'
p7
sS'lib'
p8
(dp9
sS'unicodes'
p10
(tsS'width'
p11
I544
sS'contours'
p12
(tsS'components'
p13
(tsS'anchors'
p14
(tsss."
LayerCount: 2
Fore
SplineSet
272 49 m 0
 355 49 400 155 400 263 c 0
 400 371 353 480 272 480 c 0
 191 480 144 371 144 263 c 0
 144 155 189 49 272 49 c 0
272 538 m 0
 428 538 508 400 508 263 c 0
 508 125 429 -13 272 -13 c 0
 115 -13 36 125 36 263 c 0
 36 400 116 538 272 538 c 0
EndSplineSet
EndChar
